<?xml version="1.0" encoding="utf-8"?>
<!-- Generator: Adobe Illustrator 16.0.0, SVG Export Plug-In . SVG Version: 6.00 Build 0)  -->
<!DOCTYPE svg PUBLIC "-//W3C//DTD SVG 1.1//EN" "http://www.w3.org/Graphics/SVG/1.1/DTD/svg11.dtd">
<svg version="1.1" id="Capa_1" xmlns="http://www.w3.org/2000/svg" xmlns:xlink="http://www.w3.org/1999/xlink" x="0px" y="0px"
	 width="100px" height="100px" viewBox="206 206 100 100" enable-background="new 206 206 100 100" xml:space="preserve">
<path fill="#EBEBEB" d="M304.26,207.74c-2.307-2.308-6.046-2.308-8.354,0.001l-32.16,32.159l-5.796-5.796
	c-1.93-1.931-5.063-1.931-6.993,0l-3.486,3.486c-8.438,2.011-16.878,4.022-25.316,6.034l-13.485,3.215
	c-1.129,0.269-2.049,1.088-2.446,2.176c-0.401,1.091-0.227,2.309,0.461,3.242c14.923,20.286,32.776,38.138,53.061,53.061
	c0.604,0.443,1.323,0.674,2.052,0.674c0.401,0,0.803-0.07,1.19-0.213c1.091-0.398,1.907-1.318,2.176-2.447l4.027-16.891
	c1.741-7.304,3.481-14.606,5.223-21.911l3.486-3.486c1.931-1.931,1.931-5.063,0-6.993l-5.797-5.796l32.16-32.159
	C306.568,213.788,306.568,210.047,304.26,207.74z M259.653,296.586c-2.816-2.166-5.575-4.396-8.287-6.679l4.561-12.851l-9.013,9.011
	c-3.244-2.868-6.407-5.825-9.492-8.862l4.528-7.154l-7.176,4.505c-2.824-2.866-5.577-5.804-8.255-8.813l9.047-9.046l-12.929,4.588
	c-2.476-2.92-4.884-5.897-7.223-8.936l30.828-7.349l20.758,20.758L259.653,296.586z"/>
</svg>
