<?xml version="1.0" encoding="utf-8"?>
<!-- Generator: Adobe Illustrator 16.0.0, SVG Export Plug-In . SVG Version: 6.00 Build 0)  -->
<!DOCTYPE svg PUBLIC "-//W3C//DTD SVG 1.1//EN" "http://www.w3.org/Graphics/SVG/1.1/DTD/svg11.dtd">
<svg version="1.1" id="Capa_1" xmlns="http://www.w3.org/2000/svg" xmlns:xlink="http://www.w3.org/1999/xlink" x="0px" y="0px"
	 width="100px" height="100px" viewBox="206 206.001 100 100" enable-background="new 206 206.001 100 100" xml:space="preserve">
<g>
	<path fill="#EBEBEB" d="M305.431,226.571c-0.556-1.181-1.381-2.126-2.475-2.838c-1.094-0.711-2.302-1.067-3.62-1.067h-40.002
		c-2.014,0-3.681,0.764-5,2.292l-46.67,53.337c-0.868,0.972-1.397,2.108-1.589,3.411c-0.191,1.302-0.026,2.543,0.495,3.724
		c0.556,1.181,1.38,2.126,2.474,2.839c1.094,0.71,2.302,1.067,3.621,1.067h40.002c2.015,0,3.681-0.763,5.001-2.291l46.669-53.338
		c0.866-0.973,1.396-2.109,1.588-3.412C306.117,228.993,305.951,227.752,305.431,226.571z M252.668,282.669h-40.003l17.501-20.002
		h40.002L252.668,282.669z"/>
</g>
</svg>
