<?xml version="1.0" encoding="utf-8"?>
<!-- Generator: Adobe Illustrator 16.0.0, SVG Export Plug-In . SVG Version: 6.00 Build 0)  -->
<!DOCTYPE svg PUBLIC "-//W3C//DTD SVG 1.1//EN" "http://www.w3.org/Graphics/SVG/1.1/DTD/svg11.dtd">
<svg version="1.1" id="Capa_1" xmlns="http://www.w3.org/2000/svg" xmlns:xlink="http://www.w3.org/1999/xlink" x="0px" y="0px"
	 width="100px" height="100px" viewBox="206 205.977 100 100" enable-background="new 206 205.977 100 100" xml:space="preserve">
<g>
	<path fill="#EBEBEB" d="M245.519,259.195c-1.899,2.092-2.365,3.595-4.855,7.528c1.609,1.123,4.701,3.717,6.844,8.186
		c4.282-2.459,6.28-2.833,8.548-4.742c14.817-12.477,51.1-57.203,49.852-58.498C304.596,210.298,258.566,244.888,245.519,259.195z
		 M236.386,270.197c-6.434-1.139-12.787,2.93-17.027,13.099c-4.244,10.167-11.824,14.237-13.295,13.989
		c7.911,2.862,32.036,10.183,38.031-17.686C241.549,272.915,236.386,270.197,236.386,270.197z"/>
</g>
</svg>
