<?xml version="1.0" encoding="utf-8"?>
<!-- Generator: Adobe Illustrator 16.0.0, SVG Export Plug-In . SVG Version: 6.00 Build 0)  -->
<!DOCTYPE svg PUBLIC "-//W3C//DTD SVG 1.1//EN" "http://www.w3.org/Graphics/SVG/1.1/DTD/svg11.dtd">
<svg version="1.1" id="Capa_1" xmlns="http://www.w3.org/2000/svg" xmlns:xlink="http://www.w3.org/1999/xlink" x="0px" y="0px"
	 width="90px" height="100px" viewBox="211.002 205.976 90 100" enable-background="new 211.002 205.976 90 100"
	 xml:space="preserve">
<g>
	<path fill="#AA1111" d="M252.782,245.493c-2.092-1.899-3.595-2.365-7.527-4.855c-1.123,1.609-3.717,4.701-8.187,6.844
		c2.459,4.282,2.833,6.28,4.742,8.549c12.478,14.816,57.203,51.1,58.498,49.852C301.68,304.569,267.089,258.54,252.782,245.493z
		 M241.78,236.36c1.139-6.435-2.93-12.787-13.099-17.027c-10.167-4.244-14.237-11.824-13.989-13.295
		c-2.861,7.91-10.183,32.035,17.686,38.031C239.063,241.522,241.78,236.36,241.78,236.36z"/>
</g>
</svg>
