<?xml version="1.0" encoding="utf-8"?>
<!-- Generator: Adobe Illustrator 16.0.0, SVG Export Plug-In . SVG Version: 6.00 Build 0)  -->
<!DOCTYPE svg PUBLIC "-//W3C//DTD SVG 1.1//EN" "http://www.w3.org/Graphics/SVG/1.1/DTD/svg11.dtd">
<svg version="1.1" id="Layer_2" xmlns="http://www.w3.org/2000/svg" xmlns:xlink="http://www.w3.org/1999/xlink" x="0px" y="0px"
	 width="200px" height="200px" viewBox="0 0 200 200" enable-background="new 0 0 200 200" xml:space="preserve">
<path fill="#AA1111" d="M199.962,188.029c0,6.576-5.373,11.91-12,11.91H12.038c-6.627,0-12-5.334-12-11.91V11.972
	c0-6.578,5.373-11.911,12-11.911h175.924c6.627,0,12,5.333,12,11.911V188.029z M59.833,49.5L35,139.667h15l6.333-26.167h26.833
	l7.333,26.167h15.834l-27-94.167H60L59.833,49.5z M69.833,59.667L60.167,99h19.5L69.833,59.667z M125,108h34.667
	c0,0,2.667-0.666,2.667-8c0-7.333-2.001-31.667-24.334-31s-34.666,28.001-25.333,53.667c14,23.666,32.333,20,45,14.333L158,124
	C158,124,127.761,138.158,125,108z M125.334,95.667H148c0,0-0.833-14.666-9.75-13.833C126.667,82.333,125.334,95.667,125.334,95.667
	z"/>
</svg>
