<?xml version="1.0" encoding="utf-8"?>
<!-- Generator: Adobe Illustrator 16.0.0, SVG Export Plug-In . SVG Version: 6.00 Build 0)  -->
<!DOCTYPE svg PUBLIC "-//W3C//DTD SVG 1.1//EN" "http://www.w3.org/Graphics/SVG/1.1/DTD/svg11.dtd">
<svg version="1.1" id="Capa_1" xmlns="http://www.w3.org/2000/svg" xmlns:xlink="http://www.w3.org/1999/xlink" x="0px" y="0px"
	 width="200px" height="200px" viewBox="156 156 200 200" enable-background="new 156 156 200 200" xml:space="preserve">
<g>
	<g>
		<path fill="#AA1111" d="M237.144,224.404h-0.296c-1.505,6.056-3.01,13.747-4.681,19.637l-6.044,21.58h22.493l-6.34-21.58
			C240.474,237.997,238.661,230.46,237.144,224.404z"/>
		<path fill="#AA1111" d="M343.684,156H168.242c-6.767,0-12.242,5.475-12.242,12.242v175.453c0,6.755,5.475,12.242,12.242,12.242
			h175.453c6.755,0,12.242-5.487,12.242-12.242V168.242C355.938,161.487,350.45,156,343.684,156z M259.791,308.937l-7.857-26.108
			h-29.118l-7.253,26.108h-23.843l31.096-101.717h30.173l31.56,101.717H259.791z M319.461,308.937h-22.956v-73.795h22.956V308.937z
			 M307.847,226.086c-7.241,0-12.077-5.143-11.935-11.483c-0.143-6.648,4.693-11.602,12.101-11.602
			c7.383,0,12.063,4.965,12.206,11.602C320.219,220.943,315.396,226.086,307.847,226.086z"/>
	</g>
</g>
</svg>
