<?xml version="1.0" encoding="utf-8"?>
<!-- Generator: Adobe Illustrator 16.0.0, SVG Export Plug-In . SVG Version: 6.00 Build 0)  -->
<!DOCTYPE svg PUBLIC "-//W3C//DTD SVG 1.1//EN" "http://www.w3.org/Graphics/SVG/1.1/DTD/svg11.dtd">
<svg version="1.1" id="Layer_2" xmlns="http://www.w3.org/2000/svg" xmlns:xlink="http://www.w3.org/1999/xlink" x="0px" y="0px"
	 width="140px" height="140px" viewBox="1 1 140 140" enable-background="new 1 1 140 140" xml:space="preserve">
<circle fill="#353535" cx="71" cy="71" r="69.879"/>
<g>
	<path fill="#FFFFFF" d="M12.075,73.11c0.149,1.882,2,2.778,4.122,2.778c1.553,0,2.807-0.209,4.032-0.598l0.598,3.076
		c-1.494,0.598-3.315,0.895-5.287,0.895c-4.958,0-7.795-2.867-7.795-7.437c0-3.704,2.3-7.795,7.377-7.795
		c4.719,0,6.511,3.673,6.511,7.287c0,0.775-0.09,1.464-0.149,1.792L12.075,73.11L12.075,73.11z M17.42,70.004
		c0-1.104-0.478-2.957-2.569-2.957c-1.911,0-2.688,1.732-2.808,2.957H17.42z"/>
	<path fill="#FFFFFF" d="M28.112,64.361l1.434,2.419c0.418,0.747,0.806,1.493,1.195,2.18h0.06c0.388-0.777,0.747-1.523,1.135-2.24
		l1.284-2.359h4.928l-4.809,6.958l4.868,7.646h-5.137l-1.463-2.629c-0.418-0.716-0.777-1.463-1.135-2.209h-0.089
		c-0.359,0.774-0.747,1.493-1.105,2.209l-1.374,2.629h-4.988l4.958-7.437l-4.839-7.168L28.112,64.361L28.112,64.361z"/>
	<path fill="#FFFFFF" d="M40.806,69.258c0-1.911-0.06-3.553-0.12-4.897h3.942l0.209,2.031h0.059
		c1.075-1.553,2.748-2.359,4.868-2.359c3.196,0,6.063,2.777,6.063,7.437c0,5.316-3.375,7.824-6.63,7.824
		c-1.762,0-3.136-0.718-3.793-1.672h-0.06v7.256h-4.54V69.258z M45.345,72.692c0,0.359,0.03,0.688,0.089,0.956
		c0.299,1.225,1.344,2.15,2.659,2.15c1.971,0,3.136-1.643,3.136-4.122c0-2.331-1.045-4.092-3.077-4.092
		c-1.284,0-2.419,0.957-2.718,2.301c-0.06,0.238-0.089,0.537-0.089,0.807V72.692z"/>
	<path fill="#FFFFFF" d="M59.323,69.168c0-2.151-0.06-3.555-0.12-4.809h3.913l0.149,2.688h0.12c0.746-2.121,2.538-3.017,3.941-3.017
		c0.418,0,0.627,0,0.956,0.06v4.271c-0.329-0.06-0.717-0.12-1.225-0.12c-1.673,0-2.807,0.896-3.106,2.301
		c-0.06,0.297-0.09,0.656-0.09,1.015v7.407h-4.54L59.323,69.168L59.323,69.168z"/>
	<path fill="#FFFFFF" d="M74.584,73.11c0.149,1.882,2.002,2.778,4.123,2.778c1.553,0,2.807-0.209,4.031-0.598l0.598,3.076
		c-1.494,0.598-3.315,0.895-5.286,0.895c-4.958,0-7.795-2.867-7.795-7.437c0-3.704,2.301-7.795,7.377-7.795
		c4.718,0,6.51,3.673,6.51,7.287c0,0.775-0.091,1.464-0.149,1.792L74.584,73.11L74.584,73.11z M79.931,70.004
		c0-1.104-0.478-2.957-2.568-2.957c-1.911,0-2.688,1.732-2.808,2.957H79.931z"/>
	<path fill="#FFFFFF" d="M87.486,74.992c0.837,0.507,2.569,1.105,3.914,1.105c1.373,0,1.941-0.478,1.941-1.225
		c0-0.746-0.448-1.104-2.15-1.672c-3.017-1.017-4.181-2.658-4.151-4.392c0-2.718,2.329-4.778,5.942-4.778
		c1.703,0,3.226,0.388,4.123,0.836l-0.809,3.136c-0.657-0.358-1.911-0.836-3.165-0.836c-1.105,0-1.732,0.448-1.732,1.195
		c0,0.687,0.567,1.045,2.358,1.673c2.778,0.956,3.943,2.36,3.973,4.51c0,2.716-2.151,4.717-6.331,4.717
		c-1.912,0-3.615-0.418-4.719-1.015L87.486,74.992z"/>
	<path fill="#FFFFFF" d="M101.105,74.992c0.836,0.507,2.568,1.105,3.912,1.105c1.374,0,1.941-0.478,1.941-1.225
		c0-0.746-0.448-1.104-2.15-1.672c-3.015-1.017-4.18-2.658-4.151-4.392c0-2.718,2.329-4.778,5.943-4.778
		c1.703,0,3.226,0.388,4.122,0.836l-0.807,3.135c-0.657-0.358-1.911-0.836-3.166-0.836c-1.105,0-1.732,0.448-1.732,1.195
		c0,0.687,0.568,1.045,2.359,1.672c2.778,0.956,3.942,2.359,3.972,4.51c0,2.717-2.149,4.718-6.331,4.718
		c-1.911,0-3.613-0.418-4.717-1.016L101.105,74.992z"/>
	<path fill="#A6A09B" d="M111.737,81.652c1.195-0.09,2.121-0.358,2.688-0.955c0.656-0.688,0.896-1.853,0.896-4.75V64.36h4.569
		v12.663c0,3.196-0.718,5.138-2.06,6.392c-1.343,1.255-3.465,1.792-5.646,1.792L111.737,81.652z M120.01,60.299
		c0,1.254-0.926,2.27-2.448,2.27c-1.434,0-2.358-1.016-2.358-2.27c0-1.314,0.925-2.3,2.418-2.3
		C119.085,57.999,119.981,58.985,120.01,60.299z"/>
	<path fill="#A6A09B" d="M124.073,74.992c0.836,0.507,2.568,1.105,3.912,1.105c1.374,0,1.94-0.478,1.94-1.225
		c0-0.746-0.447-1.104-2.15-1.672c-3.015-1.017-4.18-2.658-4.151-4.392c0-2.718,2.33-4.778,5.944-4.778
		c1.702,0,3.226,0.388,4.122,0.836l-0.807,3.135c-0.657-0.358-1.912-0.836-3.166-0.836c-1.105,0-1.732,0.448-1.732,1.195
		c0,0.687,0.567,1.045,2.358,1.672c2.779,0.956,3.943,2.359,3.973,4.51c0,2.717-2.15,4.718-6.331,4.718
		c-1.911,0-3.614-0.418-4.718-1.016L124.073,74.992z"/>
</g>
</svg>
