<?xml version="1.0" encoding="utf-8"?>
<!-- Generator: Adobe Illustrator 16.0.0, SVG Export Plug-In . SVG Version: 6.00 Build 0)  -->
<!DOCTYPE svg PUBLIC "-//W3C//DTD SVG 1.1//EN" "http://www.w3.org/Graphics/SVG/1.1/DTD/svg11.dtd">
<svg version="1.1" id="Capa_1" xmlns="http://www.w3.org/2000/svg" xmlns:xlink="http://www.w3.org/1999/xlink" x="0px" y="0px"
	 width="140px" height="140px" viewBox="0 0 140 140" enable-background="new 0 0 140 140" xml:space="preserve">
<g>
	<path d="M70,0.083C31.387,0.083,0.083,31.385,0.083,70S31.385,139.916,70,139.916S139.916,108.614,139.916,70
		S108.614,0.083,70,0.083z M111.521,111.521c-5.397,5.396-11.679,9.631-18.67,12.588c-1.774,0.75-3.578,1.41-5.408,1.979v-10.479
		c0-5.508-1.887-9.559-5.666-12.151c2.367-0.229,4.541-0.547,6.521-0.957s4.075-1.001,6.281-1.774
		c2.209-0.773,4.188-1.695,5.94-2.766s3.438-2.458,5.053-4.165s2.971-3.642,4.063-5.804c1.094-2.162,1.957-4.758,2.596-7.783
		c0.639-3.027,0.955-6.361,0.955-10.003c0-7.056-2.297-13.063-6.896-18.024c2.095-5.463,1.868-11.402-0.683-17.822l-1.707-0.204
		c-1.184-0.138-3.313,0.364-6.385,1.502s-6.521,3.004-10.345,5.599c-5.416-1.502-11.037-2.253-16.864-2.253
		c-5.871,0-11.47,0.751-16.796,2.253c-2.411-1.639-4.7-2.992-6.862-4.063c-2.162-1.069-3.892-1.797-5.188-2.185
		c-1.297-0.387-2.503-0.626-3.618-0.717c-1.115-0.092-1.832-0.114-2.15-0.067c-0.319,0.045-0.547,0.09-0.684,0.135
		c-2.549,6.465-2.775,12.404-0.683,17.822c-4.597,4.961-6.896,10.969-6.896,18.024c0,3.642,0.318,6.976,0.955,10.003
		c0.639,3.025,1.502,5.621,2.596,7.783c1.092,2.163,2.446,4.097,4.063,5.804s3.3,3.095,5.053,4.165
		c1.754,1.069,3.733,1.991,5.94,2.766c2.208,0.773,4.301,1.364,6.28,1.774c1.98,0.41,4.154,0.729,6.521,0.957
		c-3.732,2.548-5.6,6.601-5.6,12.151v10.685c-2.062-0.614-4.094-1.34-6.09-2.185c-6.99-2.957-13.271-7.191-18.668-12.588
		c-5.396-5.396-9.631-11.679-12.588-18.67c-3.058-7.229-4.608-14.92-4.608-22.852s1.551-15.621,4.608-22.854
		c2.959-6.99,7.193-13.271,12.59-18.666c5.396-5.397,11.677-9.633,18.666-12.59c7.232-3.058,14.922-4.608,22.854-4.608
		s15.621,1.551,22.852,4.608c6.991,2.959,13.273,7.193,18.67,12.59c5.396,5.396,9.632,11.677,12.589,18.666
		c3.059,7.232,4.608,14.922,4.608,22.854s-1.551,15.621-4.608,22.852C121.152,99.843,116.916,106.125,111.521,111.521z"/>
</g>
</svg>
