<?xml version="1.0" encoding="utf-8"?>
<!-- Generator: Adobe Illustrator 16.0.0, SVG Export Plug-In . SVG Version: 6.00 Build 0)  -->
<!DOCTYPE svg PUBLIC "-//W3C//DTD SVG 1.1//EN" "http://www.w3.org/Graphics/SVG/1.1/DTD/svg11.dtd">
<svg version="1.1" id="Layer_1" xmlns="http://www.w3.org/2000/svg" xmlns:xlink="http://www.w3.org/1999/xlink" x="0px" y="0px"
	 width="141px" height="158px" viewBox="1.255 3.848 141 158" enable-background="new 1.255 3.848 141 158" xml:space="preserve">
<g id="Layer_2">
	<path fill="#82C865" d="M71.469,161.824C-5.18,121.8-3.043,46.802,6.283,26.596c0,0,11.258-24.384,65.758-22.636
		c0,0,53.723,0.971,65.187,22.636c9.326,20.207,11.462,95.204-65.187,135.229"/>
	<path fill="#412F1F" d="M71.516,149.01C7.304,115.48,9.094,52.652,16.906,35.723c0,0,9.433-20.427,55.088-18.962
		c0,0,45.006,0.815,54.608,18.962c7.813,16.929,9.604,79.758-54.608,113.287"/>
	<path fill="#82C865" d="M71.754,22.32c0,0,5.824,11.075,10.779,17.778c4.954,6.703,31.184,58.871-10.492,83.936
		c0,0-37.013-20.693-23.898-66.449C58.051,34.562,67.971,34.271,71.754,22.32z"/>
	<path fill="#759B3A" d="M72.041,33.687v83.061c0,0,21.276-7.284,19.526-43.57C87.487,43.888,72.041,33.687,72.041,33.687z"/>
</g>
</svg>
