<?xml version="1.0" encoding="utf-8"?>
<!-- Generator: Adobe Illustrator 16.0.0, SVG Export Plug-In . SVG Version: 6.00 Build 0)  -->
<!DOCTYPE svg PUBLIC "-//W3C//DTD SVG 1.1//EN" "http://www.w3.org/Graphics/SVG/1.1/DTD/svg11.dtd">
<svg version="1.1" id="Layer_2" xmlns="http://www.w3.org/2000/svg" xmlns:xlink="http://www.w3.org/1999/xlink" x="0px" y="0px"
	 width="140px" height="151px" viewBox="0 0 140 151" enable-background="new 0 0 140 151" xml:space="preserve">
<path fill="#8CC84B" d="M41.844,48.495h9.667v68c0,0-4.334,18.666-22.334,13.333S0.844,114.494,0.844,111.161V44.828
	c0,0,1.334-8,6.667-10.667l51-30.725c0,0,11.333-6.392,23,0l53.334,32.392c0,0,4.666,0.667,4,11l0.064,60
	c0,0,1.936,5.666-5.064,10.333l-45.668,27.203c0,0-20.992,13.589-36.667,0l-6.333-4.203l9-5.333c0,0,7.31,8.333,15.822,7.333
	c8.512-1,54.512-28.666,54.512-28.666s7.668-3.001,7-14.334c-0.666-11.333,0-49.667,0-49.667s-1.001-5.333-7.334-8.667
	L75.512,12.162c0,0-2.334-5-10-0.333L16.178,40.162c0,0-5.667,1.333-5.333,13.333v56.333c0,0,30.334,21.333,30.667,5.333
	L41.844,48.495z"/>
<path fill="#8CC84B" d="M103.178,64.162h11c0,0-2.334-18.333-26.666-18.333c-24.333,0-27.333,14.333-26,24.667
	c1,4.667,17.333,9.334,34.333,11c18,4,11,19-6,18.333c-23,0-22.333-12-22.333-12l-8.667,0.333c0,0-4.333,18.334,30.333,19.667
	c35.333-2.667,31.666-29.854,13.333-33.928c-18.333-4.073-42.332-2.739-29.666-16.739C86.512,50.162,100.178,56.829,103.178,64.162z
	"/>
</svg>
