<?xml version="1.0" encoding="utf-8"?>
<!-- Generator: Adobe Illustrator 16.0.0, SVG Export Plug-In . SVG Version: 6.00 Build 0)  -->
<!DOCTYPE svg PUBLIC "-//W3C//DTD SVG 1.1//EN" "http://www.w3.org/Graphics/SVG/1.1/DTD/svg11.dtd">
<svg version="1.1" id="Capa_1" xmlns="http://www.w3.org/2000/svg" xmlns:xlink="http://www.w3.org/1999/xlink" x="0px" y="0px"
	 width="200px" height="200px" viewBox="156 156 200 200" enable-background="new 156 156 200 200" xml:space="preserve">
<g>
	<g>
		<path fill="#AA1111" d="M223.809,212.994c-5.059,0-8.492,0.492-10.277,0.996v32.514c2.128,0.481,4.726,0.641,8.32,0.641
			c13.241,0,21.413-6.695,21.413-17.979C243.252,219.048,236.226,212.994,223.809,212.994z"/>
		<path fill="#AA1111" d="M343.69,156H168.246c-6.764,0-12.246,5.471-12.246,12.211v175.433c0,6.752,5.482,12.233,12.246,12.233
			H343.69c6.751,0,12.233-5.481,12.233-12.233V168.223C355.924,161.471,350.441,156,343.69,156z M257.787,254.674
			c-8.48,8.011-21.081,11.605-35.764,11.605c-3.285,0-6.214-0.161-8.503-0.491v39.391h-24.686V196.502
			c7.679-1.293,18.459-2.277,33.669-2.277c15.348,0,26.311,2.93,33.647,8.824c7.061,5.562,11.788,14.717,11.788,25.498
			C267.938,239.328,264.334,248.449,257.787,254.674z M294.993,306.804c-10.483,0-19.788-2.266-25.842-5.55l4.407-17.809
			c4.576,2.759,14.064,6.032,21.435,6.032c7.496,0,10.609-2.609,10.609-6.707c0-4.074-2.449-6.031-11.754-9.144
			c-16.502-5.551-22.889-14.547-22.729-24.022c0-14.855,12.75-26.162,32.525-26.162c9.315,0,17.646,2.14,22.546,4.577l-4.406,17.167
			c-3.594-1.969-10.448-4.567-17.327-4.567c-6.031,0-9.452,2.449-9.452,6.535c0,3.753,3.078,5.71,12.886,9.156
			c15.197,5.218,21.584,12.909,21.732,24.65C329.624,295.852,317.836,306.804,294.993,306.804z"/>
	</g>
</g>
</svg>
