<?xml version="1.0" encoding="utf-8"?>
<!-- Generator: Adobe Illustrator 16.0.0, SVG Export Plug-In . SVG Version: 6.00 Build 0)  -->
<!DOCTYPE svg PUBLIC "-//W3C//DTD SVG 1.1//EN" "http://www.w3.org/Graphics/SVG/1.1/DTD/svg11.dtd">
<svg version="1.1" id="Capa_1" xmlns="http://www.w3.org/2000/svg" xmlns:xlink="http://www.w3.org/1999/xlink" x="0px" y="0px"
	 width="195px" height="150px" viewBox="158.5 181 195 150" enable-background="new 158.5 181 195 150" xml:space="preserve">
<g>
	<path fill="#AA1111" d="M307.558,320.416H286.57c-0.758,0-1.377-0.618-1.377-1.376v-5.108c0-0.757-0.619-1.376-1.376-1.376h-29.366
		c-0.757,0-1.376,0.619-1.376,1.376v5.108c0,0.758-0.619,1.376-1.377,1.376H235.92c-0.758,0-1.377,0.619-1.377,1.376v5.909
		c0,0.758,0.619,1.377,1.377,1.377h71.635c0.757,0,1.376-0.619,1.376-1.377v-5.909C308.933,321.037,308.313,320.416,307.558,320.416
		z"/>
	<g>
		<path fill="#AA1111" d="M342.817,182.249H193.06c-5.21,0-9.449,4.239-9.449,9.451c0,0,0,18.02,0,24.649
			c0,3.258-0.242,3.719,1.944,3.719c1.161,0,2.447,0,3.749,0c1.834,0,1.458-0.461,1.458-3.78c0-6.614,0-24.588,0-24.588
			c0-1.246,1.053-2.299,2.298-2.299h149.758c1.243,0,2.297,1.053,2.297,2.299v92.263H238.347c0,0-3.763-0.008-3.763,4.858
			c0,2.885,0,8.655,0,11.541c0,4.858,3.884,4.858,3.884,4.858h104.349c5.209,0,9.449-4.238,9.449-9.449V191.699
			C352.267,186.488,348.028,182.249,342.817,182.249z M267.938,297.06c-2.353,0-4.26-1.905-4.26-4.257
			c0-2.351,1.907-4.259,4.26-4.259c2.351,0,4.258,1.908,4.258,4.259C272.196,295.154,270.289,297.06,267.938,297.06z"/>
		<path fill="#AA1111" d="M220.007,228.509h-54.176c-3.364,0-6.099,2.735-6.099,6.099v89.045c0,3.363,2.735,6.099,6.099,6.099
			h54.176c3.361,0,6.099-2.735,6.099-6.099v-89.045C226.105,231.244,223.368,228.509,220.007,228.509z M186.236,234.729h13.365
			c0.638,0,1.156,0.517,1.156,1.156c0,0.638-0.518,1.155-1.156,1.155h-13.365c-0.639,0-1.155-0.517-1.155-1.155
			C185.081,235.246,185.598,234.729,186.236,234.729z M192.837,325.468c-1.743,0-3.156-1.414-3.156-3.156
			c0-1.743,1.414-3.156,3.156-3.156c1.743,0,3.157,1.413,3.157,3.156C195.994,324.054,194.581,325.468,192.837,325.468z
			 M220.865,316.19c0,0.813-0.652,1.479-1.447,1.479H166.42c-0.795,0-1.447-0.666-1.447-1.479v-73.992
			c0-0.814,0.652-1.479,1.447-1.479h52.998c0.796,0,1.447,0.666,1.447,1.479V316.19L220.865,316.19z"/>
	</g>
</g>
</svg>
