<?xml version="1.0" encoding="utf-8"?>
<!-- Generator: Adobe Illustrator 16.0.0, SVG Export Plug-In . SVG Version: 6.00 Build 0)  -->
<!DOCTYPE svg PUBLIC "-//W3C//DTD SVG 1.1//EN" "http://www.w3.org/Graphics/SVG/1.1/DTD/svg11.dtd">
<svg version="1.1" id="Layer_2" xmlns="http://www.w3.org/2000/svg" xmlns:xlink="http://www.w3.org/1999/xlink" x="0px" y="0px"
	 width="200px" height="200px" viewBox="0 0 200 200" enable-background="new 0 0 200 200" xml:space="preserve">
<path fill="#AA1111" d="M199.962,188.029c0,6.576-5.373,11.91-12,11.91H12.038c-6.627,0-12-5.334-12-11.91V11.972
	c0-6.578,5.373-11.911,12-11.911h175.924c6.627,0,12,5.333,12,11.911V188.029L199.962,188.029z M109.221,81.474h20.57v-24.36
	c0,0-2.436-11.639-10.285-11.639H82.695c0,0-12.992,0.542-12.992,12.722v31.397c0,0,1.353,7.038,7.037,10.286l31.939,16.781v16.512
	H91.085l-0.271-13.533l-21.112-0.271v24.631c0,0,4.33,11.098,15.428,11.098h34.104c0,0,10.016-1.624,10.557-14.616v-29.773
	c0,0,1.354-6.226-7.308-10.421L91.627,84.18l-0.271-17.864h17.323L109.221,81.474z"/>
</svg>
