<?xml version="1.0" encoding="utf-8"?>
<!-- Generator: Adobe Illustrator 16.0.0, SVG Export Plug-In . SVG Version: 6.00 Build 0)  -->
<!DOCTYPE svg PUBLIC "-//W3C//DTD SVG 1.1//EN" "http://www.w3.org/Graphics/SVG/1.1/DTD/svg11.dtd">
<svg version="1.1" id="Layer_1" xmlns="http://www.w3.org/2000/svg" xmlns:xlink="http://www.w3.org/1999/xlink" x="0px" y="0px"
	 width="400px" height="300px" viewBox="-129 -110 400 300" enable-background="new -129 -110 400 300" xml:space="preserve">
<g>
	<path fill="#FFFFFF" d="M7.323,3.218c0.061-0.546,0.273-1.016,0.637-1.41c0.364-0.394,0.88-0.591,1.547-0.591H25.25
		c1.122,0,1.85,0.577,2.184,1.729L39.81,44.259L52.277,2.945c0.424-1.152,1.198-1.729,2.32-1.729h15.561
		c0.546,0,1.039,0.19,1.479,0.569c0.439,0.379,0.689,0.857,0.75,1.433C73.45,13.896,74.534,24.489,75.643,35
		c1.107,10.511,2.19,21.104,3.254,31.782v0.227c0,1.185-0.668,1.775-2.002,1.775H64.016c-1.396,0-2.124-0.668-2.184-2.002
		L57.874,31.61L47.636,67.009c-0.061,0.306-0.281,0.668-0.66,1.093c-0.38,0.426-0.751,0.639-1.115,0.639H33.895
		c-0.364,0-0.75-0.205-1.16-0.614c-0.409-0.41-0.63-0.78-0.66-1.115l-10.237-35.31L17.88,66.782
		c-0.062,1.334-0.804,2.002-2.229,2.002H2.773c-1.304,0-1.956-0.668-1.956-2.002L7.323,3.218z"/>
	<path fill="#FFFFFF" d="M90.951,3.309c0-0.637,0.174-1.145,0.521-1.524c0.346-0.379,0.84-0.569,1.476-0.569h45.142
		c0.666,0,1.184,0.197,1.547,0.59s0.547,0.922,0.547,1.587v11.251c0,0.515-0.184,1.006-0.547,1.475
		c-0.363,0.469-0.896,0.703-1.593,0.703h-29.483v11.284h22.75c0.576,0,1.053,0.136,1.435,0.409c0.379,0.273,0.567,0.728,0.567,1.365
		v9.828c0,0.425-0.168,0.835-0.5,1.229c-0.334,0.395-0.818,0.592-1.457,0.592h-22.795v11.646h30.576
		c1.364,0,2.047,0.696,2.047,2.089v11.434c0,0.303-0.121,0.574-0.363,0.813c-0.12,0.849-0.742,1.271-1.864,1.271H92.948
		c-0.605,0-1.091-0.16-1.452-0.479c-0.363-0.318-0.545-0.812-0.545-1.479V3.309z"/>
</g>
</svg>
