<?xml version="1.0" encoding="utf-8"?>
<!-- Generator: Adobe Illustrator 16.0.0, SVG Export Plug-In . SVG Version: 6.00 Build 0)  -->
<!DOCTYPE svg PUBLIC "-//W3C//DTD SVG 1.1//EN" "http://www.w3.org/Graphics/SVG/1.1/DTD/svg11.dtd">
<svg version="1.1" id="Layer_1" xmlns="http://www.w3.org/2000/svg" xmlns:xlink="http://www.w3.org/1999/xlink" x="0px" y="0px"
	 width="400px" height="300px" viewBox="-47.5 -110 400 300" enable-background="new -47.5 -110 400 300" xml:space="preserve">
<g>
	<path fill="#FFFFFF" d="M0.873,10.481c0-0.637,0.167-1.145,0.5-1.524s0.834-0.569,1.501-0.569h29.393
		c3.124,0,6.051,0.584,8.781,1.751c2.73,1.168,5.111,2.753,7.144,4.755c2.033,2.002,3.632,4.345,4.8,7.03
		c1.167,2.685,1.752,5.544,1.752,8.577c0,2.063-0.281,4.027-0.842,5.893c-0.562,1.865-1.342,3.61-2.343,5.232
		c-1.001,1.623-2.192,3.094-3.572,4.414c-1.381,1.319-2.889,2.45-4.527,3.39l11.694,22.021c0.211,0.425,0.484,0.925,0.819,1.501
		c0.333,0.577,0.5,1.078,0.5,1.502c0,0.485-0.159,0.856-0.478,1.114c-0.318,0.259-0.75,0.388-1.296,0.388H39.093
		c-0.517,0-0.979-0.151-1.388-0.455c-0.409-0.303-0.675-0.713-0.796-1.229L25.852,53.479h-7.371V74c0,1.305-0.698,1.957-2.093,1.957
		H2.875c-0.607,0-1.092-0.16-1.456-0.479C1.055,75.16,0.873,74.667,0.873,74V10.481z M36.499,30.684c0-0.91-0.167-1.82-0.5-2.73
		c-0.334-0.91-0.804-1.744-1.411-2.502c-0.607-0.758-1.335-1.395-2.184-1.911c-0.85-0.516-1.791-0.849-2.821-1.001
		c-0.85-0.061-1.646-0.114-2.389-0.159c-0.744-0.045-1.555-0.068-2.434-0.068h-6.279V39.01h8.372c0.546,0,1.031-0.015,1.456-0.046
		c0.424-0.03,0.895-0.075,1.411-0.136c1.061-0.121,2.017-0.432,2.866-0.933c0.849-0.5,1.562-1.122,2.139-1.866
		c0.576-0.743,1.016-1.577,1.319-2.502C36.347,32.603,36.499,31.655,36.499,30.684z"/>
	<path fill="#FFFFFF" d="M108.525,69.041c-2.669,2.457-5.673,4.375-9.009,5.756c-3.337,1.379-6.87,2.07-10.601,2.07
		c-4.156,0-8.084-0.76-11.785-2.275c-3.701-1.517-6.947-3.617-9.737-6.303c-2.792-2.684-5.005-5.846-6.643-9.486
		c-1.638-3.64-2.457-7.598-2.457-11.875c0-2.669,0.326-5.255,0.978-7.758c0.652-2.502,1.577-4.846,2.775-7.03
		c1.198-2.184,2.654-4.193,4.368-6.029c1.713-1.835,3.632-3.405,5.756-4.709c2.123-1.304,4.428-2.32,6.916-3.048
		c2.487-0.728,5.111-1.092,7.872-1.092c2.517,0,4.959,0.334,7.325,1.001c2.366,0.667,4.588,1.608,6.666,2.821
		c2.077,1.213,3.981,2.669,5.71,4.368c1.729,1.699,3.215,3.557,4.459,5.574c1.244,2.018,2.207,4.171,2.89,6.461
		c0.682,2.291,1.023,4.649,1.023,7.076c0,1.578-0.022,2.867-0.068,3.867c-0.045,1-0.281,1.797-0.705,2.389
		c-0.425,0.593-1.13,1-2.116,1.229c-0.986,0.228-2.434,0.341-4.345,0.341h-32.76c0.303,1.941,0.917,3.564,1.843,4.868
		c0.925,1.306,1.994,2.345,3.208,3.117c1.213,0.772,2.502,1.327,3.867,1.66c1.365,0.334,2.654,0.501,3.868,0.501
		c1.092,0,2.214-0.114,3.367-0.342c1.152-0.229,2.267-0.53,3.344-0.909c1.076-0.38,2.063-0.819,2.958-1.32
		c0.894-0.5,1.615-1.022,2.161-1.569c0.485-0.394,0.902-0.688,1.251-0.888c0.348-0.196,0.72-0.295,1.115-0.295
		c0.394,0,0.796,0.138,1.206,0.409c0.41,0.271,0.872,0.667,1.388,1.184l4.823,5.461c0.333,0.396,0.546,0.75,0.637,1.067
		c0.091,0.317,0.137,0.646,0.137,0.979c0,0.605-0.167,1.131-0.5,1.568C109.374,68.32,108.98,68.707,108.525,69.041z M86.64,31.139
		c-1.183,0-2.328,0.235-3.435,0.705c-1.107,0.471-2.146,1.1-3.117,1.888c-0.971,0.789-1.843,1.684-2.616,2.685
		s-1.403,2.018-1.888,3.048h23.25c-0.637-1.183-1.328-2.275-2.07-3.276c-0.744-1.001-1.593-1.88-2.548-2.639
		c-0.955-0.758-2.047-1.35-3.276-1.775C89.711,31.351,88.278,31.139,86.64,31.139z"/>
	<path fill="#FFFFFF" d="M184.009,72.589c0,0.517-0.09,1.009-0.272,1.479c-0.182,0.471-0.483,0.842-0.909,1.115
		c-0.334,0.334-0.728,0.545-1.183,0.637c-0.455,0.091-0.851,0.137-1.185,0.137h-8.963c-0.638,0-1.154-0.084-1.547-0.251
		c-0.396-0.166-0.714-0.401-0.957-0.705c-0.242-0.303-0.447-0.675-0.613-1.114c-0.168-0.438-0.342-0.918-0.522-1.434l-1.319-3.412
		c-0.817,0.818-1.713,1.691-2.685,2.615c-0.972,0.926-2.041,1.783-3.207,2.57c-1.168,0.789-2.437,1.447-3.801,1.979
		c-1.363,0.529-2.82,0.796-4.368,0.796c-2.761,0-5.407-0.351-7.94-1.046c-2.533-0.697-4.899-1.689-7.098-2.979
		c-2.2-1.289-4.194-2.836-5.983-4.643c-1.79-1.807-3.329-3.813-4.618-6.027c-1.29-2.216-2.283-4.604-2.98-7.166
		c-0.697-2.563-1.046-5.24-1.046-8.031c0-4.217,0.773-8.137,2.32-11.762c1.547-3.624,3.655-6.779,6.325-9.464
		c2.669-2.685,5.809-4.792,9.418-6.325c3.609-1.531,7.477-2.297,11.603-2.297c1.88,0,3.609,0.281,5.188,0.842
		c1.576,0.562,3.01,1.296,4.299,2.207s2.457,1.941,3.504,3.094c1.048,1.153,1.979,2.321,2.8,3.504l1.772-5.506
		c0.303-0.758,0.553-1.372,0.752-1.843c0.194-0.47,0.408-0.819,0.638-1.046c0.228-0.228,0.508-0.379,0.842-0.455
		c0.332-0.075,0.804-0.114,1.41-0.114h6.778c0.334,0,0.729,0.046,1.185,0.137c0.457,0.091,0.849,0.304,1.183,0.637
		c0.426,0.334,0.729,0.713,0.909,1.137c0.185,0.425,0.272,0.91,0.272,1.456v51.278H184.009z M139.191,47.109
		c0,2.002,0.311,3.875,0.933,5.619c0.621,1.744,1.508,3.254,2.662,4.525c1.152,1.273,2.54,2.283,4.163,3.025
		c1.623,0.742,3.42,1.113,5.392,1.113c2.031,0,3.919-0.371,5.664-1.113c1.744-0.742,3.263-1.752,4.552-3.025
		c1.289-1.271,2.299-2.781,3.024-4.525c0.729-1.744,1.092-3.617,1.092-5.619c0-1.941-0.362-3.793-1.092-5.551
		c-0.728-1.761-1.735-3.308-3.024-4.643c-1.289-1.334-2.808-2.389-4.552-3.162c-1.743-0.773-3.633-1.16-5.664-1.16
		c-1.972,0-3.77,0.387-5.392,1.16c-1.623,0.773-3.011,1.828-4.163,3.162c-1.153,1.335-2.041,2.882-2.662,4.643
		C139.502,43.316,139.191,45.168,139.191,47.109z"/>
	<path fill="#FFFFFF" d="M231.92,58.166c0.426-0.303,0.826-0.492,1.206-0.568c0.379-0.076,0.675-0.113,0.888-0.113
		c0.516,0,0.985,0.105,1.41,0.318c0.426,0.213,0.864,0.667,1.319,1.364l5.096,7.688c0.151,0.244,0.296,0.518,0.433,0.818
		c0.139,0.303,0.205,0.546,0.205,0.729c0,0.699-0.221,1.268-0.66,1.707c-0.438,0.438-0.918,0.826-1.434,1.16
		c-2.486,1.729-5.209,3.115-8.167,4.164c-2.957,1.047-6.09,1.567-9.396,1.567c-2.73,0-5.362-0.351-7.896-1.046
		c-2.531-0.697-4.891-1.689-7.074-2.979c-2.185-1.289-4.187-2.836-6.007-4.643c-1.819-1.805-3.366-3.813-4.641-6.027
		c-1.274-2.216-2.271-4.604-2.979-7.166c-0.714-2.563-1.068-5.24-1.068-8.031s0.354-5.477,1.068-8.053
		c0.713-2.578,1.707-4.967,2.979-7.167c1.272-2.199,2.819-4.201,4.641-6.006c1.82-1.804,3.822-3.344,6.007-4.618
		c2.186-1.274,4.543-2.259,7.074-2.958c2.532-0.697,5.164-1.046,7.896-1.046c3.306,0,6.361,0.44,9.168,1.319
		c2.806,0.88,5.438,2.184,7.895,3.913l-0.137-0.137c0.667,0.395,1.197,0.857,1.593,1.388c0.394,0.531,0.593,1.191,0.593,1.979
		c0,0.546-0.184,1.107-0.548,1.684l-4.049,6.87c-0.851,1.487-1.882,2.229-3.094,2.229c-0.273,0-0.607-0.068-1.001-0.205
		c-0.396-0.136-0.836-0.371-1.32-0.705c-1.335-0.879-2.768-1.6-4.3-2.161c-1.531-0.561-3.162-0.842-4.892-0.842
		c-1.91,0-3.67,0.387-5.277,1.16c-1.608,0.773-2.98,1.828-4.117,3.162c-1.139,1.335-2.025,2.882-2.662,4.642
		c-0.637,1.758-0.956,3.609-0.956,5.551c0,2.002,0.319,3.875,0.956,5.619s1.523,3.254,2.662,4.526
		c1.137,1.274,2.509,2.283,4.117,3.024c1.607,0.744,3.367,1.115,5.277,1.115c1.729,0,3.353-0.304,4.869-0.91
		C229.113,59.879,230.557,59.105,231.92,58.166z"/>
	<path fill="#FFFFFF" d="M268.592,24.248c0.576-0.847,1.274-1.686,2.094-2.518c0.818-0.832,1.781-1.573,2.891-2.223
		c1.105-0.65,2.365-1.179,3.775-1.587c1.41-0.408,3.01-0.613,4.801-0.613c3.457,0,6.543,0.666,9.26,1.996
		c2.715,1.331,5.021,3.146,6.916,5.445s3.337,4.985,4.32,8.059c0.985,3.074,1.479,6.355,1.479,9.843v29.803
		c0,1.152-0.251,2.025-0.751,2.615c-0.501,0.592-1.297,0.889-2.389,0.889h-10.512c-1.306,0-2.199-0.221-2.686-0.66
		s-0.729-1.297-0.729-2.57V42.65c0-1.306-0.252-2.519-0.752-3.642c-0.5-1.122-1.176-2.1-2.022-2.935
		c-0.851-0.834-1.845-1.486-2.979-1.957c-1.139-0.47-2.345-0.705-3.617-0.705c-1.092,0-2.16,0.22-3.207,0.66
		c-1.047,0.44-1.987,1.062-2.821,1.866s-1.532,1.767-2.093,2.889c-0.563,1.123-0.887,2.364-0.979,3.729v30.03
		c0,0.517-0.099,1.031-0.295,1.547c-0.198,0.517-0.494,0.91-0.888,1.183c-0.395,0.244-0.768,0.41-1.115,0.502
		c-0.35,0.092-0.75,0.138-1.205,0.138h-10.283c-1.305,0-2.244-0.317-2.82-0.956c-0.575-0.637-0.863-1.484-0.863-2.548V35.416v-0.318
		V21.563v-0.228V4.456c0-1.031,0.288-1.865,0.863-2.502c0.576-0.637,1.518-0.956,2.82-0.956h10.283c0.697,0,1.471,0.243,2.32,0.728
		c0.394,0.273,0.689,0.667,0.888,1.183c0.196,0.516,0.295,1.001,0.295,1.456L268.592,24.248L268.592,24.248z"/>
</g>
</svg>
