<?xml version="1.0" encoding="utf-8"?>
<!-- Generator: Adobe Illustrator 16.0.0, SVG Export Plug-In . SVG Version: 6.00 Build 0)  -->
<!DOCTYPE svg PUBLIC "-//W3C//DTD SVG 1.1//EN" "http://www.w3.org/Graphics/SVG/1.1/DTD/svg11.dtd">
<svg version="1.1" id="Layer_1" xmlns="http://www.w3.org/2000/svg" xmlns:xlink="http://www.w3.org/1999/xlink" x="0px" y="0px"
	 width="400px" height="300px" viewBox="-120.5 -110 400 300" enable-background="new -120.5 -110 400 300" xml:space="preserve">
<g>
	<path fill="#FFFFFF" d="M25.564,8.653c0.03-0.182,0.128-0.379,0.296-0.591c0.166-0.212,0.371-0.41,0.614-0.592
		c0.242-0.182,0.5-0.326,0.773-0.432s0.53-0.159,0.773-0.159h11.648c0.515,0,0.956,0.159,1.319,0.478
		c0.364,0.318,0.637,0.6,0.819,0.842l1.137,2.594L66.831,72.4c0.242,0.604,0.197,1.1-0.137,1.479
		c-0.334,0.38-0.91,0.569-1.729,0.569H51.908c-0.698,0-1.236-0.13-1.615-0.388c-0.379-0.259-0.675-0.688-0.887-1.297
		c-0.607-1.548-1.199-3.087-1.774-4.619c-0.577-1.53-1.153-3.069-1.729-4.617H21.742c-0.576,1.548-1.16,3.087-1.751,4.617
		c-0.592,1.532-1.176,3.071-1.752,4.619c-0.395,1.121-1.168,1.685-2.32,1.685H2.496c-0.577,0-1.055-0.152-1.434-0.455
		c-0.379-0.304-0.448-0.759-0.205-1.365L25.564,8.653z M33.845,28.127c-0.577,1.547-1.16,3.215-1.751,5.005
		c-0.592,1.79-1.176,3.594-1.752,5.415c-0.577,1.82-1.16,3.617-1.751,5.393c-0.592,1.773-1.176,3.437-1.752,4.982h13.968
		L33.845,28.127z"/>
	<path fill="#FFFFFF" d="M74.02,20.028c0-0.516,0.114-1.008,0.341-1.479c0.228-0.47,0.508-0.841,0.842-1.115
		c0.789-0.515,1.607-0.773,2.457-0.773h6.871c0.574,0,1.029,0.107,1.365,0.319c0.332,0.212,0.611,0.485,0.842,0.819
		c0.227,0.334,0.424,0.713,0.59,1.138c0.168,0.425,0.371,0.849,0.615,1.274c0.061,0.122,0.182,0.417,0.363,0.887
		c0.182,0.471,0.379,0.986,0.592,1.547c0.213,0.562,0.416,1.092,0.615,1.592c0.193,0.5,0.322,0.827,0.387,0.979
		c0.908-1.001,1.781-2.055,2.615-3.162s1.721-2.131,2.66-3.071s1.986-1.713,3.141-2.321c1.15-0.606,2.518-0.91,4.096-0.91
		c1.639,0,3.102,0.122,4.391,0.364c1.289,0.243,2.51,0.6,3.662,1.069c1.152,0.471,2.299,1.069,3.436,1.797
		c1.141,0.728,2.373,1.578,3.709,2.548c2.094,1.123,2.486,2.791,1.186,5.005l-4.143,7.053c-0.605,0.91-1.352,1.472-2.229,1.684
		c-0.881,0.212-1.836,0.076-2.865-0.41c-1.305-1.274-2.633-2.222-3.98-2.844c-1.35-0.622-2.889-0.933-4.617-0.933
		c-1.184,0-2.223,0.167-3.117,0.5c-0.896,0.334-1.707,0.804-2.436,1.41c-0.727,0.607-1.41,1.335-2.047,2.184
		c-0.637,0.85-1.273,1.79-1.91,2.821v32.941c0,1.151-0.281,2.024-0.842,2.617c-0.563,0.59-1.494,0.887-2.799,0.887H77.57
		c-2.366,0-3.549-1.168-3.549-3.504L74.02,20.028L74.02,20.028z"/>
	<path fill="#FFFFFF" d="M129.895,7.652c0-0.94,0.312-1.645,0.934-2.116c0.621-0.47,1.509-0.917,2.66-1.342l10.328-3.595
		c0.151-0.03,0.297-0.045,0.434-0.045s0.268,0,0.387,0c1.122,0,1.873,0.326,2.254,0.979c0.379,0.652,0.567,1.509,0.567,2.571
		l-0.045,14.332h7.599c0.971,0,1.76,0.289,2.365,0.865c0.605,0.577,0.91,1.441,0.91,2.593v8.782c0,1.274-0.305,2.207-0.91,2.798
		c-0.605,0.591-1.396,0.887-2.365,0.887h-7.599l0.045,36.583c0,1.151-0.334,2.024-1.001,2.615c-0.667,0.592-1.594,0.89-2.773,0.89
		H133.4c-2.336,0-3.504-1.168-3.504-3.505l-0.045-36.583h-3.322c-2.336,0-3.504-1.229-3.504-3.686v-8.782
		c0-2.305,1.168-3.458,3.504-3.458h3.322L129.895,7.652z"/>
</g>
</svg>
