<?xml version="1.0" encoding="utf-8"?>
<!-- Generator: Adobe Illustrator 16.0.0, SVG Export Plug-In . SVG Version: 6.00 Build 0)  -->
<!DOCTYPE svg PUBLIC "-//W3C//DTD SVG 1.1//EN" "http://www.w3.org/Graphics/SVG/1.1/DTD/svg11.dtd">
<svg version="1.1" id="Layer_1" xmlns="http://www.w3.org/2000/svg" xmlns:xlink="http://www.w3.org/1999/xlink" x="0px" y="0px"
	 width="400px" height="300px" viewBox="-50 -110 400 300" enable-background="new -50 -110 400 300" xml:space="preserve">
<g>
	<path fill="#FFFFFF" d="M5.583,5.195c0.03-0.516,0.22-0.979,0.569-1.388c0.349-0.41,0.811-0.614,1.388-0.614h13.514
		c0.455,0,0.925,0.19,1.411,0.57c0.485,0.38,0.728,0.858,0.728,1.436v21.609h22.613V5.199c0-0.547,0.189-1.017,0.567-1.413
		c0.378-0.395,0.87-0.593,1.475-0.593h13.297c0.605,0,1.134,0.152,1.588,0.455s0.681,0.789,0.681,1.456V68.76
		c0,0.666-0.197,1.168-0.59,1.5c-0.394,0.334-0.908,0.502-1.543,0.502H47.848c-0.605,0-1.097-0.168-1.475-0.502
		c-0.378-0.332-0.567-0.834-0.567-1.5V42.914H23.192V68.76c0,0.637-0.205,1.129-0.614,1.479c-0.41,0.348-0.963,0.521-1.661,0.521
		H7.54c-1.274,0-1.926-0.592-1.957-1.774V5.195z"/>
	<path fill="#FFFFFF" d="M74.652,41.914c0-2.791,0.356-5.475,1.069-8.054c0.712-2.578,1.713-4.967,3.003-7.167
		c1.289-2.199,2.836-4.201,4.641-6.006c1.804-1.804,3.814-3.344,6.029-4.618c2.214-1.274,4.603-2.259,7.166-2.958
		c2.563-0.697,5.24-1.046,8.031-1.046c4.125,0,8,0.766,11.625,2.297c3.625,1.532,6.78,3.64,9.464,6.325
		c2.684,2.685,4.807,5.84,6.37,9.464c1.562,3.625,2.343,7.545,2.343,11.762c0,2.791-0.356,5.467-1.069,8.03
		c-0.713,2.563-1.714,4.951-3.003,7.166c-1.29,2.216-2.837,4.226-4.641,6.029c-1.805,1.805-3.815,3.353-6.029,4.642
		c-2.215,1.288-4.588,2.282-7.121,2.979c-2.533,0.697-5.18,1.046-7.94,1.046c-2.791,0-5.468-0.349-8.031-1.046
		c-2.563-0.696-4.952-1.69-7.166-2.979c-2.215-1.289-4.225-2.837-6.029-4.642c-1.805-1.806-3.352-3.813-4.641-6.029
		c-1.29-2.215-2.291-4.604-3.003-7.166C75.008,47.381,74.652,44.705,74.652,41.914z M91.26,41.914c0,2.002,0.311,3.875,0.933,5.619
		s1.501,3.254,2.639,4.527c1.138,1.271,2.518,2.281,4.141,3.023c1.622,0.744,3.45,1.115,5.482,1.115
		c1.972,0,3.754-0.371,5.347-1.115c1.592-0.742,2.941-1.752,4.049-3.023c1.107-1.273,1.957-2.783,2.548-4.527
		c0.592-1.744,0.887-3.617,0.887-5.619c0-1.941-0.295-3.792-0.887-5.551c-0.591-1.76-1.441-3.307-2.548-4.642
		c-1.108-1.334-2.457-2.389-4.049-3.162c-1.593-0.773-3.375-1.16-5.347-1.16c-2.032,0-3.86,0.387-5.482,1.16
		c-1.623,0.773-3.003,1.828-4.141,3.162c-1.138,1.335-2.018,2.882-2.639,4.642C91.57,38.122,91.26,39.973,91.26,41.914z"/>
	<path fill="#FFFFFF" d="M144.631,13.79c0.394-0.333,0.811-0.546,1.251-0.637c0.439-0.091,0.857-0.137,1.251-0.137h6.87
		c0.547,0,1.019,0.099,1.412,0.296c0.394,0.198,0.728,0.463,1,0.795c0.272,0.333,0.492,0.711,0.66,1.135
		c0.166,0.424,0.325,0.862,0.479,1.315l1.408,5.808c0.455-0.938,1.01-2.003,1.66-3.199c0.65-1.194,1.518-2.314,2.594-3.358
		c1.076-1.043,2.428-1.92,4.051-2.631c1.623-0.711,3.646-1.066,6.072-1.066c3.885,0,7.281,0.825,10.193,2.473
		c2.908,1.648,5.307,3.865,7.188,6.647c0.575-0.937,1.364-1.943,2.366-3.017c1-1.073,2.199-2.064,3.595-2.972
		c1.396-0.908,2.996-1.656,4.801-2.246c1.806-0.59,3.8-0.885,5.981-0.885c3.459,0,6.546,0.666,9.261,1.996
		c2.715,1.331,5.021,3.146,6.916,5.445c1.896,2.299,3.336,4.985,4.321,8.059c0.986,3.074,1.479,6.355,1.479,9.843v29.803
		c0,1.152-0.25,2.025-0.75,2.615c-0.5,0.592-1.297,0.889-2.39,0.889h-10.513c-1.307,0-2.199-0.221-2.686-0.659
		c-0.484-0.438-0.729-1.297-0.729-2.569V37.455c0-1.305-0.205-2.518-0.613-3.641c-0.41-1.122-0.979-2.1-1.707-2.935
		c-0.729-0.834-1.615-1.486-2.662-1.957c-1.047-0.47-2.207-0.705-3.479-0.705c-1.15,0-2.244,0.228-3.273,0.683
		c-1.031,0.455-1.941,1.085-2.73,1.888c-0.789,0.804-1.418,1.774-1.889,2.912c-0.472,1.137-0.705,2.389-0.705,3.754v29.803
		c0,1.152-0.25,2.025-0.75,2.615c-0.5,0.592-1.297,0.889-2.39,0.889h-0.954h-0.365h-9.191c-1.305,0-2.199-0.221-2.684-0.659
		c-0.486-0.438-0.729-1.297-0.729-2.569V37.455c0-1.305-0.188-2.518-0.567-3.641c-0.379-1.122-0.926-2.1-1.64-2.935
		c-0.713-0.834-1.575-1.486-2.594-1.957c-1.017-0.47-2.16-0.705-3.435-0.705c-1.093,0-2.162,0.22-3.209,0.66
		c-1.048,0.44-1.986,1.062-2.82,1.866c-0.834,0.804-1.532,1.767-2.094,2.889c-0.562,1.123-0.888,2.365-0.979,3.73v30.031
		c0,0.518-0.099,1.031-0.295,1.547c-0.197,0.518-0.494,0.91-0.888,1.184c-0.396,0.244-0.769,0.41-1.114,0.502
		c-0.351,0.09-0.75,0.137-1.205,0.137h-10.284c-1.305,0-2.245-0.316-2.821-0.955c-0.577-0.639-0.865-1.484-0.865-2.549V16.376
		c0-0.574,0.129-1.103,0.387-1.587c0.257-0.484,0.614-0.862,1.069-1.135L144.631,13.79z"/>
	<path fill="#FFFFFF" d="M287.91,63.846c-2.67,2.457-5.674,4.375-9.01,5.756c-3.338,1.379-6.871,2.07-10.603,2.07
		c-4.155,0-8.084-0.76-11.784-2.275c-3.701-1.518-6.945-3.615-9.736-6.303c-2.791-2.684-5.004-5.846-6.645-9.486
		c-1.638-3.641-2.455-7.598-2.455-11.875c0-2.669,0.324-5.254,0.979-7.756c0.652-2.503,1.576-4.846,2.775-7.03
		c1.196-2.184,2.652-4.193,4.366-6.029c1.716-1.835,3.634-3.405,5.757-4.709c2.123-1.304,4.43-2.32,6.916-3.048
		c2.485-0.728,5.109-1.092,7.87-1.092c2.519,0,4.96,0.334,7.326,1.001c2.365,0.667,4.587,1.608,6.665,2.821
		c2.078,1.213,3.98,2.669,5.711,4.368c1.729,1.699,3.215,3.557,4.459,5.574c1.243,2.018,2.206,4.171,2.891,6.461
		c0.683,2.291,1.022,4.649,1.022,7.075c0,1.577-0.022,2.866-0.067,3.868c-0.045,1-0.281,1.798-0.705,2.39
		c-0.427,0.59-1.131,1-2.115,1.229c-0.986,0.228-2.437,0.34-4.346,0.34H254.42c0.305,1.94,0.917,3.563,1.844,4.869
		c0.926,1.306,1.993,2.345,3.209,3.117c1.213,0.772,2.502,1.325,3.865,1.659c1.365,0.334,2.654,0.5,3.868,0.5
		c1.092,0,2.214-0.112,3.366-0.34c1.15-0.229,2.268-0.531,3.345-0.91c1.076-0.379,2.063-0.819,2.957-1.319s1.615-1.022,2.161-1.569
		c0.484-0.394,0.9-0.688,1.252-0.888c0.35-0.196,0.721-0.295,1.114-0.295s0.797,0.138,1.204,0.407
		c0.41,0.273,0.871,0.668,1.39,1.185l4.823,5.461c0.333,0.396,0.546,0.75,0.637,1.068c0.091,0.317,0.139,0.646,0.139,0.979
		c0,0.605-0.168,1.131-0.502,1.568C288.758,63.127,288.365,63.512,287.91,63.846z M266.023,25.943c-1.184,0-2.328,0.235-3.437,0.705
		c-1.106,0.471-2.146,1.1-3.114,1.888c-0.974,0.789-1.845,1.684-2.617,2.685c-0.772,1.001-1.402,2.018-1.89,3.048h23.251
		c-0.637-1.183-1.326-2.275-2.068-3.276c-0.744-1.001-1.594-1.88-2.549-2.639c-0.955-0.758-2.049-1.35-3.275-1.775
		C269.096,26.156,267.662,25.943,266.023,25.943z"/>
</g>
</svg>
