<?xml version="1.0" encoding="utf-8"?>
<!-- Generator: Adobe Illustrator 16.0.0, SVG Export Plug-In . SVG Version: 6.00 Build 0)  -->
<!DOCTYPE svg PUBLIC "-//W3C//DTD SVG 1.1//EN" "http://www.w3.org/Graphics/SVG/1.1/DTD/svg11.dtd">
<svg version="1.1" id="Layer_1" xmlns="http://www.w3.org/2000/svg" xmlns:xlink="http://www.w3.org/1999/xlink" x="0px" y="0px"
	 width="400px" height="300px" viewBox="-78.5 -110 400 300" enable-background="new -78.5 -110 400 300" xml:space="preserve">
<g>
	<path fill="#FFFFFF" d="M7.741,17.24c0-0.603,0.158-1.084,0.473-1.443c0.315-0.359,0.79-0.539,1.422-0.539h27.535
		c1.982,0,3.849,0.273,5.602,0.818c1.752,0.546,3.361,1.3,4.826,2.263c1.465,0.963,2.786,2.111,3.964,3.447s2.177,2.78,2.996,4.331
		c0.818,1.551,1.443,3.183,1.875,4.892c0.431,1.709,0.646,3.441,0.646,5.191c0,2.585-0.468,5.114-1.4,7.584
		c-0.934,2.471-2.263,4.668-3.985,6.593c-1.723,1.924-3.792,3.482-6.205,4.675c-2.414,1.193-5.085,1.804-8.015,1.833H24.417v20.51
		c0,1.236-0.661,1.854-1.982,1.854H9.636c-0.575,0-1.034-0.148-1.378-0.452c-0.345-0.302-0.517-0.769-0.517-1.401V17.24z
		 M40.188,36.114c0-0.862-0.151-1.724-0.453-2.585c-0.301-0.862-0.739-1.63-1.314-2.306c-0.575-0.674-1.271-1.227-2.09-1.658
		s-1.745-0.647-2.779-0.647h-9.135v14.393h9.135c1.034,0,1.968-0.209,2.801-0.625s1.529-0.955,2.09-1.617
		c0.56-0.659,0.991-1.42,1.293-2.283C40.037,37.924,40.188,37.034,40.188,36.114z"/>
	<path fill="#FFFFFF" d="M119.604,76.059c0,0.488-0.086,0.955-0.258,1.4c-0.173,0.446-0.459,0.798-0.862,1.057
		c-0.316,0.315-0.689,0.518-1.12,0.604c-0.431,0.085-0.805,0.129-1.121,0.129h-8.488c-0.604,0-1.092-0.079-1.465-0.238
		c-0.374-0.156-0.675-0.379-0.905-0.668c-0.23-0.287-0.424-0.638-0.582-1.055c-0.158-0.416-0.323-0.868-0.495-1.357l-1.25-3.23
		c-0.775,0.773-1.623,1.602-2.542,2.477c-0.919,0.877-1.933,1.688-3.038,2.436c-1.106,0.746-2.306,1.371-3.598,1.873
		c-1.292,0.504-2.671,0.756-4.136,0.756c-2.615,0-5.121-0.332-7.52-0.992c-2.398-0.659-4.639-1.6-6.722-2.821
		c-2.083-1.221-3.972-2.686-5.666-4.396c-1.695-1.711-3.152-3.612-4.374-5.709c-1.222-2.098-2.162-4.359-2.822-6.787
		c-0.661-2.428-0.991-4.962-0.991-7.605c0-3.992,0.732-7.705,2.197-11.139c1.465-3.432,3.461-6.42,5.99-8.962
		c2.528-2.543,5.501-4.538,8.919-5.99c3.417-1.45,7.081-2.175,10.988-2.175c1.78,0,3.418,0.266,4.912,0.797
		c1.493,0.532,2.851,1.227,4.072,2.09c1.221,0.862,2.327,1.838,3.317,2.931c0.991,1.092,1.874,2.198,2.65,3.318l1.68-5.215
		c0.287-0.718,0.523-1.299,0.711-1.745c0.186-0.445,0.387-0.775,0.603-0.991c0.216-0.215,0.481-0.359,0.797-0.431
		c0.315-0.071,0.76-0.108,1.336-0.108h6.42c0.315,0,0.689,0.043,1.121,0.129c0.43,0.086,0.803,0.288,1.12,0.604
		c0.402,0.316,0.689,0.675,0.862,1.077c0.172,0.403,0.258,0.862,0.258,1.379L119.604,76.059L119.604,76.059z M77.159,51.928
		c0,1.896,0.295,3.672,0.884,5.322c0.588,1.65,1.428,3.081,2.521,4.286c1.091,1.207,2.405,2.162,3.942,2.866
		c1.537,0.703,3.239,1.055,5.106,1.055c1.925,0,3.712-0.352,5.365-1.055c1.651-0.704,3.087-1.659,4.309-2.866
		c1.221-1.205,2.177-2.636,2.866-4.286s1.034-3.426,1.034-5.322c0-1.838-0.344-3.592-1.034-5.257
		c-0.689-1.666-1.646-3.131-2.866-4.396c-1.222-1.264-2.657-2.262-4.309-2.994c-1.653-0.732-3.44-1.099-5.365-1.099
		c-1.868,0-3.57,0.366-5.106,1.099c-1.537,0.732-2.851,1.73-3.942,2.994c-1.092,1.265-1.933,2.729-2.521,4.396
		C77.454,48.336,77.159,50.09,77.159,51.928z"/>
	<path fill="#FFFFFF" d="M129.9,6.08c0-1.207,0.259-2.061,0.774-2.564c0.519-0.502,1.322-0.754,2.413-0.754h9.998
		c1.006,0,1.816,0.252,2.434,0.754c0.619,0.502,0.928,1.357,0.928,2.564v8.402c0,0.344-0.078,0.718-0.235,1.12
		c-0.159,0.403-0.382,0.792-0.669,1.164c-0.289,0.374-0.641,0.683-1.057,0.927c-0.416,0.245-0.883,0.367-1.399,0.367h-9.998
		c-2.125,0-3.188-1.191-3.188-3.577V6.08L129.9,6.08z M129.9,27.884c0-0.92,0.259-1.71,0.774-2.37
		c0.519-0.66,1.322-0.992,2.413-0.992h9.868c0.345,0,0.718,0.08,1.121,0.237c0.401,0.158,0.774,0.387,1.12,0.689
		c0.345,0.302,0.639,0.654,0.885,1.057c0.243,0.402,0.365,0.862,0.365,1.379v48.044c0,1.094-0.301,1.918-0.904,2.479
		c-0.604,0.562-1.465,0.841-2.585,0.841h-9.868c-2.125,0-3.188-1.104-3.188-3.317V27.884H129.9z"/>
	<path fill="#FFFFFF" d="M157.91,25.293c0.373-0.315,0.77-0.517,1.186-0.604c0.416-0.086,0.811-0.13,1.184-0.13h6.507
		c0.519,0,0.963,0.094,1.337,0.281c0.374,0.188,0.689,0.438,0.947,0.753c0.259,0.315,0.467,0.673,0.625,1.075
		s0.309,0.816,0.453,1.245l1.334,5.5c0.433-0.887,1.057-1.897,1.875-3.029c0.818-1.131,1.859-2.191,3.125-3.18
		c1.264-0.988,2.765-1.818,4.502-2.492c1.738-0.673,3.756-1.01,6.056-1.01c3.274,0,6.248,0.631,8.919,1.891
		c2.672,1.26,4.948,2.979,6.831,5.156c1.881,2.178,3.338,4.721,4.372,7.632c1.033,2.911,1.552,6.018,1.552,9.322v28.224
		c0,1.093-0.235,1.918-0.71,2.479c-0.475,0.562-1.229,0.841-2.263,0.841h-9.954c-1.236,0-2.083-0.207-2.544-0.624
		c-0.458-0.416-0.688-1.229-0.688-2.435V48.136c0-1.233-0.279-2.405-0.841-3.512c-0.562-1.104-1.301-2.083-2.22-2.931
		s-1.961-1.516-3.124-2.003c-1.164-0.488-2.349-0.732-3.556-0.732c-1.035,0-2.09,0.23-3.168,0.689
		c-1.076,0.459-2.067,1.099-2.974,1.917c-0.903,0.818-1.666,1.781-2.282,2.887c-0.617,1.105-0.97,2.305-1.058,3.598v28.01
		c0,0.487-0.093,0.976-0.278,1.465c-0.188,0.488-0.469,0.861-0.841,1.119c-0.374,0.23-0.728,0.39-1.057,0.477
		c-0.329,0.085-0.71,0.129-1.142,0.129h-9.738c-1.235,0-2.125-0.303-2.672-0.906c-0.545-0.603-0.817-1.404-0.817-2.412V27.743
		c0-0.544,0.122-1.045,0.366-1.503s0.582-0.816,1.013-1.075L157.91,25.293z"/>
	<path fill="#FFFFFF" d="M222.371,15.991c0-0.89,0.294-1.558,0.885-2.004c0.587-0.445,1.428-0.868,2.52-1.271l9.781-3.405
		c0.145-0.028,0.28-0.042,0.41-0.042c0.129,0,0.251,0,0.366,0c1.062,0,1.772,0.309,2.133,0.927c0.36,0.618,0.538,1.43,0.538,2.436
		l-0.043,13.573h7.195c0.92,0,1.666,0.274,2.242,0.819c0.572,0.547,0.86,1.365,0.86,2.456v8.316c0,1.207-0.288,2.09-0.86,2.65
		c-0.576,0.56-1.323,0.84-2.242,0.84h-7.195l0.043,34.646c0,1.092-0.316,1.916-0.947,2.477c-0.633,0.561-1.51,0.842-2.629,0.842
		h-9.738c-2.211,0-3.316-1.105-3.316-3.318l-0.043-34.645h-3.146c-2.213,0-3.317-1.164-3.317-3.491V29.48
		c0-2.183,1.104-3.275,3.317-3.275h3.146L222.371,15.991z"/>
</g>
</svg>
