<?xml version="1.0" encoding="utf-8"?>
<!-- Generator: Adobe Illustrator 16.0.0, SVG Export Plug-In . SVG Version: 6.00 Build 0)  -->
<!DOCTYPE svg PUBLIC "-//W3C//DTD SVG 1.1//EN" "http://www.w3.org/Graphics/SVG/1.1/DTD/svg11.dtd">
<svg version="1.1" id="Layer_1" xmlns="http://www.w3.org/2000/svg" xmlns:xlink="http://www.w3.org/1999/xlink" x="0px" y="0px"
	 width="400px" height="300px" viewBox="-89.5 -110 400 300" enable-background="new -89.5 -110 400 300" xml:space="preserve">
<g>
	<path fill="#FFFFFF" d="M25.256,73.99c-0.304-0.516-0.591-1.047-0.864-1.594c-0.273-0.545-0.516-1.092-0.728-1.639
		c-3.913-10.313-7.811-20.533-11.694-30.667C8.087,29.962,4.19,19.739,0.277,9.426c0-0.151-0.023-0.288-0.068-0.41
		C0.163,8.896,0.14,8.774,0.14,8.652c0-0.849,0.561-1.274,1.684-1.274h14.651c1.152,0,1.94,0.577,2.366,1.729l13.923,41.45
		L45.64,9.107c0.425-1.152,1.259-1.729,2.503-1.729H62.93c0.698,0,1.19,0.129,1.479,0.387c0.288,0.258,0.432,0.599,0.432,1.023
		c0,0.243-0.016,0.41-0.045,0.5v0.137L56.697,32.63l6.097,17.882L77.536,9.107c0.425-1.152,1.259-1.729,2.503-1.729h14.333
		c0.697,0,1.19,0.129,1.479,0.387c0.288,0.258,0.432,0.599,0.432,1.023c0,0.243-0.016,0.41-0.045,0.5v0.137
		c-2.063,5.339-4.171,10.663-6.324,15.971c-2.154,5.309-4.315,10.617-6.484,15.924c-2.169,5.31-4.323,10.625-6.461,15.947
		c-2.139,5.323-4.225,10.642-6.256,15.947c-0.122,0.334-0.395,0.705-0.819,1.114c-0.425,0.41-0.941,0.614-1.547,0.614h-0.136H57.197
		c-0.667,0-1.176-0.129-1.524-0.387c-0.349-0.259-0.6-0.601-0.751-1.023l-7.189-18.93c-1.032,2.763-2.047,5.47-3.048,8.123
		s-2.002,5.36-3.003,8.121c-0.152,0.426-0.326,0.873-0.523,1.342c-0.198,0.472-0.432,0.91-0.705,1.319s-0.584,0.75-0.933,1.023
		c-0.349,0.272-0.75,0.409-1.206,0.409h-0.137H27.167C26.196,74.945,25.559,74.628,25.256,73.99z"/>
	<path fill="#FFFFFF" d="M144.875,68.03c-2.67,2.456-5.673,4.375-9.009,5.756c-3.339,1.379-6.871,2.069-10.603,2.069
		c-4.156,0-8.084-0.761-11.785-2.274c-3.702-1.517-6.945-3.617-9.735-6.304c-2.792-2.685-5.005-5.846-6.643-9.485
		c-1.638-3.64-2.457-7.599-2.457-11.875c0-2.669,0.326-5.255,0.978-7.758c0.652-2.502,1.577-4.846,2.775-7.03
		s2.654-4.193,4.368-6.029c1.713-1.835,3.632-3.405,5.756-4.709c2.123-1.304,4.427-2.32,6.916-3.048
		c2.486-0.728,5.11-1.092,7.871-1.092c2.52,0,4.961,0.334,7.326,1.001s4.588,1.608,6.665,2.821c2.078,1.213,3.981,2.669,5.711,4.368
		c1.729,1.699,3.216,3.557,4.459,5.574c1.243,2.018,2.206,4.171,2.89,6.461c0.684,2.292,1.023,4.649,1.023,7.075
		c0,1.578-0.023,2.867-0.068,3.868c-0.045,1-0.279,1.797-0.705,2.39c-0.426,0.59-1.131,1-2.114,1.229
		c-0.986,0.228-2.437,0.341-4.347,0.341h-32.76c0.303,1.939,0.916,3.563,1.842,4.868c0.926,1.305,1.994,2.344,3.209,3.117
		c1.213,0.771,2.502,1.325,3.867,1.659c1.364,0.334,2.653,0.5,3.867,0.5c1.092,0,2.215-0.112,3.366-0.34
		c1.151-0.229,2.269-0.531,3.345-0.91s2.063-0.818,2.957-1.319c0.895-0.5,1.615-1.022,2.161-1.569
		c0.485-0.394,0.901-0.688,1.252-0.888c0.349-0.196,0.72-0.295,1.114-0.295c0.394,0,0.797,0.137,1.205,0.407
		c0.41,0.272,0.871,0.668,1.389,1.185l4.823,5.461c0.333,0.396,0.546,0.75,0.637,1.068c0.091,0.317,0.138,0.645,0.138,0.979
		c0,0.607-0.168,1.132-0.502,1.57S145.331,67.695,144.875,68.03z M122.99,30.128c-1.184,0-2.328,0.235-3.436,0.705
		c-1.107,0.471-2.146,1.1-3.117,1.888c-0.973,0.789-1.842,1.684-2.615,2.685s-1.403,2.018-1.889,3.048h23.25
		c-0.638-1.183-1.326-2.275-2.07-3.276c-0.743-1.001-1.592-1.88-2.547-2.639c-0.957-0.758-2.049-1.35-3.276-1.775
		C126.061,30.341,124.627,30.128,122.99,30.128z"/>
	<path fill="#FFFFFF" d="M177.043,71.441c-0.271,0.576-0.5,1.086-0.684,1.522c-0.183,0.441-0.387,0.806-0.613,1.095
		c-0.227,0.287-0.508,0.508-0.842,0.657c-0.334,0.152-0.789,0.229-1.364,0.229h-9.011c-2.426,0-3.639-1.168-3.639-3.504V3.465
		c0-0.516,0.098-0.985,0.295-1.411c0.196-0.424,0.455-0.788,0.772-1.092c0.317-0.303,0.685-0.538,1.092-0.706
		c0.409-0.166,0.813-0.25,1.206-0.25h10.328c1.15,0,2.063,0.334,2.729,1.001c0.668,0.667,1.002,1.486,1.002,2.457v20.748
		c0.85-0.91,1.76-1.835,2.729-2.775c0.972-0.94,2.024-1.797,3.162-2.571c1.14-0.773,2.392-1.403,3.754-1.888
		c1.365-0.485,2.882-0.728,4.551-0.728c4.125,0,7.925,0.766,11.397,2.297c3.473,1.532,6.461,3.64,8.963,6.325
		c2.503,2.685,4.459,5.84,5.87,9.464c1.409,3.625,2.114,7.546,2.114,11.762c0,4.188-0.705,8.102-2.114,11.739
		c-1.411,3.64-3.367,6.802-5.87,9.487c-2.502,2.684-5.49,4.8-8.963,6.347c-3.475,1.547-7.272,2.32-11.397,2.32
		c-1.548,0-3.004-0.267-4.366-0.796c-1.365-0.531-2.642-1.206-3.822-2.025c-1.184-0.818-2.275-1.697-3.276-2.639
		c-1.001-0.939-1.911-1.82-2.729-2.639L177.043,71.441z M204.48,46.1c0-1.94-0.313-3.793-0.935-5.552
		c-0.622-1.759-1.51-3.306-2.662-4.641c-1.151-1.334-2.53-2.389-4.14-3.162s-3.413-1.16-5.415-1.16s-3.875,0.387-5.619,1.16
		c-1.745,0.773-3.253,1.828-4.526,3.162c-1.273,1.335-2.283,2.882-3.024,4.641c-0.744,1.759-1.115,3.61-1.115,5.552v0.637
		c0.091,1.912,0.522,3.701,1.297,5.369c0.772,1.668,1.798,3.117,3.071,4.347s2.76,2.19,4.459,2.889
		c1.697,0.699,3.52,1.048,5.46,1.048c2.002,0,3.808-0.371,5.415-1.115c1.607-0.741,2.986-1.75,4.141-3.024
		c1.151-1.272,2.039-2.782,2.661-4.526C204.168,49.975,204.48,48.102,204.48,46.1z"/>
</g>
</svg>
