<?xml version="1.0" encoding="utf-8"?>
<!-- Generator: Adobe Illustrator 16.0.0, SVG Export Plug-In . SVG Version: 6.00 Build 0)  -->
<!DOCTYPE svg PUBLIC "-//W3C//DTD SVG 1.1//EN" "http://www.w3.org/Graphics/SVG/1.1/DTD/svg11.dtd">
<svg version="1.1" id="Capa_1" xmlns="http://www.w3.org/2000/svg" xmlns:xlink="http://www.w3.org/1999/xlink" x="0px" y="0px"
	 width="50.044px" height="50.045px" viewBox="-5.022 -5.022 50.044 50.045" enable-background="new -5.022 -5.022 50.044 50.045"
	 xml:space="preserve">
<g>
	<path id="Facebook__x28_alt_x29_" fill="#280E0E" d="M45.022,3.318c0-4.38-3.957-8.34-8.339-8.34H3.317
		c-4.384,0-8.339,3.959-8.339,8.34v33.365c0,4.382,3.956,8.34,8.342,8.34h16.679V26.119h-6.116v-8.344h6.116v-3.249
		c0-5.605,4.209-10.652,9.384-10.652h6.741v8.343h-6.741c-0.737,0-1.6,0.895-1.6,2.237v3.321h8.342v8.344h-8.342v18.903h8.899
		c4.383,0,8.339-3.959,8.339-8.34V3.318L45.022,3.318z"/>
</g>
</svg>
