<?xml version="1.0" encoding="utf-8"?>
<!-- Generator: Adobe Illustrator 16.0.0, SVG Export Plug-In . SVG Version: 6.00 Build 0)  -->
<!DOCTYPE svg PUBLIC "-//W3C//DTD SVG 1.1//EN" "http://www.w3.org/Graphics/SVG/1.1/DTD/svg11.dtd">
<svg version="1.1" id="Capa_1" xmlns="http://www.w3.org/2000/svg" xmlns:xlink="http://www.w3.org/1999/xlink" x="0px" y="0px"
	 width="40px" height="40px" viewBox="236 236 40 40" enable-background="new 236 236 40 40" xml:space="preserve">
<g>
	<path id="Facebook__x28_alt_x29_" fill="#AA1111" d="M275.834,242.778c0-3.474-3.137-6.612-6.611-6.612h-26.445
		c-3.475,0-6.611,3.138-6.611,6.612v26.445c0,3.474,3.136,6.611,6.612,6.611H256v-14.985h-4.848v-6.612H256v-2.576
		c0-4.442,3.336-8.443,7.438-8.443h5.344v6.612h-5.344c-0.585,0-1.267,0.71-1.267,1.773v2.634h6.61v6.612h-6.61v14.985h7.052
		c3.475,0,6.611-3.138,6.611-6.611V242.778z"/>
</g>
</svg>
