<?xml version="1.0" encoding="utf-8"?>
<!-- Generator: Adobe Illustrator 16.0.0, SVG Export Plug-In . SVG Version: 6.00 Build 0)  -->
<!DOCTYPE svg PUBLIC "-//W3C//DTD SVG 1.1//EN" "http://www.w3.org/Graphics/SVG/1.1/DTD/svg11.dtd">
<svg version="1.1" id="Capa_1" xmlns="http://www.w3.org/2000/svg" xmlns:xlink="http://www.w3.org/1999/xlink" x="0px" y="0px"
	 width="40px" height="40px" viewBox="236 236 40 40" enable-background="new 236 236 40 40" xml:space="preserve">
<g>
	<g id="post-linkedin">
		<path fill="#AA1111" d="M271.854,236.182h-31.708c-2.181,0-3.963,1.783-3.963,3.963v31.708c0,2.181,1.783,3.965,3.963,3.965
			h31.708c2.181,0,3.965-1.784,3.965-3.965v-31.708C275.818,237.965,274.034,236.182,271.854,236.182z M248.073,269.873h-5.945
			v-17.836h5.945V269.873z M245.1,248.667c-1.981,0-3.567-1.585-3.567-3.567c0-1.981,1.585-3.567,3.567-3.567
			c1.982,0,3.567,1.585,3.567,3.567C248.667,247.082,247.082,248.667,245.1,248.667z M269.873,269.873h-5.946V259.37
			c0-1.586-1.388-2.973-2.973-2.973c-1.584,0-2.972,1.387-2.972,2.973v10.503h-5.946v-17.836h5.946v2.377
			c0.99-1.585,3.17-2.774,4.955-2.774c3.765,0,6.936,3.171,6.936,6.937V269.873z"/>
	</g>
</g>
</svg>
