<?xml version="1.0" encoding="utf-8"?>
<!-- Generator: Adobe Illustrator 16.0.0, SVG Export Plug-In . SVG Version: 6.00 Build 0)  -->
<!DOCTYPE svg PUBLIC "-//W3C//DTD SVG 1.1//EN" "http://www.w3.org/Graphics/SVG/1.1/DTD/svg11.dtd">
<svg version="1.1" id="Layer_1" xmlns="http://www.w3.org/2000/svg" xmlns:xlink="http://www.w3.org/1999/xlink" x="0px" y="0px"
	 width="66px" height="40px" viewBox="29.541 18.538 66 40" enable-background="new 29.541 18.538 66 40" xml:space="preserve">
<path fill="#A91F23" d="M29.996,58.5V38.006L43.148,58.5H29.996z M29.996,32.018V18.575h18.231l12.146,19.094l-13.41,20.75
	L29.996,32.018z"/>
<polygon opacity="0.65" fill="#A91F23" enable-background="new    " points="60.63,35.227 71.251,18.662 83.369,18.662 
	83.369,58.421 60.63,58.421 "/>
<path fill="#A91F23" d="M71.257,58.421V18.662h11.366c2.311,0,4.138,0.21,5.48,0.63c1.341,0.42,2.574,1.16,3.693,2.219
	c1.021,0.958,1.794,2.058,2.32,3.302c0.543,1.311,0.815,2.647,0.815,4.009c0,3.042-1.096,5.488-3.287,7.337
	c-0.628,0.554-1.241,0.982-1.835,1.286c-0.526,0.285-1.494,0.655-2.905,1.11v0.101c1.206,0.403,2.158,0.782,2.854,1.134
	c0.628,0.319,1.258,0.765,1.886,1.335c2.294,2.018,3.44,4.564,3.44,7.642c0,1.327-0.264,2.562-0.791,3.704
	c-0.527,1.177-1.256,2.21-2.191,3.101c-0.968,0.942-2.03,1.639-3.186,2.093c-1.189,0.505-2.472,0.757-3.85,0.757H71.257
	L71.257,58.421z"/>
</svg>
