<?xml version="1.0" encoding="utf-8"?>
<!-- Generator: Adobe Illustrator 16.0.0, SVG Export Plug-In . SVG Version: 6.00 Build 0)  -->
<!DOCTYPE svg PUBLIC "-//W3C//DTD SVG 1.1//EN" "http://www.w3.org/Graphics/SVG/1.1/DTD/svg11.dtd">
<svg version="1.1" id="Capa_1" xmlns="http://www.w3.org/2000/svg" xmlns:xlink="http://www.w3.org/1999/xlink" x="0px" y="0px"
	 width="49.936px" height="49.936px" viewBox="231.031 231.031 49.936 49.936"
	 enable-background="new 231.031 231.031 49.936 49.936" xml:space="preserve">
<g>
	<g>
		<g>
			<g>
				<path fill="#280E0E" d="M271.604,231.031h-31.211c-5.171,0-9.362,4.191-9.362,9.362v31.211c0,5.171,4.191,9.362,9.362,9.362
					h31.211c5.171,0,9.362-4.192,9.362-9.362v-31.211C280.968,235.223,276.775,231.031,271.604,231.031z M262.769,270.761
					c-1.594,0-3.073-0.456-4.337-1.235c-0.813,0.148-1.645,0.231-2.504,0.231c-7.601,0-13.758-6.128-13.758-13.686
					c0-0.733,0.059-1.455,0.171-2.157c-0.839-1.285-1.322-2.821-1.322-4.469c0-4.535,3.674-8.208,8.209-8.21
					c1.654,0,3.188,0.488,4.482,1.331c0.717-0.119,1.459-0.182,2.216-0.182c7.597,0,13.758,6.13,13.758,13.686
					c0,0.632-0.048,1.25-0.13,1.857c0.903,1.32,1.427,2.912,1.427,4.622C270.979,267.086,267.306,270.761,262.769,270.761z"/>
				<path fill="#280E0E" d="M254.202,253.437c-3.977-0.967-1.801-4.368,1.42-4.318c3.127,0.051,4.718,3.352,6.134,3.179
					c1.418-0.171,2.626-2.296,0.396-4.201c-1.924-1.646-4.37-2.555-8.12-2.214c-2.941,0.265-5.733,2.157-6.077,5.848
					c-0.341,3.692,4.035,5.568,7.499,6.082c2.428,0.355,5.736,1.533,3.744,3.806c-1.821,2.087-5.279,0.795-6.188,0.228
					c-0.905-0.575-1.931-2.615-3.636-2.508c-1.707,0.116-2.546,2.357-0.453,4.323c1.877,1.759,3.921,2.729,8.293,2.496
					c4.377-0.229,8.296-4.089,6.761-7.726C262.438,254.798,258.178,254.401,254.202,253.437z"/>
			</g>
		</g>
	</g>
</g>
</svg>
