<?xml version="1.0" encoding="utf-8"?>
<!-- Generator: Adobe Illustrator 16.0.0, SVG Export Plug-In . SVG Version: 6.00 Build 0)  -->
<!DOCTYPE svg PUBLIC "-//W3C//DTD SVG 1.1//EN" "http://www.w3.org/Graphics/SVG/1.1/DTD/svg11.dtd">
<svg version="1.1" id="Layer_1" xmlns="http://www.w3.org/2000/svg" xmlns:xlink="http://www.w3.org/1999/xlink" x="0px" y="0px"
	 width="150px" height="100px" viewBox="0 0 150 100" enable-background="new 0 0 150 100" xml:space="preserve">
<g>
	<path id="Facebook__x28_alt_x29_" fill="#291011" d="M50.054,8.295c0-4.38-3.957-8.34-8.339-8.34H8.349
		c-4.384,0-8.339,3.959-8.339,8.34V41.66c0,4.382,3.956,8.34,8.342,8.34H25.03V31.096h-6.116v-8.344h6.116v-3.249
		c0-5.605,4.209-10.652,9.384-10.652h6.741v8.343h-6.741c-0.737,0-1.6,0.895-1.6,2.237v3.321h8.342v8.344h-8.342V50h8.899
		c4.383,0,8.339-3.959,8.339-8.34V8.295L50.054,8.295z"/>
</g>
<g>
	<path fill="#291011" d="M97.303,2.728c-1.832-1.833-4.041-2.75-6.623-2.75H59.429c-2.583,0-4.791,0.917-6.625,2.75
		c-1.833,1.834-2.75,4.042-2.75,6.625v31.251c0,2.581,0.917,4.791,2.75,6.624c1.834,1.834,4.042,2.751,6.625,2.751h31.25
		c2.582,0,4.791-0.917,6.624-2.751c1.834-1.833,2.751-4.043,2.751-6.624V9.352C100.054,6.77,99.136,4.561,97.303,2.728z
		 M65.289,41.839h-7.52V19.248h7.52V41.839L65.289,41.839z M64.605,15.065c-0.781,0.749-1.812,1.123-3.092,1.123H61.48
		c-1.237,0-2.241-0.375-3.011-1.123c-0.771-0.749-1.156-1.677-1.156-2.783c0-1.128,0.396-2.062,1.188-2.8
		c0.793-0.738,1.818-1.107,3.076-1.107c1.259,0,2.268,0.369,3.028,1.107c0.759,0.738,1.15,1.671,1.171,2.8
		C65.776,13.388,65.386,14.316,64.605,15.065z M92.339,41.839h-7.52V29.763c0-3.407-1.259-5.111-3.775-5.111
		c-0.955,0-1.759,0.266-2.409,0.798c-0.651,0.531-1.14,1.178-1.465,1.938c-0.152,0.39-0.228,0.998-0.228,1.822v12.63h-7.52
		c0.065-13.629,0.065-21.159,0-22.592h7.52v3.189c1.581-2.472,3.826-3.71,6.738-3.71c2.604,0,4.698,0.857,6.283,2.572
		c1.584,1.714,2.376,4.242,2.376,7.584L92.339,41.839L92.339,41.839L92.339,41.839z"/>
</g>
<g>
	<g>
		<g>
			<g>
				<path fill="#291011" d="M140.627,0.01h-31.211c-5.171,0-9.362,4.191-9.362,9.362v31.211c0,5.171,4.191,9.362,9.362,9.362h31.211
					c5.171,0,9.362-4.192,9.362-9.362V9.372C149.991,4.201,145.798,0.01,140.627,0.01z M131.792,39.739
					c-1.594,0-3.073-0.456-4.337-1.235c-0.813,0.148-1.645,0.231-2.504,0.231c-7.601,0-13.758-6.128-13.758-13.686
					c0-0.733,0.059-1.455,0.171-2.157c-0.839-1.285-1.322-2.821-1.322-4.469c0-4.535,3.674-8.208,8.209-8.21
					c1.654,0,3.188,0.488,4.482,1.331c0.717-0.119,1.459-0.182,2.216-0.182c7.597,0,13.758,6.13,13.758,13.686
					c0,0.632-0.048,1.25-0.13,1.857c0.903,1.32,1.427,2.912,1.427,4.622C140.002,36.064,136.329,39.739,131.792,39.739z"/>
				<path fill="#291011" d="M123.225,22.415c-3.977-0.967-1.801-4.368,1.42-4.318c3.127,0.051,4.718,3.352,6.134,3.179
					c1.418-0.171,2.626-2.296,0.396-4.201c-1.924-1.646-4.37-2.555-8.12-2.214c-2.941,0.265-5.733,2.157-6.077,5.848
					c-0.341,3.692,4.035,5.568,7.499,6.082c2.428,0.355,5.736,1.533,3.744,3.806c-1.821,2.087-5.279,0.795-6.188,0.228
					c-0.905-0.575-1.931-2.615-3.636-2.508c-1.707,0.116-2.546,2.357-0.453,4.323c1.877,1.759,3.921,2.729,8.293,2.496
					c4.377-0.229,8.296-4.089,6.761-7.726C131.461,23.776,127.201,23.38,123.225,22.415z"/>
			</g>
		</g>
	</g>
</g>
<g>
	<path id="Facebook__x28_alt_x29__1_" fill="#EBEBEB" d="M50.054,58.34c0-4.38-3.957-8.34-8.339-8.34H8.349
		c-4.384,0-8.339,3.959-8.339,8.34v33.365c0,4.382,3.956,8.34,8.342,8.34H25.03V81.141h-6.116v-8.344h6.116v-3.249
		c0-5.605,4.209-10.652,9.384-10.652h6.741v8.343h-6.741c-0.737,0-1.6,0.895-1.6,2.237v3.321h8.342v8.344h-8.342v18.903h8.899
		c4.383,0,8.339-3.959,8.339-8.34V58.34L50.054,58.34z"/>
</g>
<g>
	<path fill="#EBEBEB" d="M97.303,52.772c-1.832-1.833-4.041-2.75-6.623-2.75H59.429c-2.583,0-4.791,0.917-6.625,2.75
		c-1.833,1.834-2.75,4.042-2.75,6.625v31.251c0,2.581,0.917,4.791,2.75,6.624c1.834,1.834,4.042,2.751,6.625,2.751h31.25
		c2.582,0,4.791-0.917,6.624-2.751c1.834-1.833,2.751-4.043,2.751-6.624V59.397C100.054,56.814,99.136,54.606,97.303,52.772z
		 M65.289,91.884h-7.52V69.293h7.52V91.884L65.289,91.884z M64.605,65.11c-0.781,0.749-1.812,1.123-3.092,1.123H61.48
		c-1.237,0-2.241-0.375-3.011-1.123c-0.771-0.749-1.156-1.677-1.156-2.783c0-1.128,0.396-2.062,1.188-2.8
		c0.793-0.738,1.818-1.107,3.076-1.107c1.259,0,2.268,0.369,3.028,1.107c0.759,0.738,1.15,1.671,1.171,2.8
		C65.776,63.433,65.386,64.361,64.605,65.11z M92.339,91.884h-7.52V79.808c0-3.407-1.259-5.111-3.775-5.111
		c-0.955,0-1.759,0.266-2.409,0.798c-0.651,0.531-1.14,1.178-1.465,1.938c-0.152,0.39-0.228,0.998-0.228,1.822v12.63h-7.52
		c0.065-13.629,0.065-21.159,0-22.592h7.52v3.189c1.581-2.472,3.826-3.71,6.738-3.71c2.604,0,4.698,0.857,6.283,2.572
		c1.584,1.714,2.376,4.242,2.376,7.584L92.339,91.884L92.339,91.884L92.339,91.884z"/>
</g>
<g>
	<g>
		<g>
			<g>
				<path fill="#EBEBEB" d="M140.627,50.055h-31.211c-5.171,0-9.362,4.191-9.362,9.362v31.211c0,5.171,4.191,9.362,9.362,9.362
					h31.211c5.171,0,9.362-4.192,9.362-9.362V59.417C149.991,54.246,145.798,50.055,140.627,50.055z M131.792,89.784
					c-1.594,0-3.073-0.456-4.337-1.235c-0.813,0.148-1.645,0.231-2.504,0.231c-7.601,0-13.758-6.128-13.758-13.686
					c0-0.733,0.059-1.455,0.171-2.157c-0.839-1.285-1.322-2.821-1.322-4.469c0-4.535,3.674-8.208,8.209-8.21
					c1.654,0,3.188,0.488,4.482,1.331c0.717-0.119,1.459-0.182,2.216-0.182c7.597,0,13.758,6.13,13.758,13.686
					c0,0.632-0.048,1.25-0.13,1.857c0.903,1.32,1.427,2.912,1.427,4.622C140.002,86.109,136.329,89.784,131.792,89.784z"/>
				<path fill="#EBEBEB" d="M123.225,72.46c-3.977-0.967-1.801-4.368,1.42-4.318c3.127,0.051,4.718,3.352,6.134,3.179
					c1.418-0.171,2.626-2.296,0.396-4.201c-1.924-1.646-4.37-2.555-8.12-2.214c-2.941,0.265-5.733,2.157-6.077,5.848
					c-0.341,3.692,4.035,5.568,7.499,6.082c2.428,0.355,5.736,1.533,3.744,3.806c-1.821,2.087-5.279,0.795-6.188,0.228
					c-0.905-0.575-1.931-2.615-3.636-2.508c-1.707,0.116-2.546,2.357-0.453,4.323c1.877,1.759,3.921,2.729,8.293,2.496
					c4.377-0.229,8.296-4.089,6.761-7.726C131.461,73.821,127.201,73.425,123.225,72.46z"/>
			</g>
		</g>
	</g>
</g>
</svg>
