<?xml version="1.0" encoding="utf-8"?>
<!-- Generator: Adobe Illustrator 16.0.0, SVG Export Plug-In . SVG Version: 6.00 Build 0)  -->
<!DOCTYPE svg PUBLIC "-//W3C//DTD SVG 1.1//EN" "http://www.w3.org/Graphics/SVG/1.1/DTD/svg11.dtd">
<svg version="1.1" id="Layer_1" xmlns="http://www.w3.org/2000/svg" xmlns:xlink="http://www.w3.org/1999/xlink" x="0px" y="0px"
	 width="391px" height="300px" viewBox="5.5 -110.945 391 300" enable-background="new 5.5 -110.945 391 300" xml:space="preserve">
<g id="circle">
	<path fill="#1476A6" d="M74.366,37.464c0,18.802-15.242,34.044-34.044,34.044c-18.802,0-34.044-15.242-34.044-34.044
		S21.52,3.42,40.322,3.42C59.124,3.42,74.366,18.662,74.366,37.464z"/>
	<path fill="#FFFFFF" d="M37.197,26.883c0,0,8.5-6-1.375-9.125c-6.625-0.625-14.75,5.875-11.75,14.75c1.5,5,3.125,6.75,3,11.5
		c0.25,8,7.5,9.25,10.25,5.875c4.625-5.75-2.375-11.127-2.375-11.127S27.697,32.008,37.197,26.883z"/>
	<path fill="#FFFFFF" d="M47.132,39.447c0,0-8.5-6,1.375-9.125c6.625-0.625,14.75,5.875,11.75,14.75c-1.5,5-3.125,6.75-3,11.5
		c-0.25,8-7.5,9.25-10.25,5.875c-4.625-5.75,2.375-11.127,2.375-11.127S56.632,44.572,47.132,39.447z"/>
	<ellipse fill="#FFFFFF" cx="37.223" cy="12.008" rx="3.375" ry="4"/>
	<ellipse fill="#FFFFFF" cx="31.238" cy="13.716" rx="2.325" ry="2.756"/>
	<ellipse fill="#FFFFFF" cx="27.369" cy="16.45" rx="1.659" ry="1.966"/>
	<ellipse fill="#FFFFFF" cx="24.739" cy="18.841" rx="1.217" ry="1.442"/>
	<ellipse fill="#FFFFFF" cx="23.072" cy="21.591" rx="0.847" ry="1.003"/>
	<ellipse fill="#FFFFFF" cx="47.79" cy="24.8" rx="3.375" ry="4"/>
	<ellipse fill="#FFFFFF" cx="53.774" cy="26.508" rx="2.325" ry="2.756"/>
	<ellipse fill="#FFFFFF" cx="57.643" cy="29.242" rx="1.659" ry="1.966"/>
	<ellipse fill="#FFFFFF" cx="60.273" cy="31.633" rx="1.217" ry="1.442"/>
	<ellipse fill="#FFFFFF" cx="61.94" cy="34.383" rx="0.847" ry="1.003"/>
</g>
<g id="word">
	<g>
		<path fill="#1476A6" d="M93.345,23.056c1.595,0.56,2.716,1.989,3.362,4.288c0.646,2.299-0.419,5.303-3.196,9.011
			c7.092,1.036,10.874,2.978,11.349,5.827c0.474,2.849-0.463,5.039-2.812,6.571c-1.652,0.912-5.588,2.228-11.808,3.946
			c-0.359,0.249-0.964,1.057-1.813,2.424l-0.104,0.107l-0.275-0.045c-0.513-0.094-0.773-0.896-0.78-2.408
			c-0.26-17.111-0.555-25.697-0.884-25.759c-0.443,1.098-0.925,1.595-1.445,1.491l-0.092-0.015c-0.78-0.227-1.121-0.833-1.021-1.817
			l0.023-0.249l1.48-1.849c1.354-1.481,2.63-2.245,3.827-2.291C90.354,22.24,91.75,22.497,93.345,23.056z M88.612,26.055
			c-0.046,6.68,0.172,10.062,0.654,10.145l3.224-1.663c1.5-2.071,2.255-4.088,2.267-6.051c0.011-1.962-1.195-3.167-3.62-3.612
			C89.537,24.78,88.696,25.174,88.612,26.055z M89.46,39.881l-0.057,0.482c-0.062,2.042,0.019,4.739,0.241,8.094l0.149,1.492
			l1.423-0.575l0.092,0.015c7.818-1.479,11.818-3.457,12.002-5.934l0.012-0.124c0.107-1.792-2.987-3.082-9.283-3.869l-1.09-0.203
			C91.281,38.949,90.119,39.156,89.46,39.881z"/>
		<path fill="#1476A6" d="M124.584,23.273l0.184,0.015c0.811,0.062,1.239,0.761,1.285,2.098c-0.046,1.078-2.865,1.683-8.457,1.817
			c-3.726-0.3-5.604-0.119-5.634,0.544l-0.126,0.994l0.481,5.795c2.815-0.528,4.977-0.808,6.483-0.838
			c0.826,0.155,1.174,0.634,1.044,1.437c-0.13,0.803-2.616,1.608-7.458,2.417l-0.034,6.091l0.022,5.98
			c1.599,0.125,6.085-1.051,13.46-3.527c0.551-0.537,1.014-0.753,1.389-0.645c0.374,0.109,0.545,0.588,0.51,1.438
			c-0.034,0.85-0.744,1.657-2.128,2.424c-7.994,2.424-12.909,3.563-14.745,3.418l-0.275-0.016c-0.551-0.042-0.784-0.974-0.7-2.796
			l0.356-6.199c0-3.552-0.153-5.345-0.459-5.375l-2.514,0.559c-0.489-0.041-0.895-0.575-1.216-1.6
			c0.054-1.181,1.399-1.818,4.039-1.912l-0.815-9.104v-0.124c0.054-1.315,0.999-1.901,2.835-1.756
			C116.946,24.345,121.104,23.967,124.584,23.273z"/>
		<path fill="#1476A6" d="M129.381,22.745c0.176,0,1.555,1.067,4.137,3.2c2.582,2.134,4.848,3.754,6.799,4.862
			c4.674-4.681,7.514-7.413,8.52-8.195c1.006-0.781,1.547-0.468,1.624,0.94c0.076,1.409-0.377,2.142-1.36,2.198
			c-0.982,0.058-2.341,1.062-4.073,3.014c-1.732,1.953-2.943,3.618-3.632,4.995l0.459,9.183v5.469c0,3.563-0.275,5.344-0.826,5.344
			c-1.163-0.083-1.561-2.65-1.193-7.706v-2.61l-0.447-9.398c-0.681-1.273-2.23-2.688-4.647-4.241
			c-2.417-1.553-4.448-2.786-6.093-3.698c-0.245-0.383-0.367-0.963-0.367-1.74C128.28,23.284,128.647,22.745,129.381,22.745z"/>
		<path fill="#1476A6" d="M157.264,26.474h0.275c2.111,0,3.771,1.279,4.98,3.837c1.208,2.559,1.822,5.998,1.842,10.316
			c0.019,4.32-0.788,7.344-2.422,9.073c-1.633,1.729-3.173,2.709-4.618,2.937c-1.996,0-3.658-1.525-4.985-4.576
			c-1.328-3.049-2.011-6.641-2.049-10.773c0-2.537,0.367-5.023,1.102-7.457c0.26-0.58,0.719-0.87,1.377-0.87
			C154.258,27.303,155.757,26.474,157.264,26.474z M152.307,36.417c0.719,8.101,2.207,12.553,4.464,13.36l0.367,0.125h0.459
			c1.048,0,2.186-0.812,3.414-2.433c1.228-1.62,1.736-4.163,1.525-7.628c-0.21-3.465-0.703-6.103-1.479-7.916
			c-0.777-1.812-1.979-2.718-3.609-2.718h-0.459c-1.445,0-2.762,1.202-3.947,3.604c0,0.186-0.184,0.477-0.551,0.87L152.307,36.417z"
			/>
		<path fill="#1476A6" d="M184.7,23.646l0.826,0.062l0.724,0.296l-0.643,25.23c-0.069,1.697-0.578,2.904-1.526,3.619
			c-0.215-0.031-1.056-0.93-2.524-2.695c-1.469-1.766-5.466-9.06-11.991-21.882c0.772,13.817,1.469,22.414,2.089,25.791
			l-0.012,0.373c-0.054,1.201-0.601,1.822-1.641,1.863c-0.766-0.052-1.163-0.828-1.193-2.33v-0.125
			c-0.873-18.747-1.76-28.685-2.662-29.813l0.022-0.497c0.114-1.211,0.658-1.75,1.63-1.616c1.69,1.678,4.637,6.554,8.841,14.627
			c4.203,8.073,6.432,12.121,6.684,12.142h0.092c0.214-0.756,0.337-1.45,0.367-2.082l0.034-0.996
			c0.184-9.166,0.241-15.964,0.173-20.398C184.019,24.501,184.256,23.978,184.7,23.646z"/>
		<path fill="#1476A6" d="M191.229,24.174c0.604,0.508,1.315,0.803,2.134,0.886c4.238,1.346,7.727,3.39,10.465,6.128
			c2.738,2.74,4.111,6.005,4.12,9.796c0.007,3.792-1.692,6.625-5.101,8.506c-3.41,1.88-6.827,2.861-10.254,2.943l-0.206,0.357v1.492
			c-0.291,0.88-0.685,1.294-1.182,1.242l-0.459-0.062c-0.291-0.218-0.418-0.647-0.379-1.29l0.092-1.476
			c0.015-0.249-0.351-0.382-1.096-0.396c-0.746-0.016-1.153-0.428-1.223-1.235c-0.068-0.808,0.654-1.387,2.169-1.739l-0.126-1.272
			c-0.49-6.07-0.776-12.802-0.861-20.198c-1.277,0.197-1.923-0.29-1.938-1.461c0.076-1.211,0.639-1.854,1.687-1.926
			c0.146-0.176,0.214-0.678,0.207-1.507C190.058,21.679,190.708,22.083,191.229,24.174z M191.287,27.452
			c-0.169,2.766,0.172,10.125,1.021,22.077c2.547,0.373,5.559-0.367,9.036-2.221c3.477-1.854,5.061-4.219,4.75-7.093
			c-0.31-2.875-1.656-5.391-4.039-7.55c-2.383-2.16-5.154-3.722-8.313-4.684L191.287,27.452z"/>
		<path fill="#1476A6" d="M238.413,21.875c0.856,0,1.285,0.373,1.285,1.119v0.373c0,0.643-1.591,1.098-4.773,1.367
			c-3.663-0.093-5.495,0.233-5.495,0.979v0.249c0.611,5.625,1.162,10.945,1.651,15.964c0.489,5.018,0.733,8.48,0.733,10.385
			c-0.084,0.83-0.358,1.244-0.826,1.244c-1.102-0.332-1.651-0.746-1.651-1.244l0.093-4.35c-0.674-10.667-1.193-18.042-1.562-22.123
			l-0.093-0.125h-0.184c-1.865,0-4.418,0.705-7.652,2.113c-1.53,0.229-2.242-0.232-2.135-1.382c0.106-1.149,0.543-1.725,1.309-1.725
			c0.688,0,2.229-0.331,4.623-0.994l6.701-1.243L238.413,21.875z"/>
		<path fill="#1476A6" d="M251.275,22c0.682,0.062,0.941,2.703,0.781,7.923c0.008,2.817,0.129,4.236,0.366,4.257l0.093,0.016
			l3.592,0.093c0.611,0.062,1.021,0.394,1.228,0.994l-0.022,0.497c-0.054,0.994-1.117,1.388-3.189,1.181
			c-1.301,0.156-1.954,0.343-1.962,0.56c0.375,5.262,0.513,10.073,0.413,14.433c-0.229,1.967-0.648,2.692-1.258,2.175
			c-0.606-0.52-0.851-3.32-0.729-8.406c-0.138-2.826-0.313-5.71-0.527-8.653c-1.515,0.021-4.354,0.326-8.515,0.917
			c-0.146,5.333-0.067,9.808,0.229,13.423c0.199,0.891,0.213,1.693,0.045,2.408s-0.366,1.057-0.596,1.024
			c-0.986-0.093-1.504-1.347-1.55-3.76c-0.054-5.022-0.092-9.026-0.114-12.009l-0.367-0.078l-0.481,0.326l-0.551-0.046
			c-0.497-0.052-0.808-0.538-0.931-1.46l0.013-0.249c0.046-0.911,0.784-1.507,2.215-1.787l0.138-0.854l-0.08-9.632
			c0.053-0.911,0.475-1.326,1.262-1.243l0.185,0.016c0.521,0.052,0.711,3.071,0.574,9.057c0.022,1.409,0.106,2.124,0.252,2.144
			l8.422-0.932l-0.31-8.98l0.068-1.243C250.044,22.621,250.48,21.917,251.275,22z"/>
		<path fill="#1476A6" d="M273.813,23.273l0.184,0.015c0.811,0.062,1.238,0.761,1.285,2.098c-0.047,1.078-2.865,1.683-8.457,1.817
			c-3.727-0.3-5.604-0.119-5.635,0.544l-0.125,0.994l0.48,5.795c2.814-0.528,4.977-0.808,6.482-0.838
			c0.826,0.155,1.175,0.634,1.045,1.437c-0.131,0.803-2.616,1.608-7.459,2.417l-0.033,6.091l0.021,5.98
			c1.6,0.125,6.086-1.051,13.461-3.527c0.551-0.537,1.014-0.753,1.389-0.645c0.374,0.109,0.545,0.588,0.51,1.438
			c-0.034,0.85-0.744,1.657-2.128,2.424c-7.994,2.424-12.909,3.563-14.745,3.418l-0.275-0.016c-0.551-0.042-0.783-0.974-0.699-2.796
			l0.355-6.199c0-3.552-0.152-5.345-0.459-5.375l-2.514,0.559c-0.489-0.041-0.895-0.575-1.217-1.6
			c0.055-1.181,1.399-1.818,4.039-1.912l-0.814-9.104v-0.124c0.055-1.315,0.999-1.901,2.835-1.756
			C266.173,24.345,270.332,23.967,273.813,23.273z"/>
		<path fill="#1476A6" d="M297.055,23.056c1.594,0.56,2.715,1.989,3.36,4.288c0.646,2.299-0.418,5.303-3.195,9.011
			c7.093,1.036,10.874,2.978,11.35,5.827c0.474,2.849-0.464,5.039-2.813,6.571c-1.651,0.912-5.588,2.228-11.808,3.946
			c-0.359,0.249-0.965,1.057-1.813,2.424l-0.104,0.107l-0.274-0.045c-0.513-0.094-0.772-0.896-0.78-2.408
			c-0.26-17.111-0.555-25.697-0.884-25.759c-0.442,1.098-0.926,1.595-1.444,1.491l-0.092-0.015
			c-0.781-0.227-1.121-0.833-1.021-1.817l0.021-0.249l1.48-1.849c1.354-1.481,2.63-2.245,3.826-2.291
			C294.063,22.24,295.458,22.497,297.055,23.056z M292.32,26.055c-0.045,6.68,0.173,10.062,0.654,10.145l3.225-1.663
			c1.499-2.071,2.255-4.088,2.267-6.051c0.013-1.962-1.194-3.167-3.62-3.612C293.246,24.78,292.404,25.174,292.32,26.055z
			 M293.169,39.881l-0.058,0.482c-0.062,2.042,0.02,4.739,0.24,8.094l0.149,1.492l1.423-0.575l0.092,0.015
			c7.818-1.479,11.818-3.457,12.002-5.934l0.013-0.124c0.106-1.792-2.987-3.082-9.283-3.869l-1.09-0.203
			C294.99,38.949,293.828,39.156,293.169,39.881z"/>
		<path fill="#1476A6" d="M328.293,23.273l0.184,0.015c0.812,0.062,1.239,0.761,1.285,2.098c-0.046,1.078-2.864,1.683-8.457,1.817
			c-3.726-0.3-5.604-0.119-5.634,0.544l-0.126,0.994l0.481,5.795c2.814-0.528,4.977-0.808,6.482-0.838
			c0.826,0.155,1.174,0.634,1.044,1.437c-0.13,0.803-2.616,1.608-7.458,2.417l-0.034,6.091l0.022,5.98
			c1.599,0.125,6.085-1.051,13.46-3.527c0.551-0.537,1.014-0.753,1.389-0.645c0.374,0.109,0.545,0.588,0.511,1.438
			s-0.744,1.657-2.128,2.424c-7.994,2.424-12.909,3.563-14.745,3.418l-0.275-0.016c-0.551-0.042-0.784-0.974-0.7-2.796l0.356-6.199
			c0-3.552-0.153-5.345-0.459-5.375l-2.515,0.559c-0.488-0.041-0.895-0.575-1.216-1.6c0.054-1.181,1.399-1.818,4.039-1.912
			l-0.814-9.104v-0.124c0.054-1.315,0.999-1.901,2.835-1.756C320.655,24.345,324.813,23.967,328.293,23.273z"/>
		<path fill="#1476A6" d="M342.281,22.667c0.551,0,1.507,1.595,2.868,4.785c1.36,3.19,2.367,5.94,3.018,8.25l1.722-0.264
			l0.665-0.156c0.658-0.155,1.039,0.109,1.144,0.792c0.103,0.684-0.775,1.507-2.634,2.471c2.156,7.374,3.234,11.662,3.234,12.864
			v0.746c-0.076,0.745-0.352,1.118-0.826,1.118c-0.52,0-2.11-4.608-4.772-13.828l-9.433,2.098c-1.322,4.226-2.253,8.089-2.788,11.59
			c-0.871,0.767-1.546,0.771-2.02,0.017V52.9c0-1.336,0.811-5.043,2.433-11.124c-0.787-0.135-1.196-0.611-1.229-1.429
			c0-0.767,0.678-1.341,2.031-1.725l5.118-14.215C341.286,23.248,341.776,22.667,342.281,22.667z M338.126,37.986v0.373l7.884-1.585
			l-3.741-9.647L338.126,37.986z"/>
		<path fill="#1476A6" d="M364.99,24.796h0.733c0.888,0,1.659,0.187,2.317,0.559c0.658,0.373,0.987,1.016,0.987,1.927
			c-0.199,1.491-0.689,2.237-1.47,2.237c-0.269,0-0.85-0.538-1.743-1.616l-0.918-0.249c-1.744,0.373-3.647,2.012-5.71,4.917
			c-2.062,2.905-3.199,6.066-3.413,9.484c-0.215,3.418,0.299,5.633,1.537,6.644c1.239,1.009,3.319,1.413,6.242,1.211
			c2.922-0.202,5.218-1.167,6.886-2.897c0.765-1.076,1.314-1.615,1.651-1.615h0.185c0.572,0,0.909,0.58,1.01,1.739v0.621
			c-0.207,0.581-1.223,1.453-3.047,2.618s-5.039,1.911-9.646,2.236c-4.604,0.326-6.885-3.008-6.839-10.004
			c0.046-6.997,3.057-12.727,9.031-17.191C363.697,25.003,364.431,24.796,364.99,24.796z"/>
		<path fill="#1476A6" d="M387.834,22c0.681,0.062,0.941,2.703,0.78,7.923c0.008,2.817,0.13,4.236,0.367,4.257l0.092,0.016
			l3.592,0.093c0.612,0.062,1.021,0.394,1.228,0.994l-0.021,0.497c-0.054,0.994-1.117,1.388-3.19,1.181
			c-1.301,0.156-1.954,0.343-1.962,0.56c0.375,5.262,0.514,10.073,0.413,14.433c-0.229,1.967-0.647,2.692-1.257,2.175
			c-0.607-0.52-0.851-3.32-0.729-8.406c-0.139-2.826-0.313-5.71-0.527-8.653c-1.516,0.021-4.354,0.326-8.516,0.917
			c-0.146,5.333-0.067,9.808,0.229,13.423c0.199,0.891,0.214,1.693,0.046,2.408s-0.367,1.057-0.597,1.024
			c-0.986-0.093-1.503-1.347-1.549-3.76c-0.055-5.022-0.093-9.026-0.115-12.009l-0.367-0.078l-0.481,0.326l-0.551-0.046
			c-0.497-0.052-0.807-0.538-0.93-1.46l0.012-0.249c0.046-0.911,0.784-1.507,2.215-1.787l0.139-0.854l-0.08-9.632
			c0.053-0.911,0.474-1.326,1.262-1.243l0.184,0.016c0.521,0.052,0.712,3.071,0.574,9.057c0.022,1.409,0.106,2.124,0.252,2.144
			l8.422-0.932l-0.31-8.98l0.069-1.243C386.603,22.621,387.039,21.917,387.834,22z"/>
	</g>
	<g>
		<path fill="#333333" d="M277.232,73.875c-0.215,0.094-0.409,0.182-0.584,0.264c-0.174,0.082-0.4,0.168-0.683,0.258
			c-0.237,0.074-0.497,0.139-0.776,0.19c-0.278,0.052-0.586,0.079-0.922,0.079c-0.634,0-1.209-0.089-1.727-0.268
			c-0.518-0.178-0.969-0.455-1.352-0.834c-0.375-0.371-0.668-0.844-0.879-1.416c-0.211-0.571-0.315-1.236-0.315-1.994
			c0-0.719,0.102-1.361,0.305-1.928c0.203-0.567,0.496-1.045,0.879-1.437c0.371-0.379,0.819-0.668,1.345-0.867
			c0.526-0.198,1.108-0.299,1.75-0.299c0.469,0,0.937,0.058,1.402,0.17c0.467,0.113,0.985,0.313,1.557,0.599v1.377h-0.088
			c-0.48-0.402-0.957-0.695-1.431-0.879c-0.474-0.185-0.979-0.275-1.519-0.275c-0.44,0-0.838,0.07-1.191,0.214
			s-0.669,0.364-0.945,0.665c-0.271,0.293-0.479,0.663-0.631,1.109c-0.15,0.447-0.226,0.965-0.226,1.551
			c0,0.613,0.083,1.141,0.249,1.582c0.166,0.44,0.38,0.801,0.642,1.078c0.272,0.289,0.593,0.502,0.958,0.642
			s0.751,0.208,1.157,0.208c0.56,0,1.082-0.096,1.569-0.287c0.488-0.191,0.945-0.479,1.371-0.861h0.082v1.359H277.232z"/>
		<path fill="#333333" d="M284.137,74.508h-1.102v-3.727c0-0.301-0.018-0.583-0.053-0.848c-0.035-0.264-0.101-0.47-0.193-0.617
			c-0.098-0.164-0.238-0.286-0.422-0.366s-0.422-0.12-0.715-0.12c-0.301,0-0.615,0.074-0.943,0.223
			c-0.328,0.149-0.643,0.338-0.943,0.568v4.887h-1.102v-9.117h1.102v3.299c0.344-0.284,0.699-0.508,1.066-0.668
			s0.744-0.239,1.131-0.239c0.707,0,1.246,0.213,1.617,0.639c0.371,0.427,0.557,1.039,0.557,1.84V74.508L284.137,74.508z"/>
		<path fill="#333333" d="M287.322,66.867h-1.242v-1.143h1.242V66.867z M287.251,74.508h-1.103v-6.545h1.103V74.508z"/>
		<path fill="#333333" d="M290.424,74.508h-1.102v-9.117h1.102V74.508z"/>
		<path fill="#333333" d="M297.792,74.508h-1.103v-0.686c-0.315,0.273-0.646,0.486-0.989,0.639
			c-0.345,0.153-0.718,0.229-1.119,0.229c-0.781,0-1.401-0.301-1.86-0.901s-0.688-1.437-0.688-2.502c0-0.556,0.079-1.05,0.236-1.481
			c0.158-0.434,0.373-0.804,0.643-1.107c0.266-0.297,0.575-0.523,0.929-0.68c0.354-0.158,0.72-0.234,1.099-0.234
			c0.345,0,0.648,0.035,0.914,0.107c0.267,0.072,0.545,0.186,0.838,0.338v-2.836h1.103v9.115H297.792z M296.691,72.896v-3.756
			c-0.297-0.134-0.563-0.226-0.797-0.275c-0.234-0.051-0.49-0.076-0.769-0.076c-0.617,0-1.099,0.215-1.44,0.645
			c-0.344,0.431-0.517,1.039-0.517,1.828c0,0.777,0.133,1.368,0.397,1.772c0.266,0.403,0.691,0.606,1.277,0.606
			c0.313,0,0.629-0.069,0.949-0.209C296.113,73.293,296.414,73.115,296.691,72.896z"/>
		<path fill="#333333" d="M303.925,69.164h-0.059c-0.164-0.039-0.323-0.066-0.478-0.085c-0.156-0.019-0.338-0.026-0.549-0.026
			c-0.34,0-0.668,0.075-0.984,0.227c-0.315,0.15-0.621,0.345-0.914,0.582v4.646h-1.102v-6.545h1.102v0.967
			c0.438-0.352,0.824-0.601,1.158-0.746c0.334-0.146,0.674-0.221,1.021-0.221c0.191,0,0.33,0.005,0.416,0.016
			c0.086,0.01,0.215,0.027,0.387,0.056L303.925,69.164L303.925,69.164z"/>
		<path fill="#333333" d="M310.321,71.35h-4.822c0,0.402,0.062,0.754,0.183,1.053s0.286,0.543,0.497,0.734
			c0.203,0.188,0.444,0.328,0.725,0.422c0.279,0.094,0.587,0.142,0.923,0.142c0.445,0,0.894-0.089,1.345-0.267
			c0.451-0.179,0.772-0.354,0.964-0.524h0.06v1.2c-0.371,0.156-0.75,0.287-1.138,0.394c-0.387,0.106-0.793,0.158-1.219,0.158
			c-1.086,0-1.934-0.294-2.543-0.882s-0.914-1.424-0.914-2.506c0-1.069,0.292-1.92,0.876-2.549s1.354-0.942,2.307-0.942
			c0.883,0,1.563,0.258,2.042,0.772c0.479,0.516,0.718,1.248,0.718,2.197v0.598H310.321z M309.249,70.506
			c-0.004-0.578-0.149-1.025-0.438-1.342c-0.287-0.316-0.724-0.475-1.31-0.475c-0.59,0-1.06,0.174-1.409,0.521
			c-0.349,0.347-0.548,0.779-0.595,1.295L309.249,70.506L309.249,70.506z"/>
		<path fill="#333333" d="M317.343,74.508h-1.102v-3.727c0-0.301-0.019-0.583-0.054-0.848c-0.034-0.264-0.1-0.47-0.192-0.617
			c-0.098-0.164-0.238-0.286-0.422-0.366c-0.185-0.08-0.422-0.12-0.715-0.12c-0.302,0-0.615,0.074-0.943,0.223
			c-0.328,0.149-0.643,0.338-0.943,0.568v4.887h-1.102v-6.545h1.102v0.727c0.345-0.284,0.699-0.508,1.066-0.668
			s0.744-0.239,1.131-0.239c0.707,0,1.246,0.213,1.617,0.639c0.371,0.427,0.557,1.039,0.557,1.84V74.508L317.343,74.508z"/>
		<path fill="#333333" d="M321.594,65.391l-1.588,3.275h-0.809l0.967-3.275H321.594z"/>
		<path fill="#333333" d="M326.712,72.621c0,0.598-0.247,1.088-0.741,1.471s-1.169,0.574-2.023,0.574
			c-0.484,0-0.93-0.059-1.333-0.173c-0.404-0.115-0.743-0.241-1.018-0.378v-1.236h0.06c0.348,0.262,0.733,0.471,1.16,0.624
			c0.426,0.154,0.834,0.231,1.225,0.231c0.484,0,0.863-0.078,1.137-0.234c0.274-0.156,0.41-0.402,0.41-0.738
			c0-0.258-0.074-0.453-0.223-0.586c-0.149-0.133-0.435-0.246-0.855-0.34c-0.156-0.035-0.359-0.076-0.611-0.123
			s-0.481-0.098-0.688-0.152c-0.574-0.151-0.98-0.375-1.222-0.67s-0.36-0.658-0.36-1.088c0-0.27,0.056-0.522,0.167-0.762
			s0.28-0.451,0.507-0.639c0.22-0.185,0.497-0.329,0.835-0.438c0.338-0.107,0.717-0.16,1.135-0.16c0.391,0,0.785,0.047,1.187,0.144
			c0.401,0.096,0.733,0.212,0.999,0.349v1.178h-0.059c-0.281-0.207-0.623-0.382-1.025-0.523c-0.402-0.143-0.797-0.215-1.184-0.215
			c-0.402,0-0.742,0.078-1.021,0.231c-0.278,0.154-0.416,0.384-0.416,0.688c0,0.27,0.084,0.473,0.252,0.609
			c0.164,0.137,0.431,0.248,0.797,0.334c0.203,0.047,0.432,0.094,0.684,0.141s0.462,0.09,0.63,0.129
			c0.512,0.117,0.906,0.318,1.184,0.604C326.574,71.762,326.712,72.145,326.712,72.621z"/>
		<path fill="#333333" d="M337.927,66.814h-4.412v2.461h3.791v1.031h-3.791v4.2h-1.159v-8.725h5.571V66.814z"/>
		<path fill="#333333" d="M344.329,71.238c0,1.066-0.273,1.908-0.82,2.525c-0.547,0.616-1.278,0.926-2.196,0.926
			c-0.927,0-1.661-0.31-2.206-0.926c-0.546-0.617-0.817-1.459-0.817-2.525s0.271-1.909,0.817-2.528
			c0.545-0.619,1.279-0.929,2.206-0.929c0.918,0,1.649,0.31,2.196,0.929S344.329,70.172,344.329,71.238z M343.192,71.238
			c0-0.848-0.166-1.479-0.498-1.891s-0.793-0.617-1.384-0.617c-0.598,0-1.062,0.205-1.392,0.617s-0.495,1.043-0.495,1.891
			c0,0.82,0.166,1.441,0.498,1.865s0.795,0.637,1.389,0.637c0.587,0,1.047-0.21,1.381-0.631
			C343.025,72.689,343.192,72.066,343.192,71.238z"/>
		<path fill="#333333" d="M351.34,74.508h-1.102v-0.727c-0.371,0.293-0.728,0.518-1.066,0.674s-0.715,0.234-1.125,0.234
			c-0.688,0-1.223-0.211-1.604-0.631c-0.383-0.42-0.574-1.035-0.574-1.849v-4.248h1.102v3.728c0,0.332,0.017,0.615,0.047,0.853
			c0.031,0.237,0.099,0.438,0.199,0.606c0.105,0.172,0.242,0.297,0.41,0.375s0.412,0.117,0.732,0.117
			c0.284,0,0.597-0.074,0.935-0.224s0.653-0.338,0.946-0.567v-4.888h1.102L351.34,74.508L351.34,74.508z"/>
		<path fill="#333333" d="M358.861,74.508h-1.103v-3.727c0-0.301-0.018-0.583-0.053-0.848c-0.035-0.264-0.1-0.47-0.193-0.617
			c-0.098-0.164-0.237-0.286-0.422-0.366c-0.184-0.08-0.422-0.12-0.715-0.12c-0.301,0-0.615,0.074-0.943,0.223
			c-0.327,0.149-0.643,0.338-0.942,0.568v4.887h-1.103v-6.545h1.103v0.727c0.344-0.284,0.699-0.508,1.065-0.668
			c0.367-0.16,0.744-0.239,1.132-0.239c0.707,0,1.245,0.213,1.616,0.639c0.371,0.427,0.558,1.039,0.558,1.84V74.508L358.861,74.508z
			"/>
		<path fill="#333333" d="M366.17,74.508h-1.102v-0.686c-0.316,0.273-0.646,0.486-0.99,0.639c-0.344,0.153-0.717,0.229-1.119,0.229
			c-0.781,0-1.401-0.301-1.86-0.901s-0.688-1.437-0.688-2.502c0-0.556,0.079-1.05,0.237-1.481c0.157-0.434,0.372-0.804,0.642-1.107
			c0.266-0.297,0.575-0.523,0.929-0.68c0.354-0.158,0.721-0.234,1.1-0.234c0.344,0,0.647,0.035,0.914,0.107
			c0.266,0.072,0.545,0.186,0.838,0.338v-2.836h1.102v9.115H366.17z M365.069,72.896v-3.756c-0.297-0.134-0.563-0.226-0.797-0.275
			c-0.234-0.051-0.49-0.076-0.769-0.076c-0.617,0-1.098,0.215-1.441,0.645c-0.343,0.431-0.516,1.039-0.516,1.828
			c0,0.777,0.133,1.368,0.398,1.772c0.265,0.403,0.69,0.606,1.276,0.606c0.313,0,0.629-0.069,0.949-0.209
			C364.491,73.293,364.792,73.115,365.069,72.896z"/>
		<path fill="#333333" d="M373.304,74.508h-1.096v-0.697c-0.098,0.066-0.229,0.159-0.396,0.278s-0.326,0.214-0.482,0.284
			c-0.185,0.09-0.396,0.165-0.633,0.227c-0.238,0.061-0.519,0.09-0.838,0.09c-0.591,0-1.091-0.194-1.5-0.586
			c-0.41-0.391-0.615-0.889-0.615-1.494c0-0.495,0.105-0.896,0.318-1.203c0.214-0.307,0.518-0.549,0.911-0.725
			c0.398-0.176,0.877-0.295,1.437-0.356c0.559-0.062,1.158-0.109,1.799-0.142v-0.17c0-0.25-0.044-0.457-0.132-0.621
			s-0.214-0.293-0.378-0.387c-0.156-0.09-0.344-0.15-0.563-0.182c-0.219-0.032-0.446-0.047-0.686-0.047
			c-0.289,0-0.611,0.037-0.967,0.113c-0.356,0.076-0.724,0.188-1.103,0.332h-0.059v-1.119c0.215-0.06,0.524-0.123,0.932-0.193
			s0.808-0.105,1.201-0.105c0.461,0,0.862,0.038,1.204,0.114s0.638,0.206,0.888,0.39c0.246,0.181,0.435,0.412,0.563,0.697
			s0.192,0.639,0.192,1.061v4.441H373.304z M372.208,72.896v-1.822c-0.336,0.02-0.731,0.049-1.187,0.088
			c-0.456,0.039-0.815,0.096-1.081,0.17c-0.316,0.09-0.572,0.229-0.769,0.419s-0.293,0.45-0.293,0.782
			c0,0.375,0.113,0.656,0.34,0.847c0.228,0.19,0.572,0.284,1.037,0.284c0.387,0,0.74-0.075,1.062-0.227
			C371.638,73.287,371.935,73.107,372.208,72.896z"/>
		<path fill="#333333" d="M378.704,74.449c-0.207,0.055-0.433,0.1-0.677,0.135s-0.462,0.053-0.653,0.053
			c-0.668,0-1.176-0.18-1.523-0.539c-0.347-0.358-0.521-0.936-0.521-1.729v-3.48h-0.744v-0.926h0.744v-1.881h1.102v1.881h2.273
			v0.926h-2.273v2.982c0,0.344,0.009,0.611,0.023,0.806s0.07,0.374,0.164,0.542c0.086,0.156,0.204,0.271,0.354,0.344
			c0.15,0.071,0.38,0.107,0.688,0.107c0.18,0,0.367-0.025,0.563-0.079c0.196-0.053,0.336-0.097,0.422-0.132h0.06L378.704,74.449
			L378.704,74.449z"/>
		<path fill="#333333" d="M381.097,66.867h-1.241v-1.143h1.241V66.867z M381.027,74.508h-1.103v-6.545h1.103V74.508z"/>
		<path fill="#333333" d="M388.665,71.238c0,1.066-0.273,1.908-0.82,2.525c-0.547,0.616-1.278,0.926-2.196,0.926
			c-0.927,0-1.661-0.31-2.206-0.926c-0.545-0.617-0.817-1.459-0.817-2.525s0.272-1.909,0.817-2.528s1.279-0.929,2.206-0.929
			c0.918,0,1.649,0.31,2.196,0.929S388.665,70.172,388.665,71.238z M387.528,71.238c0-0.848-0.166-1.479-0.498-1.891
			s-0.793-0.617-1.383-0.617c-0.599,0-1.063,0.205-1.393,0.617s-0.495,1.043-0.495,1.891c0,0.82,0.166,1.441,0.498,1.865
			s0.795,0.637,1.39,0.637c0.586,0,1.046-0.21,1.38-0.631C387.361,72.689,387.528,72.066,387.528,71.238z"/>
		<path fill="#333333" d="M395.722,74.508h-1.102v-3.727c0-0.301-0.019-0.583-0.053-0.848c-0.035-0.264-0.101-0.47-0.193-0.617
			c-0.098-0.164-0.238-0.286-0.422-0.366c-0.185-0.08-0.422-0.12-0.715-0.12c-0.302,0-0.615,0.074-0.943,0.223
			c-0.328,0.149-0.643,0.338-0.943,0.568v4.887h-1.102v-6.545h1.102v0.727c0.345-0.284,0.699-0.508,1.066-0.668
			s0.744-0.239,1.131-0.239c0.707,0,1.246,0.213,1.617,0.639c0.371,0.427,0.557,1.039,0.557,1.84V74.508L395.722,74.508z"/>
	</g>
</g>
</svg>
