<?xml version="1.0" encoding="utf-8"?>
<!-- Generator: Adobe Illustrator 16.0.0, SVG Export Plug-In . SVG Version: 6.00 Build 0)  -->
<!DOCTYPE svg PUBLIC "-//W3C//DTD SVG 1.1//EN" "http://www.w3.org/Graphics/SVG/1.1/DTD/svg11.dtd">
<svg version="1.1" id="Layer_1" xmlns="http://www.w3.org/2000/svg" xmlns:xlink="http://www.w3.org/1999/xlink" x="0px" y="0px"
	 width="346px" height="300px" viewBox="-107.999 -106.5 346 300" enable-background="new -107.999 -106.5 346 300"
	 xml:space="preserve">
<g id="Layer_3">
</g>
<g id="Layer_2">
	<path fill="#FFCD05" d="M218.907,120.07c0,0-0.037,19.144-18.38,19.144H38.965l91.12-210.57H-89.029c0,0-18.254,0-18.254,18.755
		v191.815c0,0,0,19.144,18.254,19.144H2.403l7.769-19.144h-80.95c0,0-18.254,0-18.254-19.146V55.484c0,0-0.158-19.642,18.254-19.642
		V16.201c0,0-18.254,0-18.289-19.668l-0.021-30.158c0,0,0.341-18.974,18.31-18.974c17.968,0,174.359,0,174.359,0L11.017,158.355
		h207.891c0,0,18.377,0,18.377-19.143V-52.602c0,0,0-18.755-18.377-18.755h-80.783l-7.461,18.755h69.865
		c0,0,18.375-0.077,18.375,18.755v50.044c0,0-0.075,19.642-18.375,19.642v19.644c0,0,18.379,0,18.379,19.866L218.907,120.07
		L218.907,120.07z"/>
</g>
</svg>
