<?xml version="1.0" encoding="utf-8"?>
<!-- Generator: Adobe Illustrator 16.0.0, SVG Export Plug-In . SVG Version: 6.00 Build 0)  -->
<!DOCTYPE svg PUBLIC "-//W3C//DTD SVG 1.1//EN" "http://www.w3.org/Graphics/SVG/1.1/DTD/svg11.dtd">
<svg version="1.1" id="Layer_1" xmlns="http://www.w3.org/2000/svg" xmlns:xlink="http://www.w3.org/1999/xlink" x="0px" y="0px"
	 width="400px" height="300px" viewBox="0 -58 400 300" enable-background="new 0 -58 400 300" xml:space="preserve">
<path fill="#23130D" d="M73.463,68.65l0.253-1.642h5.465c2.456-4.106,4.976-8.256,7.562-12.453
	c2.583-4.193,5.421-8.142,8.515-11.836c3.092-3.695,6.524-6.979,10.294-9.852c3.77-2.875,7.984-4.947,12.644-6.227v-0.273
	c-2.204,0-4.448-0.021-6.734-0.068c-2.288-0.043-4.766-0.113-7.435-0.205c-2.669-0.089-5.634-0.159-8.896-0.205
	c-3.262-0.044-6.971-0.068-11.12-0.068c-8.387,0-16.014,0.776-22.876,2.326c-6.861,1.552-12.729,3.743-17.601,6.569
	c-4.874,2.828-8.663,6.136-11.374,9.918c-2.713,3.789-4.151,7.96-4.321,12.521c-0.171,4.379,1.291,7.868,4.385,10.468
	c3.091,2.6,7.307,3.898,12.645,3.898c3.473,0,7.032-0.616,10.676-1.845c3.641-1.233,6.947-2.964,9.912-5.2
	c2.965-2.235,5.401-4.903,7.308-8.005c1.905-3.1,2.86-6.477,2.86-10.125c0-1.551,0.125-7.8,0.125-7.8
	c0.932,2.555,1.399,5.2,1.399,7.937c0,3.284-0.889,6.525-2.668,9.716c-1.78,3.195-4.152,6.044-7.118,8.552
	c-2.966,2.51-6.417,4.539-10.357,6.088c-3.94,1.553-8.029,2.328-12.264,2.328c-5.677,0-10.167-1.37-13.471-4.107
	c-3.305-2.736-4.956-6.567-4.956-11.493c0-5.017,1.588-9.83,4.765-14.437c3.178-4.605,7.772-8.689,13.789-12.247
	c6.014-3.557,13.408-6.383,22.177-8.484c8.768-2.098,18.745-3.146,29.928-3.146c7.455,0,13.958,0.092,19.508,0.273
	c5.547,0.184,9.677,0.273,12.391,0.273c1.948,0,3.705-0.089,5.273-0.273c1.566-0.181,2.986-0.273,4.257-0.273
	c1.694,0,3.135,0.115,4.321,0.341c1.186,0.229,1.779,1.028,1.779,2.396c0,1.187-0.212,2.099-0.635,2.738
	c-0.426,0.64-1.461,1.094-3.113,1.368c-1.652,0.273-4.091,0.434-7.308,0.479c-3.221,0.048-7.584,0.068-13.09,0.068
	c-4.915,1.916-9.022,4.448-12.326,7.593c-3.305,3.147-6.164,6.571-8.579,10.264c-2.415,3.696-4.575,7.481-6.482,11.357
	c-1.906,3.879-4.004,7.506-6.29,10.879c1.016-0.183,2.307-0.32,3.875-0.411c1.567-0.089,3.114-0.227,4.639-0.409
	c1.524-0.181,2.923-0.412,4.193-0.685c1.271-0.273,2.075-0.684,2.415-1.231c0.763-1.096,1.673-2.19,2.732-3.285
	c1.059-1.093,2.479-1.642,4.259-1.642c1.099,0,2.159,0.185,3.176,0.548c-3.475,3.193-6.736,6.636-9.785,10.331
	c-3.051,3.693-5.804,7.642-8.26,11.836l-0.763-0.411c0.846-2.553,1.861-4.995,3.051-7.32c1.184-2.327,2.369-4.675,3.557-7.047
	c-1.103,0.183-2.309,0.34-3.621,0.478c-1.316,0.137-2.605,0.273-3.877,0.411C91,68.035,89.814,68.15,88.714,68.24
	c-1.103,0.091-1.992,0.185-2.669,0.273c-3.049,5.474-6.334,10.901-9.85,16.284c-3.516,5.383-7.433,10.242-11.754,14.574
	c-4.321,4.334-9.15,7.845-14.488,10.536c-5.338,2.69-11.355,4.036-18.045,4.036c-2.289,0-4.724-0.321-7.308-0.959
	c-2.585-0.641-4.979-1.642-7.18-3.01c-2.205-1.369-4.025-3.101-5.465-5.201c-1.441-2.098-2.16-4.604-2.16-7.525
	c0-1.822,0.485-3.509,1.461-5.062c0.972-1.551,2.392-2.327,4.257-2.327c1.354,0,2.393,0.458,3.113,1.368
	c0.72,0.914,1.08,2.053,1.08,3.421c0,1.277-0.298,2.395-0.89,3.353c-0.595,0.959-1.483,1.438-2.668,1.438
	c-0.51,0-0.935-0.045-1.271-0.139c0,0.273,0.105,1.117,0.315,2.531c0.212,1.417,0.87,2.896,1.971,4.448s2.859,2.942,5.273,4.173
	c2.415,1.23,5.783,1.847,10.104,1.847c5.506,0,10.548-1.479,15.122-4.446c4.576-2.963,8.726-6.636,12.455-11.015
	c3.727-4.38,7.095-9.123,10.103-14.233c3.007-5.108,5.74-9.76,8.197-13.956H73.463z"/>
<path fill="#23130D" d="M173.098,78.227c-2.033,2.463-4.321,4.427-6.862,5.884c-2.541,1.46-5.041,2.191-7.499,2.191
	c-2.372,0-4.405-0.569-6.1-1.712c-1.696-1.139-3.008-2.482-3.938-4.036h-0.255c-0.848,3.468-2.415,7.163-4.701,11.084
	c-2.288,3.922-5.02,7.527-8.199,10.811c-3.177,3.283-6.67,6.02-10.483,8.208c-3.811,2.19-7.711,3.284-11.691,3.284
	c-3.644,0-6.398-1.139-8.261-3.42c-1.864-2.279-2.796-5.338-2.796-9.17c0-2.004,0.465-4.332,1.397-6.978
	c0.932-2.645,2.224-5.314,3.877-8.005c1.652-2.69,3.599-5.337,5.845-7.937c2.244-2.601,4.68-4.927,7.308-6.979
	c2.624-2.052,5.401-3.695,8.324-4.926c2.922-1.23,5.865-1.847,8.832-1.847c3.473,0,6.164,1.093,8.071,3.283
	c1.905,2.191,2.941,5.019,3.113,8.484c0.168,2.1,1.079,4.038,2.732,5.816c1.651,1.778,3.918,2.669,6.799,2.669
	c2.542,0,4.934-0.686,7.18-2.053c2.245-1.369,4.342-3.148,6.292-5.336L173.098,78.227z M109.174,104.637
	c0,2.375,0.423,4.241,1.272,5.61c0.845,1.369,2.116,2.053,3.811,2.053c2.288,0,4.553-0.659,6.8-1.983
	c2.244-1.32,4.404-3.056,6.481-5.199c2.075-2.143,4.002-4.585,5.782-7.319c1.779-2.737,3.324-5.566,4.638-8.486
	c1.313-2.917,2.352-5.768,3.114-8.552c0.762-2.781,1.145-5.313,1.145-7.595c0-1.916-0.445-3.533-1.334-4.857
	c-0.889-1.321-2.268-1.983-4.131-1.983c-1.779,0-3.686,0.616-5.719,1.846c-2.033,1.232-4.088,2.854-6.164,4.857
	c-2.076,2.008-4.047,4.334-5.91,6.98c-1.864,2.647-3.538,5.383-5.02,8.209c-1.483,2.83-2.648,5.657-3.493,8.483
	C109.597,99.527,109.174,102.173,109.174,104.637"/>
<path fill="#23130D" d="M185.424,65.776l-16.139,25.313l0.253,0.274c1.186-1.549,2.688-3.354,4.511-5.403
	c1.821-2.054,3.813-4.152,5.974-6.295c2.159-2.143,4.425-4.264,6.798-6.364c2.371-2.097,4.703-3.968,6.991-5.609
	c0.422-0.911,0.889-1.643,1.397-2.189c0.51-0.547,1.524-0.819,3.049-0.819c0.933,0,1.758,0.021,2.48,0.065
	c0.718,0.049,1.46,0.117,2.224,0.207c-1.442,1.551-2.841,3.444-4.194,5.678c-1.357,2.238-2.035,4.676-2.035,7.32
	c0,2.1,0.488,3.743,1.463,4.928c0.974,1.186,2.18,1.779,3.621,1.779c1.272,0,2.521-0.275,3.75-0.823
	c1.228-0.546,2.393-1.23,3.496-2.051c1.102-0.821,2.16-1.688,3.176-2.6c1.018-0.912,1.91-1.734,2.67-2.464l0.762,0.547
	c-0.848,0.914-1.82,1.896-2.923,2.943c-1.099,1.049-2.288,2.03-3.558,2.941c-1.271,0.913-2.629,1.665-4.066,2.258
	c-1.441,0.594-2.924,0.889-4.449,0.889c-2.712,0-4.892-0.889-6.544-2.668c-1.652-1.778-2.479-4.264-2.479-7.458
	c0-2.19,0.465-4.15,1.399-5.885l-0.255-0.272c-3.476,2.555-7.288,5.906-11.437,10.056c-4.152,4.152-8.559,9.055-13.217,14.71
	c-1.696,2.008-3.453,4.651-5.273,7.937c-1.823,3.283-3.412,6.66-4.767,10.127h-8.26c4.575-7.845,9.149-15.646,13.725-23.4
	c4.575-7.752,9.277-15.645,14.107-23.672L185.424,65.776L185.424,65.776z"/>
<path fill="#23130D" d="M227.742,65.776l-16.141,25.313l0.254,0.274c1.187-1.549,2.689-3.354,4.513-5.403
	c1.821-2.054,3.812-4.152,5.973-6.295c2.162-2.143,4.427-4.264,6.8-6.364c2.371-2.097,4.703-3.968,6.988-5.609
	c0.426-0.911,0.891-1.643,1.398-2.189c0.508-0.547,1.523-0.819,3.051-0.819c0.931,0,1.758,0.021,2.479,0.065
	c0.721,0.049,1.461,0.117,2.225,0.207c-1.441,1.551-2.84,3.444-4.194,5.678c-1.354,2.238-2.034,4.676-2.034,7.32
	c0,2.1,0.488,3.743,1.463,4.928c0.975,1.186,2.18,1.779,3.623,1.779c1.27,0,2.519-0.275,3.744-0.823
	c1.23-0.546,2.396-1.23,3.497-2.051c1.103-0.821,2.161-1.688,3.179-2.6s1.906-1.734,2.67-2.464l0.763,0.547
	c-0.851,0.914-1.822,1.896-2.925,2.943c-1.104,1.049-2.287,2.03-3.558,2.941c-1.271,0.913-2.628,1.665-4.067,2.258
	c-1.44,0.594-2.924,0.889-4.447,0.889c-2.711,0-4.895-0.889-6.544-2.668c-1.652-1.778-2.479-4.264-2.479-7.458
	c0-2.19,0.465-4.15,1.397-5.885l-0.255-0.272c-3.477,2.555-7.288,5.906-11.438,10.056c-4.15,4.152-8.558,9.055-13.217,14.71
	c-1.695,2.008-3.451,4.651-5.273,7.937c-1.822,3.283-3.41,6.66-4.767,10.127h-8.26c4.576-7.845,9.149-15.646,13.722-23.4
	c4.578-7.752,9.277-15.645,14.111-23.672L227.742,65.776L227.742,65.776z"/>
<path fill="#23130D" d="M291.029,65.777h8.259c-3.136,4.744-6.144,9.352-9.021,13.819c-2.881,4.471-5.447,8.601-7.688,12.383
	c-2.246,3.789-4.047,7.116-5.399,9.991c-1.356,2.873-2.035,5.132-2.035,6.773c0,2.371,1.146,3.559,3.433,3.559
	c1.778,0,4.046-0.936,6.797-2.807c2.754-1.87,5.74-4.448,8.963-7.731c3.218-3.283,6.521-7.115,9.91-11.494
	c3.388-4.378,6.609-9.031,9.66-13.957l0.763,0.273c-2.288,3.742-4.979,7.779-8.07,12.111c-3.094,4.333-6.334,8.369-9.723,12.109
	c-3.391,3.741-6.777,6.865-10.168,9.373c-3.388,2.512-6.563,3.764-9.527,3.764c-2.461,0-4.261-0.662-5.402-1.985
	c-1.146-1.319-1.717-2.894-1.717-4.72c0-1.277,0.189-2.531,0.571-3.764c0.384-1.231,0.782-2.484,1.207-3.764l-0.254-0.137
	c-1.101,1.277-2.479,2.761-4.131,4.445c-1.649,1.689-3.431,3.265-5.337,4.724s-3.876,2.69-5.909,3.694
	c-2.033,1.002-3.983,1.504-5.847,1.504c-3.135,0-5.338-1.051-6.607-3.147c-1.271-2.099-1.906-4.467-1.906-7.114
	c0-3.738,1.102-7.867,3.305-12.383c2.201-4.516,4.998-8.759,8.388-12.727c3.388-3.968,7.073-7.273,11.058-9.92
	c3.98-2.646,7.752-3.968,11.311-3.968c1.691,0,3.176,0.252,4.447,0.752c1.271,0.502,2.33,1.187,3.178,2.052
	c0.847,0.868,1.503,1.848,1.97,2.942c0.466,1.095,0.827,2.236,1.08,3.421h0.254L291.029,65.777z M249.473,104.09
	c0,2.1,0.401,3.719,1.207,4.855c0.805,1.145,1.928,1.712,3.367,1.712s3.135-0.567,5.083-1.712c1.949-1.137,3.981-2.665,6.101-4.582
	c2.117-1.915,4.215-4.127,6.291-6.637c2.076-2.508,3.92-5.175,5.529-8.004c1.606-2.827,2.924-5.7,3.938-8.621
	c1.018-2.918,1.524-5.701,1.524-8.349c0-2.096-0.553-3.692-1.652-4.786c-1.102-1.097-2.457-1.644-4.065-1.644
	c-2.543,0-5.382,1.187-8.515,3.558c-3.137,2.375-6.102,5.405-8.897,9.099c-2.795,3.696-5.146,7.78-7.052,12.25
	C250.426,95.695,249.473,99.984,249.473,104.09"/>
<path fill="#23130D" d="M335.888,49.903l-10.037,15.872h16.773l-0.762,1.643h-17.031c-3.389,5.93-6.417,11.063-9.086,15.395
	c-2.668,4.333-4.914,8.072-6.734,11.22c-1.822,3.148-3.198,5.795-4.131,7.938c-0.932,2.146-1.399,4.035-1.399,5.678
	c0,1.734,0.552,2.941,1.653,3.627c1.102,0.687,2.37,1.027,3.813,1.027c3.051,0,6.418-1.256,10.104-3.766
	c2.993-2.036,11.696-9.1,12.41-9.505c0.151-0.086-1.243,1.715-1.926,2.391c-3.646,3.604-7.31,6.593-10.995,8.962
	c-3.684,2.374-7.178,3.559-10.482,3.559c-2.628,0-4.894-0.867-6.8-2.6s-2.859-4.148-2.859-7.253c0-2.098,0.551-4.446,1.652-7.048
	c1.102-2.6,2.543-5.403,4.32-8.415c1.778-3.01,3.792-6.293,6.036-9.85c2.245-3.561,4.555-7.343,6.926-11.359h-6.861l0.764-1.643
	h7.117l9.91-15.872L335.888,49.903L335.888,49.903z"/>
<path fill="#23130D" d="M354.188,57.156c1.271-0.548,2.669-1.252,4.194-2.121c1.523-0.866,2.942-1.869,4.258-3.011
	c1.313-1.14,2.454-2.508,3.431-4.105c0.973-1.594,1.589-3.441,1.843-5.541c-1.271,0-2.478-0.341-3.621-1.027
	c-1.146-0.684-1.715-1.938-1.715-3.762c0-1.824,0.463-3.148,1.396-3.969c0.933-0.82,2.16-1.231,3.687-1.231
	c1.438,0,2.604,0.64,3.494,1.916c0.891,1.279,1.335,2.647,1.335,4.105c0,2.555-0.635,4.927-1.906,7.115
	c-1.271,2.189-2.817,4.154-4.638,5.884c-1.824,1.734-3.793,3.194-5.91,4.379c-2.117,1.188-4.025,2.053-5.718,2.6L354.188,57.156z"/>
<path fill="#23130D" d="M367.532,113.941c-2.033,0-3.939-0.273-5.72-0.819c-1.778-0.549-3.324-1.368-4.639-2.465
	c-1.313-1.095-2.371-2.482-3.178-4.173c-0.803-1.688-1.208-3.672-1.208-5.953c0-2.37,0.723-4.516,2.161-6.43
	c1.44-1.917,3.387-2.875,5.847-2.875c1.271,0,2.309,0.343,3.113,1.027c0.805,0.685,1.207,1.711,1.207,3.079
	c0,1.277-0.298,2.374-0.888,3.285c-0.597,0.91-1.484,1.367-2.671,1.367c-0.935,0-1.676-0.273-2.225-0.821
	c-0.554-0.546-0.912-1.231-1.08-2.052c-0.934,0.548-1.565,1.347-1.907,2.396c-0.339,1.049-0.511,2.12-0.511,3.215
	c0,3.194,1.128,5.59,3.37,7.185c2.245,1.597,4.767,2.394,7.563,2.394c1.778,0,3.324-0.385,4.639-1.162
	c1.313-0.773,2.416-1.777,3.305-3.012c0.889-1.23,1.546-2.668,1.971-4.311c0.425-1.644,0.636-3.284,0.636-4.926
	c0-1.732-0.275-3.535-0.826-5.402c-0.551-1.872-1.166-3.716-1.843-5.543c-0.681-1.824-1.313-3.626-1.905-5.405
	c-0.595-1.779-0.892-3.443-0.892-4.995c0-2.007,0.383-3.808,1.146-5.406c0.762-1.594,1.799-2.943,3.113-4.037
	c1.312-1.094,2.814-1.936,4.511-2.531c1.694-0.594,3.474-0.889,5.339-0.889c3.388,0,6.142,0.799,8.26,2.395
	c2.117,1.597,3.179,3.717,3.179,6.363c0,2.372-0.826,4.105-2.479,5.2c-1.652,1.095-3.494,1.641-5.527,1.641
	c0.508-1.002,0.952-2.21,1.332-3.625c0.384-1.415,0.574-2.715,0.574-3.901c0-1.822-0.531-3.351-1.59-4.584
	c-1.06-1.229-2.563-1.845-4.51-1.845c-2.459,0-4.28,0.799-5.465,2.395c-1.188,1.598-1.78,3.536-1.78,5.814
	c0,2.008,0.316,3.924,0.954,5.747c0.635,1.827,1.377,3.65,2.223,5.472c0.765,1.828,1.463,3.696,2.097,5.612
	c0.637,1.917,0.953,4.059,0.953,6.433c0,1.73-0.358,3.398-1.079,4.992c-0.722,1.598-1.675,3.059-2.858,4.38
	c-1.188,1.323-2.523,2.443-4.003,3.354C374.753,111.436,371.124,113.941,367.532,113.941"/>
<path fill="#939598" d="M155.788,152.654c1.356,1.568,3.234,2.354,5.638,2.354c1.045,0,2.071-0.164,3.079-0.494
	c1.006-0.326,1.869-0.812,2.588-1.451l0.405,1.074c-0.93,0.813-1.937,1.405-3.021,1.772c-1.085,0.366-2.267,0.551-3.546,0.551
	c-3.002,0-5.395-0.918-7.176-2.758c-1.782-1.843-2.674-4.312-2.674-7.41c0-2.964,0.921-5.416,2.761-7.351
	c1.86-1.92,4.223-2.877,7.089-2.877c1.084,0,2.111,0.117,3.08,0.349c0.484,0.096,0.891,0.188,1.22,0.274
	c0.33,0.088,0.59,0.16,0.784,0.217c0.156,0,0.302-0.09,0.438-0.274c0.135-0.182,0.223-0.362,0.261-0.536h0.32l0.173,3.95
	l0.029,0.845l-0.32,0.086c-0.31-0.678-0.668-1.23-1.075-1.654c-0.407-0.426-0.873-0.775-1.395-1.049
	c-0.504-0.25-1.021-0.443-1.555-0.58c-0.532-0.135-1.071-0.203-1.613-0.203c-2.324,0-4.164,0.795-5.519,2.384
	c-1.337,1.606-2.005,3.737-2.005,6.392C153.754,148.975,154.432,151.105,155.788,152.654"/>
<path fill="#939598" d="M177.71,137.036c-0.126-0.203-0.412-0.306-0.857-0.306h-0.407v-0.289h5.318v0.289h-0.407
	c-0.406,0-0.673,0.103-0.8,0.306c-0.125,0.203-0.188,0.577-0.188,1.121v7.146h9.501v-7.146c0-0.544-0.064-0.918-0.188-1.121
	c-0.127-0.203-0.413-0.306-0.858-0.306h-0.406v-0.289h5.346v0.289h-0.407c-0.427,0-0.703,0.103-0.828,0.306
	s-0.189,0.577-0.189,1.121v16.241c0,0.541,0.064,0.914,0.189,1.119c0.125,0.201,0.401,0.303,0.828,0.303h0.407v0.293h-5.346v-0.293
	h0.406c0.445,0,0.731-0.102,0.858-0.303c0.124-0.205,0.188-0.578,0.188-1.119v-7.612h-9.501v7.612c0,0.541,0.063,0.914,0.188,1.119
	c0.127,0.201,0.394,0.303,0.8,0.303h0.407v0.293h-5.318v-0.293h0.407c0.445,0,0.731-0.102,0.857-0.303
	c0.125-0.205,0.189-0.578,0.189-1.119v-16.241C177.9,137.613,177.835,137.239,177.71,137.036"/>
<path fill="#939598" d="M217.211,153.643c-1.686,1.881-3.902,2.818-6.652,2.818c-2.771,0-5-0.938-6.683-2.818
	c-1.687-1.877-2.528-4.328-2.528-7.351s0.844-5.479,2.528-7.381c1.683-1.897,3.912-2.847,6.683-2.847
	c2.75,0,4.969,0.947,6.652,2.847c1.704,1.879,2.559,4.34,2.559,7.381C219.77,149.313,218.915,151.766,217.211,153.643
	 M215.352,139.898c-1.181-1.645-2.777-2.473-4.793-2.473c-2.035,0-3.642,0.828-4.822,2.473c-1.182,1.608-1.774,3.738-1.774,6.394
	c0,2.614,0.593,4.746,1.774,6.392c1.182,1.629,2.787,2.441,4.822,2.441c1.996,0,3.592-0.813,4.793-2.441
	c1.203-1.666,1.803-3.795,1.803-6.392C217.152,143.677,216.555,141.546,215.352,139.898"/>
<path fill="#939598" d="M233.482,152.654c1.355,1.568,3.235,2.354,5.636,2.354c1.049,0,2.071-0.164,3.081-0.494
	c1.007-0.326,1.869-0.812,2.586-1.451l0.406,1.074c-0.93,0.813-1.938,1.405-3.021,1.772c-1.085,0.366-2.266,0.551-3.546,0.551
	c-3.004,0-5.396-0.918-7.177-2.758c-1.783-1.843-2.674-4.312-2.674-7.41c0-2.964,0.92-5.416,2.762-7.351
	c1.859-1.92,4.222-2.877,7.089-2.877c1.086,0,2.112,0.117,3.081,0.349c0.484,0.096,0.891,0.188,1.219,0.274
	c0.329,0.088,0.592,0.16,0.785,0.217c0.152,0,0.301-0.09,0.436-0.274c0.138-0.182,0.224-0.362,0.263-0.536h0.319l0.174,3.95
	l0.029,0.845l-0.32,0.086c-0.309-0.678-0.668-1.23-1.073-1.654c-0.406-0.426-0.871-0.775-1.396-1.049
	c-0.505-0.25-1.021-0.443-1.555-0.58c-0.534-0.135-1.07-0.203-1.613-0.203c-2.324,0-4.164,0.795-5.52,2.384
	c-1.337,1.606-2.006,3.737-2.006,6.392C231.448,148.975,232.126,151.105,233.482,152.654"/>
<path fill="#939598" d="M268.755,153.643c-1.685,1.881-3.901,2.818-6.653,2.818c-2.771,0-4.996-0.938-6.683-2.818
	c-1.685-1.877-2.526-4.328-2.526-7.351s0.842-5.479,2.526-7.381c1.687-1.897,3.912-2.847,6.683-2.847
	c2.752,0,4.969,0.947,6.653,2.847c1.705,1.879,2.56,4.34,2.56,7.381C271.313,149.313,270.46,151.766,268.755,153.643
	 M266.896,139.898c-1.182-1.645-2.778-2.473-4.795-2.473c-2.033,0-3.641,0.828-4.822,2.473c-1.182,1.608-1.773,3.738-1.773,6.394
	c0,2.614,0.594,4.746,1.773,6.392c1.183,1.629,2.789,2.441,4.822,2.441c1.996,0,3.594-0.813,4.795-2.441
	c1.201-1.666,1.803-3.795,1.803-6.392C268.698,143.677,268.098,141.546,266.896,139.898"/>
<path fill="#939598" d="M282.792,154.165c0,0.272,0.097,0.433,0.289,0.479s0.571,0.072,1.134,0.072h4.242
	c1.104,0,1.938-0.115,2.499-0.348c0.58-0.253,1.083-0.873,1.51-1.859l0.378,0.086l-0.813,3.518h-13.105v-0.293h0.407
	c0.407,0,0.673-0.102,0.801-0.303c0.125-0.205,0.187-0.578,0.187-1.123v-16.237c0-0.544-0.062-0.919-0.187-1.119
	c-0.128-0.203-0.394-0.308-0.801-0.308h-0.407v-0.289h5.348v0.289h-0.437c-0.425,0-0.706,0.104-0.843,0.308
	c-0.135,0.2-0.201,0.575-0.201,1.119L282.792,154.165L282.792,154.165z"/>
<path fill="#939598" d="M320.707,156.113h-4.942v-0.293c0.47,0,0.799-0.075,0.992-0.23c0.078-0.076,0.114-0.193,0.114-0.351
	c0.04-0.173,0-0.388-0.114-0.638l-1.801-4.418h-8.749l-1.626,4.069c-0.155,0.405-0.231,0.707-0.231,0.899
	c0,0.175,0.039,0.301,0.115,0.379c0.194,0.193,0.521,0.289,0.988,0.289v0.291h-4.359v-0.291c0.426-0.037,0.795-0.213,1.105-0.523
	c0.31-0.311,0.57-0.707,0.785-1.191l7.437-17.867h1.311l7.728,18.626c0.233,0.405,0.44,0.657,0.624,0.754
	c0.183,0.097,0.396,0.166,0.625,0.202L320.707,156.113L320.707,156.113z M310.625,139.29l-3.835,9.472h7.67L310.625,139.29z"/>
<path fill="#939598" d="M333.985,155.518c0.136,0.203,0.438,0.305,0.9,0.305h0.465v0.292h-5.607v-0.292h0.467
	c0.465,0,0.764-0.103,0.899-0.305c0.135-0.203,0.202-0.576,0.202-1.119v-16.474h-3.835c-0.579,0-1.057,0.086-1.424,0.263
	c-0.389,0.152-0.679,0.734-0.871,1.742h-0.407l0.116-3.488h15.283l0.088,3.488h-0.379c-0.212-1.008-0.504-1.59-0.869-1.742
	c-0.351-0.177-0.834-0.263-1.455-0.263h-3.776v16.474C333.782,154.941,333.851,155.313,333.985,155.518"/>
<path fill="#939598" d="M349.181,156.113v-0.29h0.408c0.388,0,0.646-0.104,0.771-0.308c0.124-0.203,0.188-0.574,0.188-1.117v-16.241
	c0-0.543-0.063-0.918-0.188-1.121c-0.126-0.203-0.384-0.306-0.771-0.306h-0.408v-0.289h12.961l0.027,2.994h-0.406
	c-0.116-0.776-0.368-1.242-0.755-1.396c-0.349-0.138-0.843-0.204-1.482-0.204h-5.867c-0.351,0-0.544,0.039-0.582,0.116
	c-0.039,0.078-0.06,0.263-0.06,0.552v6.655h5.898c0.756,0,1.246-0.099,1.468-0.292c0.224-0.192,0.363-0.581,0.421-1.161h0.377v4.388
	h-0.377c-0.039-0.289-0.086-0.533-0.145-0.727c-0.059-0.194-0.151-0.35-0.276-0.467c-0.126-0.115-0.31-0.197-0.552-0.248
	c-0.242-0.047-0.549-0.07-0.916-0.07h-5.898v7.583c0,0.271,0.098,0.433,0.291,0.479c0.192,0.049,0.572,0.073,1.135,0.073h4.793
	c0.466,0,0.866-0.024,1.206-0.073c0.34-0.047,0.645-0.148,0.915-0.306c0.271-0.153,0.515-0.362,0.727-0.625
	c0.214-0.261,0.418-0.612,0.61-1.06h0.465l-0.728,3.457h-13.25V156.113z"/>
<path fill="#939598" d="M382.363,154.949c-1.184,1.008-2.646,1.512-4.389,1.512c-0.909,0-1.801-0.115-2.674-0.348
	c-0.444-0.137-0.822-0.249-1.133-0.336c-0.311-0.086-0.572-0.16-0.786-0.217c-0.194,0.021-0.324,0.092-0.391,0.217
	c-0.069,0.127-0.102,0.229-0.102,0.305h-0.35l-0.495-4.387l0.292-0.174c0.213,0.482,0.488,0.943,0.828,1.379
	c0.338,0.438,0.74,0.818,1.205,1.148s0.979,0.592,1.539,0.785c0.563,0.193,1.182,0.29,1.86,0.29c0.562,0,1.079-0.087,1.556-0.261
	c0.475-0.176,0.887-0.424,1.233-0.742c0.35-0.318,0.625-0.692,0.83-1.118c0.201-0.426,0.304-0.892,0.304-1.396
	c0-1.104-0.397-1.994-1.19-2.672c-0.388-0.33-0.831-0.664-1.323-1.004c-0.493-0.339-1.052-0.673-1.67-1.003
	c-0.717-0.387-1.37-0.778-1.961-1.177c-0.59-0.396-1.131-0.816-1.613-1.266c-0.969-0.907-1.451-2.102-1.451-3.571
	c0-1.319,0.538-2.46,1.628-3.429c1.063-0.95,2.383-1.424,3.949-1.424c0.832,0,1.626,0.127,2.383,0.377
	c0.389,0.117,0.728,0.218,1.018,0.305c0.291,0.087,0.533,0.15,0.727,0.189c0.215-0.02,0.353-0.093,0.422-0.218
	c0.066-0.126,0.111-0.237,0.132-0.335h0.317l0.379,4.387l-0.436,0.029c-0.312-0.929-0.867-1.713-1.672-2.34
	c-0.804-0.628-1.886-0.943-3.238-0.943c-0.99,0-1.799,0.289-2.429,0.871c-0.629,0.581-0.944,1.319-0.944,2.21
	c0,0.871,0.478,1.694,1.425,2.47c0.932,0.718,2.032,1.422,3.313,2.121l-0.204-0.088c0.794,0.407,1.496,0.824,2.104,1.247
	c0.612,0.427,1.13,0.888,1.556,1.384c0.427,0.492,0.747,1.022,0.96,1.598c0.213,0.57,0.317,1.203,0.317,1.902
	C384.192,152.703,383.583,153.941,382.363,154.949"/>
<path fill="#C3922F" d="M37.548,140.706c11.952-0.319,11.992-8.147,11.992-8.147l-0.548,0.045c0,0-0.411,7.519-11.336,6.403
	c-10.924-1.114-9.571-7.139-9.571-7.139C26.521,134.37,26.941,140.989,37.548,140.706"/>
<path fill="#C3922F" d="M92.86,141.796c0,0-16.771,0.048-27.677,13.192c-4.644,5.595-2.619,10.14,1.629,9.734
	c0,0-4.906-3.146-0.405-8.67C77.545,142.383,92.86,141.796,92.86,141.796"/>
<path fill="#C3922F" d="M100.037,141.32c0,0-8.256,2.098-14.701,8.791c-5.312,5.518-6.574,10.32-0.688,11.408
	c0,0-5.637-4.07,1.003-10.912C91.273,144.814,100.037,141.32,100.037,141.32"/>
<path fill="#C3922F" d="M110.263,126.555c-13.984-1.386-48.722,0.2-63.519,0.311c-14.798,0.109-20.78-2.653-20.78-2.653
	c-3.032,2.281-3.742,4.642-3.742,4.642s1.262,1.994,14.725,3.332c13.462,1.336,54.009-4.479,73.681-3.184
	c19.672,1.296,30.299,9.555,29.135,18.891c-1.162,9.336-12.556,15.416-25.699,13.765c-8.586-1.08-19.243-6.229-17.42-13.882
	c1.136-4.766,12.139-7.739,22.139-2.608c9.479,4.866,9.737,10.995,4.725,9.745c0,0,1.042,1.422,3.357,0.563
	c2.314-0.861,7.552-7.238-8.629-13.586c-16.533-6.486-57.221,3.699-68.216,4.656c-41.204,3.594-33.804-26.921-14.362-26.336
	c10.241,0.305,11.352,5.208,11.352,5.208l1.016,0.19c0,0-2.102-6.513-12.081-6.133c-20.415,0.776-22.429,24.178-2.533,27.879
	c17.687,3.291,35.316-3.863,53.64-6.113c9.193-1.126,16.423-1.258,22.287-0.45c-6.714,0.127-12.532,3.108-13.384,6.99
	c-3.659,16.659,40.824,22.668,44.645,0.659C142.795,135.805,124.248,127.939,110.263,126.555"/>
<path fill="#C3922F" d="M12.902,119.458c-3.22-1.604-4.519-2.446-7.072-5.849c-3.773-5.034-1.493-8.021-1.493-8.021
	c-5.032,4.244,1.1,16.092,15.624,22.611c1.331-3.281,3.242-4.868,3.242-4.868S18.776,122.389,12.902,119.458"/>
<rect y="0.438" fill="none" width="400" height="183.125"/>
</svg>
