<?xml version="1.0" encoding="utf-8"?>
<!-- Generator: Adobe Illustrator 16.0.0, SVG Export Plug-In . SVG Version: 6.00 Build 0)  -->
<!DOCTYPE svg PUBLIC "-//W3C//DTD SVG 1.1//EN" "http://www.w3.org/Graphics/SVG/1.1/DTD/svg11.dtd">
<svg version="1.1" id="Layer_1" xmlns="http://www.w3.org/2000/svg" xmlns:xlink="http://www.w3.org/1999/xlink" x="0px" y="0px"
	 width="400px" height="300px" viewBox="0 -68.5 400 300" enable-background="new 0 -68.5 400 300" xml:space="preserve">
<g>
	<path fill="#D4AF8E" d="M43.732,142.052c0.376-1.753,0.875-3.944,1.502-6.573c0.624-2.629,0.812-4.939,0.561-6.942l1.127-12.015
		c0.25-2.879,0.686-5.133,1.314-6.76c0.626-1.623,0.939-3.626,0.939-6.005c-1.004,0-1.784-0.188-2.348-0.563
		c-0.563-0.375-1.218-0.438-1.969-0.188c-2.003,0.63-3.633,1.878-4.882,3.751c-1.252,1.878-2.063,3.693-2.439,5.445
		c-1.127,3.881-2.253,7.603-3.38,11.169c-1.125,3.568-2.128,7.73-3.002,12.482c-0.376,1.754-0.91,2.942-1.596,3.567
		c-0.689,0.626-1.471,0.972-2.345,1.033c-0.878,0.063-1.815,0.094-2.817,0.094c-0.876,0-1.752,0.251-2.626,0.751
		c-1.004,0.501-1.784,1.064-2.348,1.69c-0.563,0.626-1.126,1.216-1.69,1.778c-0.564,0.563-1.221,1.064-1.969,1.504
		c-0.751,0.438-1.755,0.656-3.005,0.656c-4.381,0-7.321-0.531-8.821-1.597c-1.502-1.06-2.253-3.595-2.253-7.601v-5.635
		c0.624-2.875,1.502-6.912,2.629-12.106c1.125-5.188,2.314-10.605,3.566-16.234c1.25-5.629,2.47-10.981,3.659-16.047
		c1.189-5.071,2.16-9.042,2.911-11.922c0.499-2.001,1.281-5.13,2.345-9.387c1.062-4.252,2.188-8.633,3.38-13.14
		c1.187-4.505,2.439-8.663,3.753-12.481c1.314-3.816,2.535-6.289,3.662-7.416l12.575-2.629c0.25,0,1.001-0.217,2.253-0.657
		c1.25-0.436,2.441-0.686,3.566-0.751c1.126-0.061,2,0.221,2.629,0.845c0.624,0.628,0.499,2.003-0.375,4.131
		c0.25,1.5,0.72,2.316,1.408,2.439c0.687,0.127,1.409,0.159,2.157,0.094c0.751-0.061,1.409,0.033,1.972,0.281
		c0.563,0.253,0.845,1.252,0.845,3.005c0,1.5-0.159,3.096-0.469,4.786c-0.313,1.69-0.628,3.349-0.939,4.974
		c-0.313,1.627-0.595,3.224-0.845,4.786c-0.25,1.567-0.375,2.976-0.375,4.223c0.125,2.13-0.219,4.694-1.031,7.697
		c-0.816,3.004-1.596,5.819-2.347,8.448c-0.751,2.626-1.252,4.757-1.502,6.382c-0.252,1.627,0.311,2.063,1.69,1.313
		c0.375,0,0.968,0.064,1.784,0.188c0.812,0.128,1.625,0.159,2.439,0.095c0.814-0.061,1.596-0.282,2.347-0.657
		c0.751-0.374,1.25-1,1.502-1.875l16.331-66.263l10.887-3.566c0.375-0.123,0.751,0.094,1.126,0.657
		c0.375,0.561,0.751,1.218,1.127,1.97c0.375,0.751,0.717,1.439,1.03,2.065c0.311,0.628,0.657,0.876,1.033,0.751
		c0.626-0.123,1.189-0.217,1.69-0.282c0.499-0.063,0.939-0.094,1.314-0.094c1.375,0,2.345,0.722,2.908,2.158
		c0.563,1.442,0.532,4.102-0.094,7.979c-0.253,1.502-0.188,2.66,0.188,3.472c0.376,0.816,0.845,1.502,1.409,2.065
		c0.563,0.563,1.093,1.158,1.596,1.784c0.499,0.628,0.751,1.439,0.751,2.439c0,1.629-0.188,3.38-0.563,5.258
		c-0.375,1.875-0.816,3.785-1.314,5.725c-0.5,1.94-1.033,3.848-1.596,5.725c-0.563,1.876-1.033,3.631-1.408,5.256l-2.251,9.948
		c-2.629,10.764-4.914,19.771-6.852,27.032c-1.943,7.262-3.599,13.579-4.974,18.957c-1.379,5.385-2.535,10.105-3.474,14.174
		c-0.937,4.068-1.782,8.228-2.533,12.483l0.939,7.131c0.123,0.632-0.034,1.158-0.47,1.597c-0.44,0.438-0.939,0.813-1.502,1.127
		c-0.563,0.313-1.098,0.563-1.596,0.752c-0.501,0.188-0.751,0.339-0.751,0.469c-0.876,2.124-1.781,3.595-2.72,4.413
		c-0.939,0.81-1.722,1.216-2.348,1.216h-1.126c-0.125-0.125-0.25-0.531-0.374-1.216c-0.127-0.688-0.221-1.413-0.282-2.164
		c-0.064-0.751-0.159-1.438-0.282-2.062c-0.127-0.631-0.252-1.007-0.375-1.127c-0.751-0.255-1.502-0.5-2.253-0.75
		c-0.751-0.252-1.439-0.252-2.065,0c-1.252,0.495-2.191,0.844-2.814,1.031c-0.628,0.188-1.69-0.224-3.192-1.221
		c-0.626-0.496-1.377-0.809-2.251-0.938c-0.876-0.121-1.755-0.377-2.629-0.752c-0.876-0.376-1.627-0.971-2.251-1.783
		C44.23,145.083,43.855,143.805,43.732,142.052z"/>
	<path fill="#D4AF8E" d="M90.846,136.23c0.376-2.129,0.845-4.695,1.409-7.695c0.563-3.004,1.221-5.979,1.972-8.92
		c0.749-2.938,1.563-5.504,2.439-7.694c0.874-2.187,1.813-3.536,2.817-4.037c0.999-0.376,1.688-1.091,2.063-2.155
		c0.376-1.063,0.626-2.254,0.751-3.567c0.123-1.313,0.217-2.593,0.282-3.845c0.063-1.252,0.344-2.316,0.845-3.192l13.892-56.315
		c0.624-0.874,1.187-2.441,1.688-4.692c0.499-2.253,1.062-4.567,1.69-6.946c0.624-2.376,1.375-4.411,2.253-6.101
		c0.874-1.69,1.999-2.47,3.378-2.347l13.328,1.127c2.001,1.126,3.472,1.815,4.411,2.065c0.939,0.252,1.69,0.313,2.253,0.188
		c0.563-0.123,1.031-0.344,1.406-0.657c0.375-0.311,1.001-0.47,1.878-0.47c1.25,0,2.441,0.845,3.565,2.533
		c1.127,1.69,2.16,3.821,3.099,6.383c0.939,2.566,1.813,5.383,2.627,8.448c0.813,3.067,1.531,5.978,2.159,8.728
		c0.626,2.754,1.221,5.195,1.784,7.321c0.563,2.13,1.093,3.505,1.596,4.131c0,0.125,0.123,0.219,0.373,0.279
		c0.25,0.065,0.438,0.094,0.563,0.094c0.25,0,0.499-0.123,0.751-0.374c1.625-2.752,3.628-6.289,6.007-10.607
		c2.376-4.317,4.755-8.475,7.134-12.483c2.376-4.001,4.599-7.382,6.664-10.136c2.065-2.75,3.66-4.064,4.786-3.941
		c1.25,0.253,2.502,0,3.753-0.751c1.25-0.751,2.504-1.784,3.756-3.096c1.25-1.314,2.439-2.752,3.565-4.319
		c1.127-1.563,2.188-2.971,3.191-4.223h1.877c0.496,0,1.377-0.499,2.629-1.502c1.246-0.999,2.187-1.502,2.813-1.502
		c2.128,0,4.1,0.69,5.915,2.065c1.812,1.379,3.599,2.506,5.353,3.38c1.127,0.5,1.877,1.564,2.254,3.19
		c0.375,1.627,0.625,3.443,0.75,5.443c0.121,2.003,0.121,4.035,0,6.101c-0.125,2.065-0.188,3.787-0.188,5.162
		c0,0.751-0.1,2.347-0.286,4.786c-0.188,2.441-0.438,4.974-0.752,7.603s-0.688,4.974-1.126,7.04
		c-0.438,2.063-0.902,3.161-1.404,3.284l-14.643,56.5c0.25,0.627,0.188,2.254-0.188,4.883c-0.377,2.629-1.064,5.509-2.066,8.634
		c-0.5,1.257-1.03,2.44-1.594,3.567s-1.158,2.19-1.784,3.188c-0.628,1.127-1.474,2.103-2.535,2.915
		c-1.064,0.813-2.097,1.279-3.096,1.404c-0.751,0.125-1.408,0.875-1.972,2.252s-1.125,2.756-1.688,4.133s-1.066,2.529-1.502,3.47
		c-0.44,0.938-0.91,1.037-1.409,0.286c-0.125-0.126-0.375-0.85-0.751-2.164s-0.72-2.5-1.033-3.563
		c-0.313-1.061-0.467-1.66-0.467-1.785c-0.751-0.375-1.661-0.59-2.723-0.656c-1.064-0.059-2.097-0.094-3.096-0.094
		c-1.003,0-1.972-0.063-2.911-0.188s-1.721-0.5-2.347-1.126l-4.88-4.883c0-3,0.47-6.192,1.409-9.568
		c0.939-3.38,1.719-6.635,2.347-9.765c0.375-1.752,0.655-3.22,0.843-4.408s0.407-2.535,0.657-4.037
		c1.25-3.126,2.376-5.817,3.38-8.069c0.999-2.254,2.032-4.723,3.096-7.414c1.062-2.693,2.095-5.194,3.098-7.511
		c1-2.313,2.126-5.037,3.378-8.166c-0.125,0-0.688,0.722-1.69,2.159c-1.001,1.44-2.222,3.224-3.66,5.35
		c-1.439,2.128-2.973,4.444-4.599,6.943c-1.627,2.505-3.163,4.82-4.598,6.948c-1.442,2.128-2.66,3.912-3.662,5.348
		c-1.001,1.439-1.564,2.103-1.688,1.973c-1.254-0.496-2.694-0.621-4.319-0.377c-1.627,0.256-3.19,0.131-4.692-0.375
		c-1.379-0.496-3.161-0.907-5.35-1.221c-2.19-0.309-3.724-0.527-4.598-0.652c-1.878-1.502-3.224-3.16-4.038-4.977
		c-0.813-1.811-1.534-4.162-2.157-7.042c-0.628-3.003-1.567-6.005-2.817-9.009c-1.252-3.002-2.378-5.692-3.378-8.07
		c-0.876,1.377-1.661,3.224-2.347,5.538c-0.688,2.316-1.314,4.629-1.875,6.946c-0.563,2.316-1.127,4.443-1.69,6.384
		s-1.158,3.282-1.784,4.033c-0.751,0.876-1.346,2.155-1.784,3.845c-0.438,1.69-0.783,3.506-1.031,5.446
		c-0.252,1.94-0.503,3.851-0.751,5.723c-0.253,1.878-0.503,3.38-0.751,4.507c-0.876,3.631-1.69,7.037-2.441,10.229
		s-1.534,6.01-2.345,8.45c-0.816,2.441-1.627,4.382-2.441,5.816c-0.816,1.444-1.659,2.159-2.533,2.159
		c-1.755,0-3.163,0.349-4.225,1.033c-1.064,0.688-2.063,1.408-3.002,2.159s-1.942,1.502-3.004,2.254
		c-1.064,0.751-2.41,1.188-4.035,1.314l-12.577-6.386L90.846,136.23z"/>
	<path fill="#D4AF8E" d="M212.857,115.207c0.875-3.005,2.101-7.323,3.66-12.952c1.562-5.63,3.252-11.606,5.066-17.927
		c1.814-6.318,3.566-12.45,5.258-18.396c1.689-5.942,3.031-10.729,4.037-14.359c0.376-1.752,0.751-3.065,1.127-3.943
		c0.371-0.874,0.621-1.623,0.746-2.251c0.125-0.375,0.35-0.907,0.662-1.596c0.309-0.687,0.652-1.596,1.027-2.723l2.254-7.131
		c1.002-2.376,1.878-4.661,2.629-6.852c0.752-2.188,1.314-3.597,1.689-4.223c0-0.499,0.125-1.062,0.377-1.69
		c0.25-0.626,0.5-1.187,0.75-1.69c0.25-0.499,0.402-0.968,0.471-1.408c0.058-0.436-0.096-0.718-0.471-0.843
		c-1.002-0.375-2.127-0.72-3.379-1.033c-1.253-0.311-2.474-0.687-3.658-1.127c-1.193-0.438-2.19-0.939-3.004-1.502
		s-1.222-1.156-1.222-1.784c0-0.749-0.067-1.75-0.188-3.002c-0.129-1.25-0.156-2.441-0.094-3.565
		c0.063-1.127,0.313-2.095,0.752-2.911c0.438-0.812,1.215-1.156,2.342-1.033c6.636,0.375,12.019,0.878,16.146,1.502
		c4.132,0.628,8.008,1.755,11.64,3.378c1,0.751,2.158,1.379,3.474,1.878c1.313,0.501,2.473,1.252,3.474,2.253
		c1.378,1.252,2.781,2.41,4.221,3.472c1.44,1.064,2.656,1.909,3.662,2.535c0.752,0.626,1.283,1.127,1.598,1.5
		c0.313,0.375,0.563,0.751,0.75,1.127c0.188,0.375,0.438,0.816,0.752,1.314c0.313,0.5,0.841,1.064,1.592,1.69
		c1.377,1.252,3.104,2.316,5.168,3.19c2.066,0.879,3.657,2.066,4.784,3.568c5.258,6.883,9.229,14.33,11.92,22.337
		c2.69,8.01,4.096,16.143,4.221,24.403c0,3.002-0.401,6.007-1.216,9.009c-0.813,3.002-1.814,5.913-3.005,8.729
		c-1.188,2.813-2.504,5.541-3.943,8.164c-1.438,2.629-2.78,5.134-4.032,7.508c-2.004,3.38-4.633,6.357-7.888,8.914
		c-3.255,2.566-6.786,4.856-10.604,6.854c-3.818,2.003-7.668,3.787-11.545,5.353c-3.881,1.564-7.387,2.974-10.512,4.221
		c-0.63,0.251-1.658,0.662-3.099,1.221c-1.438,0.563-2.284,0.846-2.53,0.846l-30.976,1.314l-5.445-3.568
		c0.375-2.498,0.661-4.533,0.851-6.099c0.188-1.563,0.344-3.099,0.465-4.601c0.125-1.498,0.188-2.438,0.188-2.813L212.857,115.207z
		 M240.641,109.573c1.877-0.12,4.438-0.591,7.697-1.403c3.251-0.814,6.475-1.847,9.667-3.1c3.192-1.246,6.036-2.659,8.54-4.226
		c2.503-1.563,4.063-3.219,4.694-4.972l9.38-32.475l-13.323-22.713c-0.251-0.125-0.846-0.345-1.784-0.658
		c-0.938-0.311-1.597-0.592-1.972-0.845c-0.501-0.123-0.876-0.188-1.127-0.188c-0.125,0-0.375,0.065-0.751,0.188
		c-0.125,0.125-0.346,0.628-0.652,1.502c-0.318,0.876-0.6,1.627-0.85,2.251c-1.753,5.133-3.35,10.169-4.784,15.112
		c-1.438,4.945-2.911,9.919-4.413,14.922c-1.498,5.008-3.099,10.076-4.788,15.204c-1.69,5.134-3.595,10.392-5.724,15.771
		L240.641,109.573z"/>
	<path fill="#D4AF8E" d="M299.014,152.934c0-2.754,0.6-5.373,1.788-7.877c1.189-2.505,2.093-5.195,2.72-8.074
		c0.625-2.504,1.277-5.16,1.967-7.978c0.688-2.817,1.351-5.598,1.977-8.353c-0.251-0.125-0.537-0.375-0.85-0.752
		c-0.313-0.375-0.34-0.688-0.09-0.938c0-0.25,0.276-0.971,0.841-2.158c0.563-1.189,0.85-1.91,0.85-2.16
		c0.751-2.004,1.091-3.943,1.028-5.821c-0.063-1.878,0.224-3.876,0.85-6.005c0.626-1.998,1.466-4.879,2.53-8.633
		c1.064-3.756,2.093-7.539,3.103-11.359c0.993-3.816,1.933-7.288,2.81-10.417c0.876-3.125,1.438-5.13,1.688-6.007
		c0.501-1.375,1.064-3.252,1.69-5.631c0.626-2.376,1.225-4.88,1.788-7.509c0.563-2.627,1.028-5.162,1.404-7.601
		c0.375-2.441,0.563-4.348,0.563-5.725h-22.148c-1.379-0.751-2.254-1.25-2.629-1.502c-0.752-1.375-0.939-2.689-0.563-3.941
		c0.375-1.25,0.563-2.441,0.563-3.568c0-0.751-0.377-1.502-1.127-2.251c2.002-1.25,4.317-1.907,6.947-1.972
		c2.629-0.063,4.944-0.78,6.947-2.159v0.939c0.251-0.123,0.591-0.311,1.027-0.563c0.438-0.248,0.778-0.375,1.037-0.375
		c2.871-1.125,6.376-2.093,10.509-2.909c4.131-0.813,8.352-1.531,12.671-2.16c4.317-0.624,8.539-1.093,12.671-1.408
		c4.131-0.311,7.627-0.469,10.516-0.469c0.867,0,1.933,0.44,3.185,1.314c1.252,0.878,2.064,1.815,2.44,2.816h9.201
		c0.376,1.252,1.341,1.94,2.906,2.063c1.563,0.127,2.844,0.375,3.854,0.751c5.625,2.003,9.479,5.101,11.545,9.293
		c2.065,4.194,3.095,9.103,3.095,14.734c0,5.508-0.502,9.919-1.503,13.234c-1.002,3.317-2.44,6.194-4.318,8.633
		c-1.878,2.441-4.194,4.82-6.939,7.134c-2.754,2.318-5.884,5.29-9.389,8.917c0.501,0.63,1.127,1.125,1.878,1.502
		c0.751,0.376,1.466,0.813,2.154,1.313s1.351,1.128,1.977,1.878c0.626,0.752,1.127,1.879,1.502,3.381
		c0.868,2.504,1.558,5.383,2.066,8.633c0.491,3.256,0.751,5.566,0.751,6.943c0,0.377-0.036,0.787-0.1,1.227
		c-0.063,0.438-0.09,0.715-0.09,0.84c0,0.126-0.32,0.656-0.938,1.597c-0.635,0.938-0.938,1.597-0.938,1.972v1.127v2.065v2.253v1.127
		c0,0.125-0.161,0.438-0.475,0.936c-0.313,0.505-0.626,1.033-0.938,1.597s-0.626,1.126-0.938,1.688
		c-0.313,0.563-0.465,0.912-0.465,1.033v0.752c-1.001,1.252-2.79,3.129-5.356,5.629c-2.565,2.504-5.32,5.008-8.253,7.512
		c-2.941,2.504-5.884,4.693-8.826,6.566c-2.941,1.879-5.285,2.817-7.037,2.817c-3.506,0.621-7.262,0.871-11.268,0.751
		c-4.006-0.13-8.128-0.376-12.385-0.751c-0.876-0.506-1.439-0.817-1.689-0.938c-0.501-0.627-0.813-0.938-0.938-0.938h-0.376
		c-0.5,0-1.251,0.255-2.253,0.751s-2.03,1.061-3.095,1.689c-1.063,0.621-2.039,1.248-2.915,1.873
		c-0.877,0.627-1.377,1.127-1.493,1.502c-0.135,0.125,0.188,0.688,0.931,1.69c-0.125,0.25-0.501,0.532-1.118,0.851
		c-0.635,0.309-0.938,0.59-0.938,0.84c-0.261,0.752-0.377,1.313-0.377,1.689c-1.627,0-3.13,0.313-4.507,0.939
		c-1.377,0.625-2.94,0.938-4.694,0.938c-2.754,0-4.443-0.971-5.069-2.91C299.33,156.909,299.014,154.938,299.014,152.934z
		 M310.844,104.32c-0.25,0-0.376,0.125-0.376,0.375c0,0.5,0.126,0.625,0.376,0.375C312.087,104.82,312.087,104.575,310.844,104.32z
		 M345.378,100.001c-0.375,0.13-1.001,1.283-1.878,3.474c-0.876,2.191-1.717,4.633-2.53,7.324c-0.813,2.691-1.538,5.253-2.154,7.69
		c-0.636,2.44-0.938,4.041-0.938,4.788c0,0.255,0.026,0.692,0.089,1.313c0.063,0.632,0.1,1.068,0.1,1.314
		c1.502-0.751,3.406-1.748,5.723-3c2.315-1.253,4.569-2.691,6.761-4.319c2.183-1.627,4.096-3.35,5.723-5.164
		c1.629-1.811,2.441-3.724,2.441-5.729c0-2.873-0.787-4.877-2.352-6.004c-1.565-1.127-3.847-1.689-6.851-1.689L345.378,100.001
		L345.378,100.001z M371.284,48.193V46.88c0-1.126-0.161-2.41-0.465-3.85c-0.313-1.438-0.976-2.157-1.978-2.157h-10.317
		c-0.501,0-1.252,1.218-2.255,3.66c-1.001,2.439-2.003,5.193-3.005,8.258c-1.001,3.069-1.877,6.007-2.629,8.824
		c-0.751,2.817-1.126,4.538-1.126,5.162c0.751,0,2.19-0.624,4.318-1.878c2.129-1.248,4.382-2.689,6.761-4.317
		c2.369-1.625,4.533-3.19,6.474-4.692c1.941-1.502,3.095-2.564,3.471-3.19c0.125-0.125,0.25-0.687,0.376-1.69
		c0.125-1.001,0.25-1.813,0.375-2.441V48.193z"/>
</g>
</svg>
