<?xml version="1.0" encoding="utf-8"?>
<!-- Generator: Adobe Illustrator 16.0.0, SVG Export Plug-In . SVG Version: 6.00 Build 0)  -->
<!DOCTYPE svg PUBLIC "-//W3C//DTD SVG 1.1//EN" "http://www.w3.org/Graphics/SVG/1.1/DTD/svg11.dtd">
<svg version="1.1" id="Layer_2" xmlns="http://www.w3.org/2000/svg" xmlns:xlink="http://www.w3.org/1999/xlink" x="0px" y="0px"
	 width="197px" height="197px" viewBox="0 0 197 197" enable-background="new 0 0 197 197" xml:space="preserve">
<path fill="#28434A" d="M41.369,58.841c29.583-20.27,64.096-27.94,59.163,17.527c-16.98,44.373-48.753,33.418-48.753,33.418
	s-1.097,10.407-4.93,30.675c-3.288,14.793-12.053,19.721-17.53,6.028c14.79-15.888,25.198-87.648,25.198-87.648
	S44.109,67.056,41.369,58.841z M65.165,51.718c0,0-9.344,42.36-11.743,53.135c0,0,26.843,6.575,37.25-26.566
	C95.216,48.389,87.862,48.978,65.165,51.718z"/>
<path fill="#28434A" d="M107.107,58.841c29.58-20.27,64.093-27.94,59.163,17.527c-16.982,44.373-48.755,33.418-48.755,33.418
	s-1.095,10.407-4.93,30.675c-3.288,14.793-12.053,19.721-17.53,6.028c14.793-15.888,25.2-87.648,25.2-87.648
	S109.848,67.056,107.107,58.841z M130.899,51.718c0,0-9.341,42.36-11.739,53.135c0,0,26.843,6.575,37.25-26.566
	C160.952,48.389,153.598,48.978,130.899,51.718z"/>
<circle fill="none" stroke="#28434A" stroke-width="8" stroke-miterlimit="10" cx="98.5" cy="98.5" r="94.353"/>
</svg>
