<?xml version="1.0" encoding="utf-8"?>
<!-- Generator: Adobe Illustrator 16.0.0, SVG Export Plug-In . SVG Version: 6.00 Build 0)  -->
<!DOCTYPE svg PUBLIC "-//W3C//DTD SVG 1.1//EN" "http://www.w3.org/Graphics/SVG/1.1/DTD/svg11.dtd">
<svg version="1.1" id="Layer_1" xmlns="http://www.w3.org/2000/svg" xmlns:xlink="http://www.w3.org/1999/xlink" x="0px" y="0px"
	 width="400px" height="300px" viewBox="0 -94 400 300" enable-background="new 0 -94 400 300" xml:space="preserve">
<g id="letterT">
	<polygon id="yellow" fill="#FFA203" points="3.05,0 -0.014,3.401 -0.014,26.861 3.544,30 38.98,30 38.856,108.721 42.066,112 
		67.625,112 71.986,109.093 71.986,29.824 107.845,30.194 110.986,26.737 110.986,3.648 106.395,0 	"/>
	<polygon id="black" points="4.038,2 1.986,3.895 1.986,25.873 4.038,28 40.956,28 40.832,108.456 43.054,111 66.638,111 
		68.986,108.105 68.986,28.343 105.839,28.219 108.986,25.256 108.986,5.624 105.408,2 	"/>
	<polygon id="grey" fill="#B4B0AA" points="5.986,5 5.986,25 45.4,25 45.153,107 64.986,107 64.986,23.897 104.986,24.145 
		104.986,5 	"/>
</g>
<g id="letterY">
	<path id="yellow_1_" fill="#FFA203" d="M80.343,43.673c0,0-4.767,3.076-1.803,9.415l18.446,18.305v15.723L99.975,90h13.088
		l1.923-2.967V71.311l19.508-19.354c0,0,1.453-6.955-2.334-7.955h-14.158l-10.865,10.856L96.929,43.74L80.343,43.673z"/>
	<path id="black_1_" d="M107.095,58.018L96.271,46H81.455c0,0-3.787,1.46-1.729,5.742L99.07,70.416l-0.083,15.666L100.716,88h11.359
		l2.911-1.791V70.323l18.958-19.652c0,0,0.191-4.671-3.019-4.671h-12.43L107.095,58.018z"/>
	<polygon id="grey_1_" fill="#B4B0AA" points="82.936,49 95.283,49 107.219,62.005 119.73,49 130.349,49 111.986,68.512 111.986,84 
		102.197,84 102.115,68.229 	"/>
</g>
<g id="letterC">
	<path id="yellow_2_" fill="#FFA203" d="M145.659,44h34.572c0,0,6.754,3.48,7.754,8.79v10.618c0,0-2.963,3.828-4.198,3.457
		c0,0,3.198,1.604,4.198,3.58V82.67c0,0-4.668,7.33-9.236,7.33h-34.572c0,0-7.192-3.009-7.192-8.564V53.037
		C136.986,53.037,138.992,45,145.659,44z M153.986,60v13h15V60H153.986z"/>
	<path id="black_2_" d="M170.986,74.768v-5.433c0,0-0.224-3.701,5.58-2.468c5.803,1.232,8.42,2.589,8.42,4.072v8.273
		c0,0,0.431,7.787-7.718,8.787H145.66c0,0-7.408-0.689-7.161-9.209l-0.006-26.027c0,0,1.735-4.764,6.797-6.764h34.448
		c0,0,5.249,3.58,5.249,7.037v9.383c0,0,0.038,3.087-8.852,3.21c-4.816-0.124-5.148-2.223-5.148-2.593s0-3.581,0-3.581
		l-16.861-0.123l-0.212,15.558L170.986,74.768z"/>
	<path id="grey_2_" fill="#B4B0AA" d="M173.986,56h-24v22h24v-7.677l9,1.976v7.408c0,0-0.779,4.293-6.582,4.293h-29.263
		c0,0-5.155,1.016-5.155-5.898V54.519c0,0-1.019-4.519,5.155-5.519h29.14c0,0,6.706-0.038,6.706,5.766v6.173l-9,1.729L173.986,56
		L173.986,56z"/>
</g>
<g id="letterR">
	<path id="yellow_9_" fill="#FFA203" d="M194.06,44h38.522c0,0,8.402,1.999,8.402,8.172v15.188c0,0,0.492,5.186-4.324,7.531
		l8.023,6.875c0,0,1.604,6.233-2.718,8.233h-16.792l-14.816-13.913L209,76.354l0.247,10.22c0,0-0.247,3.428-4.567,3.428h-10.62
		c0,0-3.074-0.539-3.074-4.737V49.086C190.986,49.086,190.479,45,194.06,44z"/>
	<path id="black_9_" d="M194.554,46h37.042c0,0,6.391,0.122,7.391,6.913v14.446c0,0-1.019,6.384-6.288,6.914l10.376,8.345
		c0,0,1.115,4.382-1.725,5.382h-15.682l-15.145-13.531l-3.539,0.176v10.496c0,0,0.287,2.86-1.566,2.86h-10.865
		c0,0-1.568-0.269-1.568-2.737V49.086C192.986,49.086,192.826,46,194.554,46z M207.986,58v4h17v-4H207.986z"/>
	<path id="grey_9_" fill="#B4B0AA" d="M195.986,49h35.116c0,0,4.885,1.403,4.885,5.683v10.701c0,0,0.877,6.616-5.709,6.616H223.2
		l17.12,12h-13.17l-14.816-12.848l-7.902-0.002l-0.188,13.418l-8.256,0.078L195.986,49L195.986,49z M203.986,55v10h20.695
		c0,0,4.073,1.057,3.703-4.253l0.024-3.491c0,0,0.222-2.256-4.347-2.256H203.986z"/>
</g>
<g id="letterE">
	<path id="yellow_4_" fill="#FFA203" d="M249.869,44h41.98c0,0,2.137,1.135,2.137,3.604v9.384c0,0-0.162,3.012-2.631,4.012h-9.385
		c0,0,2.016-0.186,2.016,1.791v8.52c0,0-1.15,1.689-2.51,1.689h11.359c0,0,3.087,0.514,2.963,5.33l0.004,7.355
		c0,0-0.004,4.727-5.436,4.356c-5.434-0.37,0-0.353,0-0.353l-38.848,0.379c0,0-3.535,0.38-3.535-5.424V48.591
		C247.986,48.591,246.783,45,249.869,44z"/>
	<path id="black_4_" d="M250.363,46h40.992c0,0,1.631,0.369,1.631,3.086V56c0,0,0.222,3-2.618,3h-26.177l-0.246,1h15.557
		c0,0,1.854,0.348,1.854,2.568l0.123,7.644c0,0-0.74,2.401-3.457,2.277l-13.951-0.036L263.945,75h27.904
		c0,0,1.137,0.755,1.137,3.348v6.791c0,0,0.222,2.861-2.618,2.861h-38.522c0,0-3.705,1.039-3.457-4.766l-0.012-33.742
		C248.376,49.493,248.264,46,250.363,46z"/>
	<polygon id="grey_4_" fill="#B4B0AA" points="251.986,49 289.986,49 289.986,56 259.986,56 259.986,63 278.986,63 278.986,71 
		260.734,71 260.857,79 289.986,79 289.986,84 251.986,84 	"/>
</g>
<g id="_x32_ndletterT">
	<path id="yellow_7_" fill="#FFA203" d="M299.257,44h45.931c0,0,4.799,0.639,4.799,4.179v8.809c0,0-0.228,3.621-4.099,3.537
		l-12.901,0.002v25.6c0,0-1.297,2.873-4.671,3.873h-11.772c0,0-3.127-0.457-3.292-4.572l-0.082-25.004l-14.065,0.094
		c0,0-3.117,0.174-3.117-6.906v-6.008C295.986,47.604,296.293,45,299.257,44z"/>
	<path id="black_7_" d="M300.246,46h43.955c0,0,3.785,0.04,3.785,3.662v6.832c0,0-0.493,1.506-3.785,1.506h-14.322l0.165,26.82
		c0,0,0.492,3.375-3.293,3.229l-9.384,0.063c0,0-2.059-0.037-2.059-3.495l-0.411-25.998l-15.458-0.075c0,0-3.453-0.075-2.453-5.343
		v-5.103C296.986,48.098,297.693,46,300.246,46z"/>
	<polygon id="grey_7_" fill="#B4B0AA" points="301.986,49 301.986,56 317.986,56 317.986,84 326.986,84 326.986,56 343.986,55.835 
		343.986,49 	"/>
</g>
<g id="_x32_ndletterE">
	<path id="yellow_3_" fill="#FFA203" d="M354.08,44h41.979c0,0,2.929,1.135,2.929,3.604v9.384c0,0-0.952,3.012-3.421,4.012h-9.384
		c0,0,0.805-0.186,0.805,1.791v8.52c0,0,0.061,1.689-1.298,1.689h11.357c0,0,3.087,0.514,2.964,5.33l0.003,7.355
		c0,0-0.003,4.727-5.437,4.356c-5.433-0.37,0-0.353,0-0.353l-39.452,0.379c0,0-3.139,0.38-4.139-5.424V48.591
		C350.986,48.591,350.992,45,354.08,44z"/>
	<path id="black_3_" d="M354.572,46h40.993c0,0,2.421,0.369,2.421,3.086V56c0,0-0.569,3-3.409,3h-26.175l-0.247,1h15.558
		c0,0,1.853,0.348,1.853,2.568l0.124,7.644c0,0-0.742,2.401-3.457,2.277l-13.953-0.036L368.155,75h27.902
		c0,0,1.929,0.755,1.929,3.348v6.791c0,0-0.569,2.861-3.409,2.861h-38.522c0,0-3.704,1.039-3.457-4.766l-0.012-33.742
		C352.585,49.493,352.473,46,354.572,46z"/>
	<polygon id="grey_3_" fill="#B4B0AA" points="354.986,49 394.986,49 394.986,56 364.986,56 364.986,63 381.986,63 381.986,71 
		364.945,71 365.068,79 394.986,79 394.986,84 354.986,84 	"/>
</g>
<g id="construction">
	<path id="word" d="M159.986,103.413V102h-11v7h11v-2.624l3.085,1.385c0,0,0.738,2.238-2.472,3.238H149.61
		c0,0-2.469,0.034-2.346-2.931l-0.004-6.381c0,0,0.375-1.688,2.104-1.688h11.606c0,0,2.76-0.269,2.245,3.063L159.986,103.413z
		 M315.025,103.064c0.515-3.334-2.434-3.064-2.434-3.064h-11.605c-1.729,0-2.104,1.645-2.104,1.645l0.005,6.562
		c-0.123,2.963,2.348,2.795,2.348,2.795h10.986c3.21-1,2.66-3.237,2.66-3.237l-2.896-1.386V109h-10.001v-7h10.001v1.413
		L315.025,103.064z M191.986,100v11h3v-8.081L206.407,111h2.579v-11h-3.073l0.063,7.348L194.43,100H191.986z M217.23,107.441
		l-2.635,0.791c0,0-0.102,1.768,2.985,2.768h11.05c0,0,2.656-0.089,2.531-3.238l0.004-2.267c0,0,0.004-1.875-3.518-1.751
		l-9.664-0.028V102h10v0.425l2.606-0.349c0,0,0.447-2.077-3.071-2.077h-9.754c0,0-1.781-0.539-1.781,1.931v2.469
		c0,0-0.461,2.601,1.988,2.601h10.164l-0.186,2h-9.692C218.26,109,217.25,108.676,217.23,107.441z M234.986,100v2h7v9h4v-9.563
		l6-0.063V100H234.986z M317.986,100v2h7v9h3v-9.563l8-0.063V100H317.986z M277.986,107.611c0,3.457,1.516,3.389,1.516,3.389h11.605
		c2.595,0,1.879-3.143,1.879-3.143V100h-3v9h-9v-9h-3V107.611L277.986,107.611z M340.986,111h2v-11h-2V111z M372.986,100v10h3
		v-7.081l11.76,8.081h2.24v-11h-3v6.87L375.315,100H372.986z M168.065,101.645l0.004,6.313c-0.123,3.087,2.285,3.042,2.285,3.042
		h13.829c2.284,0,0.803-2.648,0.803-2.648v-5.987c0-2.841-0.803-2.364-0.803-2.364h-13.829
		C167.946,100,168.065,101.645,168.065,101.645z M182.986,102v6h-11v-6H182.986z M348.827,101.645l0.005,6.313
		c-0.124,3.087,2.284,3.042,2.284,3.042h13.829c2.282,0,2.041-2.648,2.041-2.648v-5.987c0-2.841-2.041-2.364-2.041-2.364h-13.829
		C348.708,100,348.827,101.645,348.827,101.645z M363.986,102v6h-12v-6H363.986z M255.986,100v11h3v-4h3.724l5.495,4h4.878
		l-6.606-4.534c0,0,5.373,0.882,5.373-2.514l-0.002-2.655c0,0,0.247-1.297-2.654-1.297H255.986z M267.896,102c2.5,1,0.246,4,0.246,4
		h-9.156v-4H267.896z"/>
</g>
</svg>
