<?xml version="1.0" encoding="utf-8"?>
<!-- Generator: Adobe Illustrator 16.0.0, SVG Export Plug-In . SVG Version: 6.00 Build 0)  -->
<!DOCTYPE svg PUBLIC "-//W3C//DTD SVG 1.1//EN" "http://www.w3.org/Graphics/SVG/1.1/DTD/svg11.dtd">
<svg version="1.1" id="Layer_1" xmlns="http://www.w3.org/2000/svg" xmlns:xlink="http://www.w3.org/1999/xlink" x="0px" y="0px"
	 width="126px" height="79px" viewBox="0 0 126 79" enable-background="new 0 0 126 79" xml:space="preserve">
<path fill="#A91F23" d="M1.292,77.838v-39.36l24.936,39.36H1.292z M1.292,26.979V1.162H35.86l23.03,36.67L33.465,77.682
	L1.292,26.979z"/>
<polygon opacity="0.65" fill="#A91F23" points="59.376,33.14 79.513,1.329 102.492,1.329 102.492,77.686 59.376,77.686 "/>
<path fill="#A91F23" d="M79.526,77.686V1.329h21.551c4.381,0,7.845,0.404,10.39,1.211c2.544,0.806,4.88,2.227,7.006,4.261
	c1.933,1.839,3.399,3.953,4.397,6.342c1.031,2.518,1.547,5.084,1.547,7.699c0,5.843-2.077,10.539-6.234,14.09
	c-1.192,1.065-2.351,1.888-3.479,2.47c-0.998,0.548-2.834,1.258-5.508,2.13v0.194c2.287,0.774,4.091,1.5,5.412,2.179
	c1.191,0.612,2.383,1.468,3.575,2.565c4.349,3.874,6.524,8.765,6.524,14.672c0,2.549-0.5,4.922-1.499,7.117
	c-1,2.259-2.383,4.245-4.156,5.955c-1.835,1.809-3.849,3.148-6.04,4.019c-2.255,0.968-4.687,1.453-7.297,1.453H79.526z"/>
</svg>
