<?xml version="1.0" encoding="utf-8"?>
<!-- Generator: Adobe Illustrator 16.0.0, SVG Export Plug-In . SVG Version: 6.00 Build 0)  -->
<!DOCTYPE svg PUBLIC "-//W3C//DTD SVG 1.1//EN" "http://www.w3.org/Graphics/SVG/1.1/DTD/svg11.dtd">
<svg version="1.1" id="Layer_1" xmlns="http://www.w3.org/2000/svg" xmlns:xlink="http://www.w3.org/1999/xlink" x="0px" y="0px"
	 width="252px" height="144px" viewBox="0 0 252 144" enable-background="new 0 0 252 144" xml:space="preserve">
<g id="colours">
	<path fill="#EBEBEB" d="M0,144h252V0C252,0,247,136,0,144z"/>
</g>
<g id="logo">
	<path fill="#A81F23" d="M2.584,63.196V31.861l19.681,31.334L2.584,63.196L2.584,63.196z M2.584,22.708V2.155h27.283l18.176,29.193
		L27.976,63.072L2.584,22.708z"/>
	<polygon opacity="0.65" fill="#A81F23" enable-background="new    " points="48.667,27.393 64.643,2.155 82.875,2.155 
		82.875,62.735 48.667,62.735 	"/>
	<path fill="#A81F23" d="M64.654,62.735V2.155h17.098c3.476,0,6.224,0.321,8.243,0.961c2.018,0.639,3.872,1.766,5.559,3.38
		c1.533,1.459,2.696,3.137,3.488,5.032c0.818,1.997,1.227,4.034,1.227,6.108c0,4.635-1.648,8.361-4.946,11.179
		c-0.945,0.845-1.865,1.498-2.76,1.959c-0.792,0.435-2.249,0.998-4.37,1.69v0.154c1.814,0.614,3.246,1.19,4.294,1.729
		c0.945,0.486,1.89,1.165,2.835,2.035c3.451,3.073,5.177,6.954,5.177,11.64c0,2.022-0.397,3.905-1.189,5.646
		c-0.792,1.792-1.891,3.368-3.297,4.725c-1.456,1.435-3.054,2.498-4.792,3.189c-1.789,0.768-3.718,1.152-5.79,1.152L64.654,62.735
		L64.654,62.735z"/>
</g>
<g id="information">
	<g>
		<path fill="#AA1111" d="M3.46,89.768c0-0.6-0.012-1.092-0.048-1.57h0.923l0.048,0.936h0.036c0.324-0.552,0.864-1.066,1.823-1.066
			c0.792,0,1.391,0.479,1.643,1.162H7.91c0.18-0.323,0.408-0.574,0.647-0.756c0.348-0.264,0.731-0.406,1.283-0.406
			c0.768,0,1.907,0.504,1.907,2.519v3.418h-1.032v-3.286c0-1.115-0.408-1.787-1.259-1.787c-0.6,0-1.067,0.443-1.247,0.961
			c-0.048,0.144-0.084,0.334-0.084,0.526v3.586H7.094v-3.479c0-0.922-0.408-1.595-1.211-1.595c-0.66,0-1.14,0.527-1.308,1.056
			c-0.06,0.156-0.084,0.336-0.084,0.517v3.502H3.46V89.768z"/>
		<path fill="#AA1111" d="M14.643,86.564c0.012,0.359-0.252,0.647-0.671,0.647c-0.372,0-0.636-0.288-0.636-0.647
			c0-0.371,0.276-0.659,0.66-0.659C14.391,85.905,14.643,86.193,14.643,86.564z M13.468,94.001v-5.806h1.056v5.806H13.468z"/>
		<path fill="#AA1111" d="M20.414,93.785c-0.276,0.145-0.887,0.336-1.667,0.336c-1.751,0-2.891-1.188-2.891-2.963
			c0-1.787,1.224-3.082,3.119-3.082c0.624,0,1.175,0.156,1.463,0.3l-0.24,0.815c-0.252-0.145-0.647-0.275-1.223-0.275
			c-1.332,0-2.051,0.982-2.051,2.193c0,1.345,0.864,2.172,2.015,2.172c0.6,0,0.996-0.156,1.295-0.288L20.414,93.785z"/>
		<path fill="#AA1111" d="M21.652,85.484h1.056v3.623h0.024c0.168-0.301,0.432-0.563,0.755-0.743c0.312-0.181,0.684-0.3,1.08-0.3
			c0.779,0,2.027,0.479,2.027,2.481V94h-1.056v-3.334c0-0.936-0.348-1.729-1.343-1.729c-0.684,0-1.223,0.48-1.415,1.057
			c-0.06,0.145-0.072,0.3-0.072,0.504V94h-1.056V85.484z"/>
		<path fill="#AA1111" d="M28.9,91.29c0.024,1.428,0.935,2.017,1.991,2.017c0.755,0,1.211-0.133,1.607-0.301l0.18,0.755
			c-0.372,0.169-1.007,0.36-1.931,0.36c-1.787,0-2.854-1.176-2.854-2.928c0-1.75,1.032-3.129,2.723-3.129
			c1.895,0,2.399,1.666,2.399,2.733c0,0.216-0.024,0.384-0.036,0.491L28.9,91.29L28.9,91.29z M31.994,90.535
			c0.012-0.672-0.276-1.715-1.463-1.715c-1.067,0-1.535,0.982-1.619,1.715H31.994z"/>
		<path fill="#AA1111" d="M34.324,85.484h1.056v8.517h-1.056V85.484z"/>
		<path fill="#AA1111" d="M37.192,86.025c0.456-0.096,1.175-0.168,1.907-0.168c1.043,0,1.715,0.18,2.219,0.588
			c0.42,0.312,0.672,0.791,0.672,1.427c0,0.78-0.516,1.464-1.367,1.774v0.023c0.768,0.191,1.667,0.828,1.667,2.027
			c0,0.695-0.276,1.224-0.684,1.619c-0.564,0.516-1.475,0.756-2.794,0.756c-0.72,0-1.271-0.049-1.619-0.098L37.192,86.025
			L37.192,86.025z M38.235,89.336h0.947c1.104,0,1.751-0.576,1.751-1.355c0-0.946-0.72-1.318-1.775-1.318
			c-0.48,0-0.755,0.036-0.923,0.072V89.336z M38.235,93.209c0.204,0.036,0.503,0.049,0.875,0.049c1.079,0,2.075-0.396,2.075-1.57
			c0-1.104-0.947-1.561-2.087-1.561h-0.863V93.209z"/>
		<path fill="#AA1111" d="M44.295,91.29c0.024,1.428,0.935,2.017,1.991,2.017c0.755,0,1.211-0.133,1.607-0.301l0.18,0.755
			c-0.372,0.169-1.007,0.36-1.931,0.36c-1.787,0-2.854-1.176-2.854-2.928c0-1.75,1.032-3.129,2.723-3.129
			c1.895,0,2.399,1.666,2.399,2.733c0,0.216-0.024,0.384-0.036,0.491L44.295,91.29L44.295,91.29z M47.39,90.535
			c0.012-0.672-0.276-1.715-1.463-1.715c-1.067,0-1.535,0.982-1.619,1.715H47.39z"/>
		<path fill="#AA1111" d="M52.934,94.001L52.85,93.27h-0.036c-0.324,0.457-0.947,0.863-1.775,0.863
			c-1.175,0-1.775-0.826-1.775-1.667c0-1.403,1.247-2.171,3.49-2.159v-0.119c0-0.479-0.132-1.344-1.319-1.344
			c-0.54,0-1.104,0.168-1.511,0.432l-0.24-0.694c0.48-0.312,1.175-0.517,1.907-0.517c1.775,0,2.207,1.211,2.207,2.375v2.17
			c0,0.505,0.024,0.996,0.096,1.393L52.934,94.001L52.934,94.001z M52.777,91.039c-1.151-0.023-2.458,0.18-2.458,1.307
			c0,0.685,0.456,1.008,0.996,1.008c0.755,0,1.235-0.479,1.403-0.972c0.036-0.108,0.06-0.228,0.06-0.336L52.777,91.039
			L52.777,91.039z"/>
		<path fill="#AA1111" d="M60.361,92.418c0,0.6,0.012,1.127,0.048,1.583h-0.936l-0.06-0.946h-0.024
			c-0.276,0.467-0.887,1.078-1.919,1.078c-0.911,0-2.003-0.504-2.003-2.543v-3.395h1.056v3.215c0,1.104,0.336,1.848,1.295,1.848
			c0.708,0,1.199-0.492,1.391-0.96c0.06-0.155,0.096-0.348,0.096-0.54v-3.563h1.056V92.418z"/>
		<path fill="#AA1111" d="M62.067,94.001c0.024-0.396,0.048-0.983,0.048-1.499v-7.018h1.043v3.646h0.024
			c0.372-0.646,1.043-1.066,1.979-1.066c1.439,0,2.458,1.199,2.447,2.961c0,2.076-1.308,3.106-2.603,3.106
			c-0.84,0-1.511-0.323-1.943-1.092h-0.036L62.978,94L62.067,94.001L62.067,94.001z M63.159,91.674c0,0.133,0.024,0.266,0.048,0.385
			c0.204,0.731,0.816,1.234,1.583,1.234c1.103,0,1.763-0.898,1.763-2.23c0-1.162-0.6-2.158-1.727-2.158
			c-0.72,0-1.391,0.492-1.607,1.296c-0.024,0.12-0.06,0.264-0.06,0.432V91.674z"/>
		<path fill="#AA1111" d="M70.118,86.564c0.012,0.359-0.252,0.647-0.671,0.647c-0.372,0-0.636-0.288-0.636-0.647
			c0-0.371,0.276-0.659,0.66-0.659C69.866,85.905,70.118,86.193,70.118,86.564z M68.943,94.001v-5.806h1.056v5.806H68.943z"/>
		<path fill="#AA1111" d="M72.339,91.29c0.024,1.428,0.936,2.017,1.991,2.017c0.755,0,1.211-0.133,1.607-0.301l0.18,0.755
			c-0.372,0.169-1.007,0.36-1.931,0.36c-1.787,0-2.854-1.176-2.854-2.928c0-1.75,1.032-3.129,2.723-3.129
			c1.895,0,2.399,1.666,2.399,2.733c0,0.216-0.024,0.384-0.036,0.491L72.339,91.29L72.339,91.29z M75.433,90.535
			c0.012-0.672-0.276-1.715-1.463-1.715c-1.067,0-1.535,0.982-1.619,1.715H75.433z"/>
		<path fill="#AA1111" d="M77.763,89.768c0-0.6-0.012-1.092-0.048-1.57h0.936l0.06,0.959h0.024c0.288-0.553,0.959-1.092,1.919-1.092
			c0.803,0,2.051,0.479,2.051,2.472v3.466h-1.056v-3.346c0-0.937-0.348-1.717-1.343-1.717c-0.695,0-1.235,0.492-1.415,1.08
			c-0.048,0.133-0.072,0.313-0.072,0.491v3.49h-1.056V89.768z"/>
		<path fill="#AA1111" d="M89.832,94.77c-0.66,0.348-1.332,0.479-2.135,0.479c-1.967,0-3.634-1.439-3.634-3.742
			c0-2.47,1.715-4.605,4.377-4.605c2.087,0,3.49,1.465,3.49,3.468c0,1.799-1.007,2.854-2.135,2.854
			c-0.479,0-0.923-0.324-0.888-1.057H88.86c-0.42,0.708-0.971,1.057-1.691,1.057c-0.696,0-1.295-0.563-1.295-1.513
			c0-1.487,1.175-2.842,2.842-2.842c0.516,0,0.972,0.106,1.284,0.252l-0.408,2.17c-0.18,0.912-0.036,1.332,0.36,1.344
			c0.612,0.013,1.295-0.804,1.295-2.194c0-1.738-1.043-2.986-2.902-2.986c-1.955,0-3.598,1.548-3.598,3.982
			c0,2.002,1.308,3.237,3.083,3.237c0.684,0,1.319-0.146,1.811-0.42L89.832,94.77z M89.172,89.588
			c-0.12-0.036-0.324-0.084-0.6-0.084c-1.056,0-1.907,0.995-1.907,2.158c0,0.527,0.264,0.912,0.792,0.912
			c0.696,0,1.332-0.889,1.463-1.633L89.172,89.588z"/>
		<path fill="#AA1111" d="M93.267,85.484h1.056v3.623h0.024c0.168-0.301,0.432-0.563,0.755-0.743c0.312-0.181,0.684-0.3,1.08-0.3
			c0.779,0,2.027,0.479,2.027,2.481V94h-1.056v-3.334c0-0.936-0.348-1.729-1.343-1.729c-0.684,0-1.223,0.48-1.415,1.057
			c-0.06,0.145-0.072,0.3-0.072,0.504V94h-1.056V85.484z"/>
		<path fill="#AA1111" d="M105.18,91.051c0,2.146-1.487,3.082-2.89,3.082c-1.571,0-2.783-1.15-2.783-2.986
			c0-1.942,1.271-3.082,2.878-3.082C104.053,88.064,105.18,89.275,105.18,91.051z M100.574,91.109c0,1.271,0.732,2.231,1.763,2.231
			c1.007,0,1.763-0.948,1.763-2.255c0-0.982-0.492-2.23-1.739-2.23S100.574,90.007,100.574,91.109z"/>
		<path fill="#AA1111" d="M107.786,86.529v1.666h1.511V89h-1.511v3.13c0,0.72,0.204,1.128,0.792,1.128
			c0.276,0,0.479-0.035,0.612-0.072l0.048,0.791c-0.204,0.084-0.528,0.146-0.936,0.146c-0.492,0-0.888-0.156-1.14-0.444
			c-0.3-0.312-0.408-0.826-0.408-1.511V89h-0.899v-0.805h0.899v-1.391L107.786,86.529z"/>
		<path fill="#AA1111" d="M110.487,89.768c0-0.6-0.012-1.092-0.048-1.57h0.923l0.048,0.936h0.036
			c0.324-0.552,0.864-1.066,1.823-1.066c0.792,0,1.391,0.479,1.643,1.162h0.024c0.18-0.323,0.407-0.574,0.647-0.756
			c0.348-0.264,0.731-0.406,1.283-0.406c0.768,0,1.907,0.504,1.907,2.519v3.418h-1.031v-3.286c0-1.115-0.408-1.787-1.26-1.787
			c-0.6,0-1.067,0.443-1.247,0.961c-0.048,0.144-0.084,0.334-0.084,0.526v3.586h-1.031v-3.479c0-0.922-0.408-1.595-1.211-1.595
			c-0.66,0-1.14,0.527-1.308,1.056c-0.06,0.156-0.084,0.336-0.084,0.517v3.502h-1.031L110.487,89.768L110.487,89.768z"/>
		<path fill="#AA1111" d="M123.709,94.001l-0.084-0.731h-0.036c-0.324,0.457-0.947,0.863-1.775,0.863
			c-1.175,0-1.774-0.826-1.774-1.667c0-1.403,1.247-2.171,3.49-2.159v-0.119c0-0.479-0.132-1.344-1.319-1.344
			c-0.54,0-1.104,0.168-1.512,0.432l-0.239-0.694c0.479-0.312,1.175-0.517,1.906-0.517c1.775,0,2.207,1.211,2.207,2.375v2.17
			c0,0.505,0.024,0.996,0.096,1.393L123.709,94.001L123.709,94.001z M123.553,91.039c-1.151-0.023-2.458,0.18-2.458,1.307
			c0,0.685,0.455,1.008,0.995,1.008c0.756,0,1.235-0.479,1.403-0.972c0.036-0.108,0.06-0.228,0.06-0.336V91.039z"/>
		<path fill="#AA1111" d="M127.454,86.564c0.012,0.359-0.252,0.647-0.672,0.647c-0.371,0-0.636-0.288-0.636-0.647
			c0-0.371,0.276-0.659,0.661-0.659C127.202,85.905,127.454,86.193,127.454,86.564z M126.279,94.001v-5.806h1.055v5.806H126.279z"/>
		<path fill="#AA1111" d="M129.087,85.484h1.056v8.517h-1.056V85.484z"/>
		<path fill="#AA1111" d="M131.547,93.377c0-0.443,0.301-0.755,0.721-0.755c0.418,0,0.707,0.312,0.707,0.755
			c0,0.432-0.275,0.756-0.721,0.756C131.834,94.133,131.547,93.809,131.547,93.377z"/>
		<path fill="#AA1111" d="M138.421,93.785c-0.276,0.145-0.888,0.336-1.668,0.336c-1.751,0-2.89-1.188-2.89-2.963
			c0-1.787,1.223-3.082,3.117-3.082c0.623,0,1.176,0.156,1.463,0.3l-0.239,0.815c-0.251-0.145-0.647-0.275-1.224-0.275
			c-1.33,0-2.051,0.982-2.051,2.193c0,1.345,0.863,2.172,2.016,2.172c0.6,0,0.994-0.156,1.295-0.288L138.421,93.785z"/>
		<path fill="#AA1111" d="M144.84,91.051c0,2.146-1.486,3.082-2.891,3.082c-1.571,0-2.782-1.15-2.782-2.986
			c0-1.942,1.271-3.082,2.878-3.082C143.712,88.064,144.84,89.275,144.84,91.051z M140.234,91.109c0,1.271,0.73,2.231,1.763,2.231
			c1.008,0,1.763-0.948,1.763-2.255c0-0.982-0.49-2.23-1.738-2.23S140.234,90.007,140.234,91.109z"/>
		<path fill="#AA1111" d="M146.175,89.768c0-0.6-0.013-1.092-0.049-1.57h0.924l0.048,0.936h0.036
			c0.324-0.552,0.863-1.066,1.823-1.066c0.791,0,1.391,0.479,1.643,1.162h0.024c0.181-0.323,0.407-0.574,0.647-0.756
			c0.348-0.264,0.73-0.406,1.283-0.406c0.768,0,1.906,0.504,1.906,2.519v3.418h-1.031v-3.286c0-1.115-0.408-1.787-1.26-1.787
			c-0.6,0-1.066,0.443-1.247,0.961c-0.048,0.144-0.084,0.334-0.084,0.526v3.586h-1.03v-3.479c0-0.922-0.408-1.595-1.213-1.595
			c-0.658,0-1.139,0.527-1.307,1.056c-0.061,0.156-0.084,0.336-0.084,0.517v3.502h-1.031L146.175,89.768L146.175,89.768z"/>
		<path opacity="0.7" fill="#AA1111" enable-background="new    " d="M3.496,102.014c0.503-0.084,1.163-0.156,2.003-0.156
			c1.031,0,1.787,0.24,2.267,0.672c0.444,0.385,0.708,0.973,0.708,1.691c0,0.731-0.216,1.307-0.624,1.728
			c-0.552,0.588-1.451,0.888-2.471,0.888c-0.312,0-0.6-0.013-0.839-0.072v3.238H3.496V102.014z M4.54,105.911
			c0.228,0.06,0.516,0.084,0.863,0.084c1.259,0,2.027-0.611,2.027-1.728c0-1.066-0.755-1.584-1.907-1.584
			c-0.456,0-0.804,0.037-0.983,0.084V105.911z"/>
		<path opacity="0.7" fill="#AA1111" enable-background="new    " d="M9.784,101.484h1.056v3.623h0.024
			c0.168-0.301,0.432-0.563,0.755-0.743c0.312-0.181,0.684-0.3,1.08-0.3c0.779,0,2.027,0.479,2.027,2.481V110H13.67v-3.334
			c0-0.936-0.348-1.729-1.343-1.729c-0.684,0-1.223,0.48-1.415,1.057c-0.06,0.145-0.072,0.3-0.072,0.504V110H9.784V101.484z"/>
		<path opacity="0.7" fill="#AA1111" enable-background="new    " d="M21.697,107.051c0,2.146-1.487,3.082-2.89,3.082
			c-1.571,0-2.783-1.15-2.783-2.986c0-1.942,1.271-3.082,2.878-3.082C20.57,104.064,21.697,105.275,21.697,107.051z M17.091,107.109
			c0,1.271,0.732,2.231,1.763,2.231c1.007,0,1.763-0.948,1.763-2.255c0-0.982-0.492-2.23-1.739-2.23S17.091,106.007,17.091,107.109z
			"/>
		<path opacity="0.7" fill="#AA1111" enable-background="new    " d="M23.032,105.768c0-0.6-0.012-1.092-0.048-1.57h0.936
			l0.06,0.959h0.024c0.288-0.553,0.959-1.092,1.919-1.092c0.803,0,2.051,0.479,2.051,2.472v3.466h-1.056v-3.346
			c0-0.936-0.348-1.717-1.343-1.717c-0.695,0-1.235,0.492-1.415,1.08c-0.048,0.133-0.072,0.313-0.072,0.491v3.49h-1.056V105.768z"/>
		<path opacity="0.7" fill="#AA1111" enable-background="new    " d="M30.28,107.29c0.024,1.428,0.935,2.017,1.991,2.017
			c0.755,0,1.211-0.133,1.607-0.301l0.18,0.755c-0.372,0.169-1.007,0.36-1.931,0.36c-1.787,0-2.854-1.176-2.854-2.928
			c0-1.75,1.032-3.129,2.723-3.129c1.895,0,2.399,1.666,2.399,2.733c0,0.216-0.024,0.384-0.036,0.491L30.28,107.29L30.28,107.29z
			 M33.374,106.535c0.012-0.672-0.276-1.715-1.463-1.715c-1.067,0-1.535,0.982-1.619,1.715H33.374z"/>
		<path opacity="0.7" fill="#AA1111" enable-background="new    " d="M35.452,105.154c0-0.442,0.3-0.754,0.72-0.754
			s0.696,0.312,0.708,0.754c0,0.421-0.276,0.744-0.72,0.744C35.74,105.898,35.452,105.575,35.452,105.154z M35.452,109.391
			c0-0.445,0.3-0.757,0.72-0.757s0.696,0.312,0.708,0.757c0,0.418-0.276,0.742-0.72,0.742
			C35.74,110.133,35.452,109.809,35.452,109.391z"/>
		<path opacity="0.7" fill="#AA1111" enable-background="new    " d="M43.022,101.678c-0.876,1.176-1.511,2.734-1.511,4.905
			c0,2.135,0.66,3.67,1.511,4.869h-0.828c-0.756-0.995-1.571-2.53-1.571-4.869c0.012-2.362,0.815-3.897,1.571-4.905H43.022z"/>
		<path opacity="0.7" fill="#AA1111" enable-background="new    " d="M43.803,110.001v-0.647l0.828-0.804
			c1.991-1.896,2.891-2.901,2.902-4.077c0-0.791-0.384-1.522-1.547-1.522c-0.708,0-1.295,0.358-1.655,0.659l-0.336-0.743
			c0.54-0.456,1.308-0.792,2.207-0.792c1.679,0,2.387,1.15,2.387,2.267c0,1.438-1.043,2.603-2.687,4.187l-0.624,0.576v0.022h3.502
			v0.876L43.803,110.001L43.803,110.001z"/>
		<path opacity="0.7" fill="#AA1111" enable-background="new    " d="M49.959,110.001v-0.647l0.828-0.804
			c1.991-1.896,2.891-2.901,2.902-4.077c0-0.791-0.384-1.522-1.547-1.522c-0.708,0-1.295,0.358-1.655,0.659l-0.336-0.743
			c0.54-0.456,1.308-0.792,2.207-0.792c1.679,0,2.387,1.15,2.387,2.267c0,1.438-1.043,2.603-2.687,4.187l-0.624,0.576v0.022h3.502
			v0.876L49.959,110.001L49.959,110.001z"/>
		<path opacity="0.7" fill="#AA1111" enable-background="new    " d="M60.565,102.949c-0.216-0.014-0.492,0-0.792,0.048
			c-1.655,0.274-2.531,1.487-2.71,2.771h0.036c0.372-0.492,1.02-0.898,1.883-0.898c1.379,0,2.351,0.994,2.351,2.52
			c0,1.426-0.972,2.745-2.59,2.745c-1.667,0-2.759-1.295-2.759-3.321c0-1.535,0.552-2.746,1.319-3.515
			c0.647-0.636,1.511-1.03,2.495-1.151c0.312-0.047,0.576-0.061,0.768-0.061L60.565,102.949L60.565,102.949z M60.265,107.445
			c0-1.114-0.636-1.786-1.607-1.786c-0.636,0-1.224,0.396-1.511,0.96c-0.072,0.119-0.12,0.275-0.12,0.468
			c0.024,1.283,0.612,2.229,1.715,2.229C59.653,109.316,60.265,108.563,60.265,107.445z"/>
		<path opacity="0.7" fill="#AA1111" enable-background="new    " d="M61.971,111.452c0.852-1.188,1.511-2.746,1.511-4.905
			c0-2.146-0.647-3.682-1.511-4.869h0.816c0.768,0.983,1.571,2.52,1.571,4.881c0,2.352-0.803,3.875-1.571,4.895L61.971,111.452
			L61.971,111.452z"/>
		<path opacity="0.7" fill="#AA1111" enable-background="new    " d="M68.475,108.79c0.3,0.19,0.996,0.491,1.727,0.491
			c1.355,0,1.775-0.863,1.763-1.512c-0.012-1.092-0.996-1.56-2.015-1.56h-0.587v-0.791h0.587c0.768,0,1.739-0.396,1.739-1.319
			c0-0.623-0.396-1.176-1.367-1.176c-0.624,0-1.224,0.276-1.559,0.516l-0.276-0.768c0.408-0.3,1.199-0.6,2.039-0.6
			c1.535,0,2.231,0.91,2.231,1.859c0,0.803-0.48,1.486-1.439,1.834v0.023c0.959,0.191,1.739,0.912,1.739,2.003
			c0,1.247-0.972,2.339-2.842,2.339c-0.875,0-1.643-0.275-2.027-0.527L68.475,108.79z"/>
		<path opacity="0.7" fill="#AA1111" enable-background="new    " d="M79.44,102.205v0.695l-3.394,7.101h-1.092l3.382-6.896v-0.023
			h-3.814v-0.876L79.44,102.205L79.44,102.205z"/>
		<path opacity="0.7" fill="#AA1111" enable-background="new    " d="M84.984,102.949c-0.216-0.014-0.492,0-0.792,0.048
			c-1.655,0.274-2.531,1.487-2.71,2.771h0.036c0.372-0.492,1.02-0.898,1.883-0.898c1.379,0,2.351,0.994,2.351,2.52
			c0,1.426-0.972,2.745-2.591,2.745c-1.667,0-2.758-1.295-2.758-3.321c0-1.535,0.552-2.746,1.319-3.515
			c0.647-0.636,1.511-1.03,2.495-1.151c0.312-0.047,0.576-0.061,0.768-0.061L84.984,102.949L84.984,102.949z M84.685,107.445
			c0-1.114-0.636-1.786-1.607-1.786c-0.636,0-1.224,0.396-1.511,0.96c-0.072,0.119-0.12,0.275-0.12,0.468
			c0.024,1.283,0.612,2.229,1.715,2.229C84.073,109.316,84.685,108.563,84.685,107.445z"/>
		<path opacity="0.7" fill="#AA1111" enable-background="new    " d="M92.496,110.001v-2.123h-3.622v-0.694l3.479-4.979h1.139v4.846
			h1.091v0.827h-1.091v2.123H92.496z M92.496,107.051v-2.603c0-0.408,0.012-0.815,0.036-1.224h-0.036
			c-0.24,0.455-0.432,0.791-0.647,1.15l-1.907,2.65v0.023h2.554V107.051z"/>
		<path opacity="0.7" fill="#AA1111" enable-background="new    " d="M99.84,102.949c-0.216-0.014-0.492,0-0.792,0.048
			c-1.655,0.274-2.531,1.487-2.71,2.771h0.036c0.372-0.492,1.02-0.898,1.883-0.898c1.379,0,2.351,0.994,2.351,2.52
			c0,1.426-0.972,2.745-2.591,2.745c-1.667,0-2.758-1.295-2.758-3.321c0-1.535,0.552-2.746,1.319-3.515
			c0.647-0.636,1.511-1.03,2.495-1.151c0.312-0.047,0.576-0.061,0.768-0.061L99.84,102.949L99.84,102.949z M99.54,107.445
			c0-1.114-0.636-1.786-1.607-1.786c-0.636,0-1.224,0.396-1.511,0.96c-0.072,0.119-0.12,0.275-0.12,0.468
			c0.024,1.283,0.612,2.229,1.715,2.229C98.928,109.316,99.54,108.563,99.54,107.445z"/>
		<path opacity="0.7" fill="#AA1111" enable-background="new    " d="M102.158,109.258c0.228,0.023,0.492,0,0.852-0.035
			c0.612-0.084,1.188-0.337,1.631-0.757c0.516-0.468,0.888-1.151,1.032-2.075h-0.036c-0.432,0.528-1.055,0.84-1.835,0.84
			c-1.403,0-2.303-1.056-2.303-2.387c0-1.476,1.067-2.771,2.663-2.771c1.596,0,2.579,1.295,2.579,3.286
			c0,1.715-0.576,2.914-1.343,3.658c-0.6,0.588-1.427,0.946-2.267,1.043c-0.384,0.061-0.72,0.071-0.972,0.061L102.158,109.258
			L102.158,109.258z M102.542,104.771c0,0.972,0.588,1.654,1.499,1.654c0.708,0,1.259-0.348,1.535-0.814
			c0.06-0.096,0.096-0.217,0.096-0.385c0-1.33-0.492-2.351-1.595-2.351C103.177,102.877,102.542,103.668,102.542,104.771z"/>
		<path opacity="0.7" fill="#AA1111" enable-background="new    " d="M112.151,102.949c-0.216-0.014-0.492,0-0.792,0.048
			c-1.655,0.274-2.531,1.487-2.71,2.771h0.036c0.372-0.492,1.02-0.898,1.883-0.898c1.379,0,2.351,0.994,2.351,2.52
			c0,1.426-0.972,2.745-2.591,2.745c-1.667,0-2.758-1.295-2.758-3.321c0-1.535,0.552-2.746,1.319-3.515
			c0.647-0.636,1.511-1.03,2.495-1.151c0.312-0.047,0.576-0.061,0.768-0.061L112.151,102.949L112.151,102.949z M111.852,107.445
			c0-1.114-0.636-1.786-1.607-1.786c-0.636,0-1.224,0.396-1.511,0.96c-0.072,0.119-0.12,0.275-0.12,0.468
			c0.024,1.283,0.612,2.229,1.715,2.229C111.24,109.316,111.852,108.563,111.852,107.445z"/>
		<path fill="#AA1111" d="M3.496,117.917H4.54v7.208h3.454v0.876H3.496V117.917z"/>
		<path fill="#AA1111" d="M14.209,123.051c0,2.146-1.487,3.082-2.89,3.082c-1.571,0-2.783-1.15-2.783-2.986
			c0-1.942,1.271-3.082,2.878-3.082C13.082,120.064,14.209,121.275,14.209,123.051z M9.604,123.109c0,1.271,0.732,2.231,1.763,2.231
			c1.007,0,1.763-0.948,1.763-2.255c0-0.982-0.492-2.23-1.739-2.23S9.604,122.007,9.604,123.109z"/>
		<path fill="#AA1111" d="M15.544,121.768c0-0.6-0.012-1.092-0.048-1.57h0.936l0.06,0.959h0.024
			c0.288-0.553,0.959-1.092,1.919-1.092c0.803,0,2.051,0.479,2.051,2.472v3.466H19.43v-3.346c0-0.936-0.348-1.717-1.343-1.717
			c-0.695,0-1.235,0.492-1.415,1.08c-0.048,0.133-0.072,0.313-0.072,0.491v3.49h-1.056V121.768z"/>
		<path fill="#AA1111" d="M27.217,117.484v7.018c0,0.516,0.012,1.104,0.048,1.499h-0.947l-0.048-1.008h-0.024
			c-0.324,0.647-1.032,1.14-1.979,1.14c-1.403,0-2.483-1.188-2.483-2.949c-0.012-1.932,1.188-3.119,2.603-3.119
			c0.888,0,1.487,0.42,1.751,0.889h0.024v-3.467h1.055V117.484z M26.162,122.559c0-0.132-0.012-0.312-0.048-0.442
			c-0.156-0.673-0.731-1.224-1.523-1.224c-1.091,0-1.739,0.959-1.739,2.242c0,1.176,0.576,2.146,1.715,2.146
			c0.708,0,1.355-0.469,1.547-1.26c0.036-0.145,0.048-0.287,0.048-0.455V122.559z"/>
		<path fill="#AA1111" d="M34.225,123.051c0,2.146-1.487,3.082-2.89,3.082c-1.571,0-2.783-1.15-2.783-2.986
			c0-1.942,1.271-3.082,2.878-3.082C33.098,120.064,34.225,121.275,34.225,123.051z M29.619,123.109
			c0,1.271,0.732,2.231,1.763,2.231c1.007,0,1.763-0.948,1.763-2.255c0-0.982-0.492-2.23-1.739-2.23
			C30.159,120.855,29.619,122.007,29.619,123.109z"/>
		<path fill="#AA1111" d="M35.56,121.768c0-0.6-0.012-1.092-0.048-1.57h0.936l0.06,0.959h0.024c0.288-0.553,0.959-1.092,1.919-1.092
			c0.803,0,2.051,0.479,2.051,2.472v3.466h-1.056v-3.346c0-0.936-0.348-1.717-1.343-1.717c-0.695,0-1.235,0.492-1.415,1.08
			c-0.048,0.133-0.072,0.313-0.072,0.491v3.49H35.56V121.768z"/>
		<path fill="#AA1111" d="M41.536,127.477c0.264-0.707,0.588-1.99,0.72-2.867l1.175-0.118c-0.276,1.019-0.804,2.351-1.14,2.913
			L41.536,127.477z"/>
		<path fill="#AA1111" d="M54.191,121.875c0,2.783-1.691,4.258-3.754,4.258c-2.135,0-3.634-1.654-3.634-4.102
			c0-2.566,1.595-4.246,3.754-4.246C52.764,117.785,54.191,119.477,54.191,121.875z M47.919,122.007
			c0,1.728,0.935,3.274,2.578,3.274c1.655,0,2.591-1.523,2.591-3.358c0-1.606-0.839-3.286-2.579-3.286
			C48.782,118.637,47.919,120.232,47.919,122.007z"/>
		<path fill="#AA1111" d="M55.515,121.768c0-0.6-0.012-1.092-0.048-1.57h0.936l0.06,0.959h0.024
			c0.288-0.553,0.959-1.092,1.919-1.092c0.803,0,2.051,0.479,2.051,2.472v3.466h-1.056v-3.346c0-0.936-0.348-1.717-1.343-1.717
			c-0.695,0-1.235,0.492-1.415,1.08c-0.048,0.133-0.072,0.313-0.072,0.491v3.49h-1.056V121.768z"/>
		<path fill="#AA1111" d="M63.398,118.529v1.666h1.511V121h-1.511v3.13c0,0.72,0.204,1.128,0.792,1.128
			c0.276,0,0.479-0.035,0.612-0.072l0.048,0.791c-0.204,0.084-0.528,0.146-0.936,0.146c-0.492,0-0.888-0.156-1.14-0.444
			c-0.3-0.312-0.408-0.826-0.408-1.511V121h-0.899v-0.805h0.899v-1.391L63.398,118.529z"/>
		<path fill="#AA1111" d="M69.313,126.001l-0.084-0.731h-0.036c-0.324,0.457-0.947,0.863-1.775,0.863
			c-1.175,0-1.775-0.826-1.775-1.667c0-1.403,1.247-2.171,3.49-2.159v-0.119c0-0.479-0.132-1.344-1.319-1.344
			c-0.54,0-1.104,0.168-1.511,0.432l-0.24-0.694c0.48-0.312,1.175-0.517,1.907-0.517c1.775,0,2.207,1.211,2.207,2.375v2.17
			c0,0.504,0.024,0.996,0.096,1.393L69.313,126.001L69.313,126.001z M69.157,123.039c-1.151-0.023-2.458,0.18-2.458,1.307
			c0,0.684,0.456,1.008,0.996,1.008c0.755,0,1.235-0.479,1.403-0.972c0.036-0.108,0.06-0.228,0.06-0.336L69.157,123.039
			L69.157,123.039z"/>
		<path fill="#AA1111" d="M71.883,122.007c0-0.684-0.012-1.271-0.048-1.812h0.923l0.036,1.141h0.048
			c0.264-0.779,0.899-1.271,1.607-1.271c0.12,0,0.204,0.013,0.3,0.037v0.994c-0.108-0.023-0.216-0.035-0.359-0.035
			c-0.744,0-1.271,0.563-1.416,1.354c-0.024,0.144-0.048,0.312-0.048,0.491v3.095h-1.043V122.007z"/>
		<path fill="#AA1111" d="M77.03,118.564c0.012,0.359-0.252,0.647-0.671,0.647c-0.372,0-0.636-0.288-0.636-0.647
			c0-0.371,0.276-0.66,0.66-0.66C76.778,117.904,77.03,118.193,77.03,118.564z M75.855,126.001v-5.806h1.056v5.806H75.855z"/>
		<path fill="#AA1111" d="M83.916,123.051c0,2.146-1.487,3.082-2.89,3.082c-1.571,0-2.783-1.15-2.783-2.986
			c0-1.942,1.271-3.082,2.878-3.082C82.789,120.064,83.916,121.275,83.916,123.051z M79.31,123.109c0,1.271,0.732,2.231,1.763,2.231
			c1.007,0,1.763-0.948,1.763-2.255c0-0.982-0.492-2.23-1.739-2.23S79.31,122.007,79.31,123.109z"/>
	</g>
	<g>
		<path fill="#AA1111" d="M108.885,131.863l0.768,2.949c0.168,0.647,0.324,1.248,0.432,1.848h0.036
			c0.132-0.587,0.324-1.211,0.516-1.835l0.947-2.962h0.888l0.899,2.902c0.216,0.694,0.384,1.308,0.516,1.895h0.036
			c0.096-0.587,0.252-1.199,0.444-1.883l0.828-2.914h1.043l-1.871,5.805h-0.959l-0.888-2.771c-0.204-0.646-0.372-1.224-0.516-1.906
			h-0.024c-0.144,0.695-0.324,1.296-0.528,1.919l-0.936,2.759h-0.959l-1.751-5.805H108.885z"/>
		<path fill="#AA1111" d="M117.861,131.863l0.768,2.949c0.168,0.647,0.324,1.248,0.432,1.848h0.036
			c0.132-0.587,0.324-1.211,0.516-1.835l0.947-2.962h0.888l0.899,2.902c0.216,0.694,0.384,1.308,0.516,1.895h0.036
			c0.096-0.587,0.252-1.199,0.444-1.883l0.828-2.914h1.043l-1.871,5.805h-0.959l-0.888-2.771c-0.204-0.646-0.372-1.224-0.516-1.906
			h-0.024c-0.144,0.695-0.324,1.296-0.528,1.919l-0.936,2.759h-0.959l-1.751-5.805H117.861z"/>
		<path fill="#AA1111" d="M126.837,131.863l0.769,2.949c0.168,0.647,0.322,1.248,0.432,1.848h0.036
			c0.132-0.587,0.323-1.211,0.516-1.835l0.947-2.962h0.888l0.899,2.902c0.216,0.694,0.384,1.308,0.516,1.895h0.036
			c0.096-0.587,0.252-1.199,0.443-1.883l0.828-2.914h1.043l-1.871,5.805h-0.959l-0.889-2.771c-0.203-0.646-0.371-1.224-0.516-1.906
			h-0.023c-0.145,0.695-0.324,1.296-0.527,1.919l-0.937,2.759h-0.96l-1.75-5.805H126.837z"/>
		<path fill="#AA1111" d="M134.529,137.044c0-0.442,0.3-0.755,0.72-0.755s0.708,0.313,0.708,0.755c0,0.433-0.275,0.756-0.721,0.756
			C134.816,137.8,134.529,137.477,134.529,137.044z"/>
		<path fill="#AA1111" d="M137.266,133.436c0-0.601-0.013-1.093-0.049-1.571h0.924l0.049,0.936h0.035
			c0.324-0.552,0.863-1.067,1.823-1.067c0.792,0,1.392,0.479,1.644,1.164h0.023c0.18-0.324,0.408-0.576,0.646-0.756
			c0.349-0.265,0.731-0.408,1.283-0.408c0.769,0,1.907,0.504,1.907,2.52v3.418h-1.03v-3.286c0-1.114-0.408-1.786-1.26-1.786
			c-0.601,0-1.068,0.442-1.248,0.959c-0.048,0.145-0.084,0.336-0.084,0.527v3.586h-1.031v-3.479c0-0.924-0.407-1.596-1.211-1.596
			c-0.66,0-1.14,0.527-1.308,1.057c-0.062,0.154-0.084,0.336-0.084,0.516v3.502h-1.03V133.436L137.266,133.436z"/>
		<path fill="#AA1111" d="M148.448,130.232c0.013,0.358-0.253,0.646-0.671,0.646c-0.373,0-0.637-0.288-0.637-0.646
			c0-0.373,0.275-0.66,0.659-0.66C148.195,129.572,148.448,129.859,148.448,130.232z M147.273,137.668v-5.805h1.055v5.805H147.273z"
			/>
		<path fill="#AA1111" d="M154.219,137.452c-0.275,0.144-0.888,0.336-1.668,0.336c-1.75,0-2.891-1.188-2.891-2.963
			c0-1.787,1.225-3.082,3.119-3.082c0.623,0,1.176,0.155,1.463,0.3l-0.24,0.814c-0.252-0.144-0.646-0.274-1.223-0.274
			c-1.332,0-2.051,0.983-2.051,2.194c0,1.344,0.862,2.171,2.015,2.171c0.6,0,0.995-0.156,1.296-0.288L154.219,137.452z"/>
		<path fill="#AA1111" d="M155.457,129.152h1.055v3.621h0.024c0.168-0.299,0.432-0.563,0.755-0.742
			c0.313-0.18,0.684-0.301,1.08-0.301c0.779,0,2.027,0.479,2.027,2.482v3.454h-1.058v-3.334c0-0.937-0.348-1.728-1.343-1.728
			c-0.684,0-1.225,0.479-1.415,1.056c-0.062,0.144-0.072,0.3-0.072,0.504v3.502h-1.055L155.457,129.152L155.457,129.152z"/>
		<path fill="#AA1111" d="M162.705,134.957c0.023,1.428,0.936,2.016,1.99,2.016c0.756,0,1.211-0.132,1.606-0.3l0.181,0.755
			c-0.373,0.168-1.008,0.36-1.933,0.36c-1.786,0-2.854-1.177-2.854-2.927c0-1.752,1.031-3.131,2.724-3.131
			c1.896,0,2.397,1.668,2.397,2.734c0,0.217-0.023,0.385-0.035,0.491L162.705,134.957L162.705,134.957z M165.799,134.202
			c0.012-0.673-0.275-1.716-1.463-1.716c-1.068,0-1.535,0.984-1.619,1.716H165.799z"/>
		<path fill="#AA1111" d="M168.129,129.152h1.055v8.516h-1.055V129.152z"/>
		<path fill="#AA1111" d="M173.407,134.034v0.778h-2.962v-0.778H173.407z"/>
		<path fill="#AA1111" d="M174.598,137.668c0.023-0.396,0.047-0.982,0.047-1.499v-7.017h1.043v3.646h0.024
			c0.372-0.647,1.044-1.067,1.979-1.067c1.438,0,2.457,1.199,2.445,2.963c0,2.074-1.308,3.105-2.603,3.105
			c-0.841,0-1.513-0.324-1.943-1.092h-0.034l-0.05,0.96L174.598,137.668L174.598,137.668z M175.688,135.341
			c0,0.134,0.024,0.265,0.049,0.384c0.203,0.732,0.815,1.235,1.584,1.235c1.103,0,1.763-0.899,1.763-2.229
			c0-1.164-0.601-2.16-1.728-2.16c-0.721,0-1.392,0.492-1.606,1.297c-0.022,0.119-0.062,0.264-0.062,0.432V135.341L175.688,135.341z
			"/>
		<path fill="#AA1111" d="M182.061,134.957c0.023,1.428,0.936,2.016,1.99,2.016c0.756,0,1.211-0.132,1.607-0.3l0.18,0.755
			c-0.372,0.168-1.008,0.36-1.932,0.36c-1.787,0-2.854-1.177-2.854-2.927c0-1.752,1.031-3.131,2.724-3.131
			c1.895,0,2.397,1.668,2.397,2.734c0,0.217-0.024,0.385-0.036,0.491L182.061,134.957L182.061,134.957z M185.154,134.202
			c0.012-0.673-0.275-1.716-1.463-1.716c-1.068,0-1.535,0.984-1.619,1.716H185.154z"/>
		<path fill="#AA1111" d="M190.698,137.668l-0.085-0.73h-0.035c-0.324,0.455-0.947,0.862-1.775,0.862
			c-1.175,0-1.773-0.827-1.773-1.667c0-1.402,1.246-2.171,3.488-2.158v-0.119c0-0.48-0.131-1.345-1.317-1.345
			c-0.54,0-1.104,0.169-1.513,0.433l-0.239-0.695c0.479-0.313,1.176-0.516,1.907-0.516c1.774,0,2.207,1.211,2.207,2.373v2.172
			c0,0.504,0.023,0.996,0.097,1.392L190.698,137.668L190.698,137.668z M190.542,134.706c-1.151-0.024-2.458,0.18-2.458,1.308
			c0,0.684,0.455,1.008,0.995,1.008c0.755,0,1.235-0.479,1.403-0.973c0.035-0.107,0.06-0.229,0.06-0.336V134.706z"/>
		<path fill="#AA1111" d="M198.125,136.085c0,0.601,0.012,1.127,0.049,1.583h-0.936l-0.062-0.947h-0.022
			c-0.276,0.469-0.889,1.079-1.92,1.079c-0.91,0-2.002-0.504-2.002-2.543v-3.394h1.055v3.214c0,1.104,0.336,1.848,1.296,1.848
			c0.708,0,1.199-0.491,1.392-0.96c0.061-0.156,0.096-0.348,0.096-0.54v-3.562h1.056L198.125,136.085L198.125,136.085z"/>
		<path fill="#AA1111" d="M199.832,137.668c0.023-0.396,0.048-0.982,0.048-1.499v-7.017h1.044v3.646h0.023
			c0.371-0.647,1.043-1.067,1.979-1.067c1.439,0,2.459,1.199,2.447,2.963c0,2.074-1.309,3.105-2.604,3.105
			c-0.84,0-1.511-0.324-1.942-1.092h-0.036l-0.047,0.96L199.832,137.668L199.832,137.668z M200.924,135.341
			c0,0.134,0.023,0.265,0.047,0.384c0.205,0.732,0.816,1.235,1.584,1.235c1.104,0,1.764-0.899,1.764-2.229
			c0-1.164-0.601-2.16-1.729-2.16c-0.719,0-1.391,0.492-1.605,1.297c-0.024,0.119-0.061,0.264-0.061,0.432V135.341z"/>
		<path fill="#AA1111" d="M207.883,130.232c0.014,0.358-0.252,0.646-0.671,0.646c-0.372,0-0.636-0.288-0.636-0.646
			c0-0.373,0.275-0.66,0.66-0.66C207.631,129.572,207.883,129.859,207.883,130.232z M206.708,137.668v-5.805h1.056v5.805H206.708z"
			/>
		<path fill="#AA1111" d="M210.104,134.957c0.023,1.428,0.937,2.016,1.99,2.016c0.756,0,1.213-0.132,1.607-0.3l0.18,0.755
			c-0.371,0.168-1.007,0.36-1.931,0.36c-1.787,0-2.854-1.177-2.854-2.927c0-1.752,1.031-3.131,2.723-3.131
			c1.896,0,2.398,1.668,2.398,2.734c0,0.217-0.023,0.385-0.035,0.491L210.104,134.957L210.104,134.957z M213.197,134.202
			c0.012-0.673-0.275-1.716-1.463-1.716c-1.067,0-1.535,0.984-1.619,1.716H213.197z"/>
		<path fill="#AA1111" d="M215.527,133.436c0-0.601-0.012-1.093-0.047-1.571h0.936l0.061,0.959h0.023
			c0.287-0.552,0.959-1.091,1.918-1.091c0.805,0,2.051,0.479,2.051,2.471v3.466h-1.055v-3.346c0-0.937-0.348-1.716-1.344-1.716
			c-0.695,0-1.235,0.492-1.416,1.08c-0.047,0.131-0.07,0.312-0.07,0.49v3.49h-1.057V133.436L215.527,133.436z"/>
		<path fill="#AA1111" d="M221.936,137.044c0-0.442,0.301-0.755,0.721-0.755s0.707,0.313,0.707,0.755
			c0,0.433-0.275,0.756-0.721,0.756C222.225,137.8,221.936,137.477,221.936,137.044z"/>
		<path fill="#AA1111" d="M228.809,137.452c-0.274,0.144-0.887,0.336-1.666,0.336c-1.752,0-2.891-1.188-2.891-2.963
			c0-1.787,1.223-3.082,3.118-3.082c0.624,0,1.175,0.155,1.463,0.3l-0.239,0.814c-0.252-0.144-0.648-0.274-1.224-0.274
			c-1.331,0-2.052,0.983-2.052,2.194c0,1.344,0.863,2.171,2.016,2.171c0.6,0,0.996-0.156,1.295-0.288L228.809,137.452z"/>
		<path fill="#AA1111" d="M235.229,134.718c0,2.146-1.485,3.082-2.891,3.082c-1.57,0-2.781-1.151-2.781-2.985
			c0-1.943,1.271-3.082,2.877-3.082C234.102,131.73,235.229,132.941,235.229,134.718z M230.623,134.777
			c0,1.271,0.732,2.23,1.764,2.23c1.008,0,1.764-0.947,1.764-2.255c0-0.983-0.491-2.231-1.739-2.231
			S230.623,133.674,230.623,134.777z"/>
		<path fill="#AA1111" d="M236.563,133.436c0-0.601-0.012-1.093-0.047-1.571h0.924l0.047,0.936h0.037
			c0.322-0.552,0.863-1.067,1.822-1.067c0.791,0,1.391,0.479,1.643,1.164h0.025c0.18-0.324,0.406-0.576,0.646-0.756
			c0.348-0.265,0.731-0.408,1.282-0.408c0.769,0,1.908,0.504,1.908,2.52v3.418h-1.031v-3.286c0-1.114-0.407-1.786-1.26-1.786
			c-0.6,0-1.067,0.442-1.248,0.959c-0.047,0.145-0.084,0.336-0.084,0.527v3.586h-1.031v-3.479c0-0.924-0.407-1.596-1.211-1.596
			c-0.659,0-1.139,0.527-1.308,1.057c-0.06,0.154-0.084,0.336-0.084,0.516v3.502h-1.03V133.436L236.563,133.436z"/>
	</g>
	<g>
		<path fill="#AA1111" d="M119.529,19.949c-0.051-1.377-0.102-3.043-0.102-4.708h-0.051c-0.357,1.462-0.833,3.094-1.274,4.437
			l-1.394,4.471h-2.023l-1.224-4.438c-0.374-1.343-0.765-2.975-1.037-4.47h-0.034c-0.068,1.547-0.119,3.314-0.204,4.742
			l-0.204,4.352h-2.397l0.731-11.457h3.451l1.122,3.825c0.357,1.325,0.714,2.753,0.969,4.096h0.051
			c0.323-1.325,0.714-2.838,1.088-4.113l1.224-3.808h3.383l0.629,11.457H119.7L119.529,19.949z"/>
		<path fill="#AA1111" d="M126.908,13.71c0,0.714-0.544,1.292-1.394,1.292c-0.815,0-1.359-0.578-1.343-1.292
			c-0.017-0.748,0.527-1.309,1.36-1.309C126.364,12.402,126.891,12.962,126.908,13.71z M124.239,24.334v-8.313h2.583v8.313H124.239z
			"/>
		<path fill="#AA1111" d="M135.135,24.13c-0.459,0.204-1.326,0.374-2.312,0.374c-2.687,0-4.402-1.632-4.402-4.249
			c0-2.432,1.665-4.42,4.759-4.42c0.682,0,1.43,0.119,1.973,0.323l-0.407,1.921c-0.308-0.137-0.765-0.256-1.445-0.256
			c-1.358,0-2.243,0.97-2.227,2.329c0,1.53,1.02,2.329,2.276,2.329c0.613,0,1.088-0.103,1.479-0.255L135.135,24.13z"/>
		<path fill="#AA1111" d="M136.564,12.266h2.582v4.743h0.035c0.271-0.357,0.61-0.629,1.02-0.85c0.374-0.204,0.867-0.323,1.344-0.323
			c1.648,0,2.906,1.139,2.906,3.638v4.861h-2.584v-4.572c0-1.088-0.374-1.836-1.344-1.836c-0.681,0-1.104,0.441-1.291,0.9
			c-0.068,0.17-0.086,0.392-0.086,0.578v4.93h-2.582V12.266L136.564,12.266z"/>
		<path fill="#AA1111" d="M148.516,21.002c0.084,1.071,1.139,1.581,2.346,1.581c0.884,0,1.598-0.119,2.293-0.34l0.342,1.751
			c-0.852,0.34-1.887,0.51-3.01,0.51c-2.821,0-4.437-1.632-4.437-4.232c0-2.107,1.31-4.437,4.198-4.437
			c2.686,0,3.706,2.091,3.706,4.147c0,0.442-0.052,0.833-0.085,1.02H148.516z M151.557,19.235c0-0.629-0.271-1.683-1.461-1.683
			c-1.088,0-1.529,0.985-1.598,1.683H151.557z"/>
		<path fill="#AA1111" d="M155.502,12.266h2.584v12.069h-2.584V12.266z"/>
		<path fill="#AA1111" d="M163.695,13.031c0.68-0.136,2.057-0.238,3.349-0.238c1.581,0,2.55,0.153,3.382,0.646
			c0.801,0.425,1.377,1.207,1.377,2.244c0,1.021-0.594,1.972-1.887,2.448v0.034c1.311,0.356,2.277,1.343,2.277,2.821
			c0,1.037-0.476,1.853-1.189,2.431c-0.832,0.663-2.227,1.037-4.504,1.037c-1.275,0-2.227-0.085-2.805-0.17V13.031L163.695,13.031z
			 M166.262,17.417h0.85c1.361,0,2.093-0.562,2.093-1.411c0-0.867-0.664-1.326-1.836-1.326c-0.562,0-0.886,0.034-1.104,0.068v2.669
			H166.262z M166.262,22.499c0.256,0.034,0.562,0.034,1.004,0.034c1.172,0,2.209-0.442,2.209-1.648c0-1.156-1.037-1.615-2.328-1.615
			h-0.885V22.499L166.262,22.499z"/>
		<path fill="#AA1111" d="M175.969,21.002c0.086,1.071,1.139,1.581,2.346,1.581c0.886,0,1.599-0.119,2.295-0.34l0.341,1.751
			c-0.851,0.34-1.888,0.51-3.009,0.51c-2.821,0-4.438-1.632-4.438-4.232c0-2.107,1.309-4.437,4.199-4.437
			c2.686,0,3.705,2.091,3.705,4.147c0,0.442-0.051,0.833-0.084,1.02H175.969z M179.012,19.235c0-0.629-0.271-1.683-1.462-1.683
			c-1.088,0-1.53,0.985-1.598,1.683H179.012z"/>
		<path fill="#AA1111" d="M187.682,24.334l-0.152-0.833h-0.051c-0.545,0.663-1.395,1.02-2.381,1.02
			c-1.683,0-2.686-1.224-2.686-2.549c0-2.159,1.938-3.196,4.879-3.179v-0.119c0-0.442-0.238-1.071-1.514-1.071
			c-0.851,0-1.75,0.289-2.295,0.629l-0.476-1.666c0.578-0.322,1.718-0.73,3.229-0.73c2.771,0,3.654,1.632,3.654,3.587v2.89
			c0,0.799,0.034,1.563,0.119,2.022L187.682,24.334L187.682,24.334z M187.376,20.408c-1.36-0.017-2.414,0.306-2.414,1.309
			c0,0.663,0.442,0.986,1.021,0.986c0.646,0,1.172-0.425,1.343-0.952c0.034-0.136,0.052-0.289,0.052-0.441L187.376,20.408
			L187.376,20.408z"/>
		<path fill="#AA1111" d="M199.768,21.666c0,1.088,0.035,1.972,0.068,2.669h-2.244l-0.119-1.173h-0.051
			c-0.322,0.51-1.104,1.359-2.6,1.359c-1.684,0-2.924-1.054-2.924-3.62v-4.879h2.6v4.471c0,1.207,0.393,1.938,1.293,1.938
			c0.713,0,1.121-0.493,1.291-0.901c0.068-0.153,0.086-0.357,0.086-0.562v-4.947h2.6V21.666z"/>
		<path fill="#AA1111" d="M201.775,24.334c0.033-0.544,0.067-1.547,0.067-2.481v-9.587h2.583v4.743h0.034
			c0.492-0.714,1.358-1.173,2.517-1.173c1.987,0,3.45,1.648,3.434,4.198c0,2.992-1.904,4.487-3.809,4.487
			c-0.969,0-1.902-0.356-2.498-1.343h-0.033l-0.104,1.156H201.775z M204.427,20.798c0,0.171,0.017,0.323,0.052,0.459
			c0.17,0.697,0.765,1.225,1.513,1.225c1.104,0,1.784-0.851,1.784-2.346c0-1.292-0.577-2.313-1.784-2.313
			c-0.696,0-1.343,0.527-1.513,1.275c-0.035,0.153-0.052,0.306-0.052,0.476V20.798z"/>
		<path fill="#AA1111" d="M214.678,13.71c0,0.714-0.544,1.292-1.394,1.292c-0.816,0-1.36-0.578-1.343-1.292
			c-0.019-0.748,0.525-1.309,1.358-1.309S214.66,12.962,214.678,13.71z M212.01,24.334v-8.313h2.583v8.313H212.01z"/>
		<path fill="#AA1111" d="M218.656,21.002c0.084,1.071,1.139,1.581,2.346,1.581c0.883,0,1.598-0.119,2.294-0.34l0.341,1.751
			c-0.851,0.34-1.888,0.51-3.01,0.51c-2.82,0-4.436-1.632-4.436-4.232c0-2.107,1.309-4.437,4.197-4.437
			c2.687,0,3.707,2.091,3.707,4.147c0,0.442-0.053,0.833-0.087,1.02H218.656z M221.698,19.235c0-0.629-0.272-1.683-1.462-1.683
			c-1.088,0-1.529,0.985-1.598,1.683H221.698z"/>
		<path fill="#AA1111" d="M225.643,18.674c0-1.037-0.033-1.921-0.067-2.652h2.243l0.119,1.14h0.052
			c0.34-0.527,1.19-1.326,2.565-1.326c1.701,0,2.977,1.122,2.977,3.569v4.93h-2.584v-4.606c0-1.071-0.374-1.802-1.309-1.802
			c-0.715,0-1.141,0.493-1.311,0.969c-0.066,0.153-0.102,0.408-0.102,0.646v4.794h-2.584V18.674L225.643,18.674z"/>
		<path opacity="0.7" fill="#AA1111" enable-background="new    " d="M116.852,47.334l-2.72-11.457h2.771l0.867,4.726
			c0.255,1.36,0.493,2.839,0.68,3.995h0.034c0.187-1.241,0.459-2.618,0.748-4.029l0.969-4.691h2.754l0.918,4.828
			c0.255,1.343,0.442,2.566,0.612,3.841h0.034c0.17-1.274,0.425-2.617,0.663-3.978l0.935-4.691h2.635l-2.958,11.457h-2.805
			l-0.969-4.93c-0.221-1.155-0.408-2.228-0.544-3.535h-0.034c-0.204,1.292-0.391,2.38-0.663,3.535l-1.088,4.93L116.852,47.334
			L116.852,47.334z"/>
		<path opacity="0.7" fill="#AA1111" enable-background="new    " d="M131.285,44.002c0.085,1.071,1.139,1.581,2.346,1.581
			c0.885,0,1.598-0.119,2.295-0.34l0.34,1.751c-0.85,0.34-1.887,0.51-3.009,0.51c-2.821,0-4.437-1.632-4.437-4.232
			c0-2.107,1.309-4.437,4.197-4.437c2.688,0,3.707,2.091,3.707,4.147c0,0.442-0.052,0.833-0.086,1.02H131.285z M134.328,42.235
			c0-0.629-0.271-1.683-1.463-1.683c-1.088,0-1.529,0.985-1.598,1.683H134.328z"/>
		<path opacity="0.7" fill="#AA1111" enable-background="new    " d="M138.204,47.334c0.034-0.544,0.067-1.547,0.067-2.481v-9.587
			h2.584v4.742h0.035c0.491-0.714,1.358-1.173,2.516-1.173c1.988,0,3.449,1.648,3.434,4.198c0,2.992-1.904,4.487-3.809,4.487
			c-0.969,0-1.903-0.356-2.498-1.343h-0.034l-0.103,1.156L138.204,47.334L138.204,47.334z M140.855,43.798
			c0,0.171,0.018,0.323,0.052,0.459c0.17,0.697,0.765,1.225,1.513,1.225c1.105,0,1.785-0.851,1.785-2.346
			c0-1.292-0.578-2.313-1.785-2.313c-0.697,0-1.343,0.527-1.513,1.275c-0.034,0.153-0.052,0.306-0.052,0.476V43.798z"/>
		<path opacity="0.7" fill="#AA1111" enable-background="new    " d="M151.957,36.031c0.951-0.153,2.191-0.238,3.502-0.238
			c2.176,0,3.586,0.391,4.691,1.224c1.188,0.885,1.938,2.295,1.938,4.318c0,2.192-0.799,3.705-1.904,4.64
			c-1.207,1.003-3.043,1.479-5.285,1.479c-1.344,0-2.295-0.085-2.94-0.17L151.957,36.031L151.957,36.031z M154.559,45.379
			c0.221,0.052,0.578,0.052,0.9,0.052c2.346,0.017,3.875-1.275,3.875-4.012c0.018-2.38-1.377-3.638-3.604-3.638
			c-0.578,0-0.953,0.051-1.174,0.102v7.496H154.559z"/>
		<path opacity="0.7" fill="#AA1111" enable-background="new    " d="M165.693,44.002c0.084,1.071,1.139,1.581,2.346,1.581
			c0.883,0,1.598-0.119,2.294-0.34l0.341,1.751c-0.851,0.34-1.888,0.51-3.01,0.51c-2.821,0-4.436-1.632-4.436-4.232
			c0-2.107,1.309-4.437,4.197-4.437c2.686,0,3.706,2.091,3.706,4.147c0,0.442-0.052,0.833-0.086,1.02H165.693z M168.734,42.235
			c0-0.629-0.271-1.683-1.461-1.683c-1.088,0-1.529,0.985-1.599,1.683H168.734z"/>
		<path opacity="0.7" fill="#AA1111" enable-background="new    " d="M174.498,39.022l1.123,3.859
			c0.203,0.696,0.355,1.359,0.477,2.022h0.051c0.136-0.68,0.271-1.309,0.459-2.022l1.07-3.859h2.719l-3.094,8.313h-2.582
			l-3.027-8.313H174.498z"/>
		<path opacity="0.7" fill="#AA1111" enable-background="new    " d="M183.322,44.002c0.084,1.071,1.139,1.581,2.346,1.581
			c0.883,0,1.598-0.119,2.294-0.34l0.341,1.751c-0.851,0.34-1.888,0.51-3.01,0.51c-2.82,0-4.436-1.632-4.436-4.232
			c0-2.107,1.309-4.437,4.197-4.437c2.687,0,3.707,2.091,3.707,4.147c0,0.442-0.053,0.833-0.087,1.02H183.322z M186.363,42.235
			c0-0.629-0.271-1.683-1.461-1.683c-1.088,0-1.529,0.985-1.598,1.683H186.363z"/>
		<path opacity="0.7" fill="#AA1111" enable-background="new    " d="M190.309,35.266h2.584v12.068h-2.584V35.266z"/>
		<path opacity="0.7" fill="#AA1111" enable-background="new    " d="M203.193,43.084c0,3.043-2.158,4.437-4.385,4.437
			c-2.432,0-4.302-1.598-4.302-4.283s1.769-4.402,4.438-4.402C201.494,38.835,203.193,40.586,203.193,43.084z M197.177,43.169
			c0,1.429,0.595,2.499,1.7,2.499c1.003,0,1.648-1.003,1.648-2.499c0-1.24-0.477-2.498-1.648-2.498
			C197.637,40.671,197.177,41.946,197.177,43.169z"/>
		<path opacity="0.7" fill="#AA1111" enable-background="new    " d="M204.793,41.81c0-1.088-0.034-2.022-0.068-2.788h2.244
			l0.119,1.156h0.033c0.611-0.884,1.564-1.343,2.771-1.343c1.817,0,3.449,1.581,3.449,4.232c0,3.025-1.921,4.453-3.773,4.453
			c-1.002,0-1.783-0.407-2.158-0.951h-0.033v4.13h-2.584V41.81L204.793,41.81z M207.377,43.765c0,0.204,0.018,0.391,0.051,0.544
			c0.17,0.696,0.766,1.224,1.514,1.224c1.121,0,1.783-0.935,1.783-2.346c0-1.326-0.594-2.329-1.75-2.329
			c-0.73,0-1.377,0.544-1.547,1.31c-0.033,0.136-0.051,0.306-0.051,0.458V43.765z"/>
		<path opacity="0.7" fill="#AA1111" enable-background="new    " d="M216.998,44.002c0.086,1.071,1.139,1.581,2.346,1.581
			c0.885,0,1.598-0.119,2.295-0.34l0.34,1.751c-0.85,0.34-1.887,0.51-3.008,0.51c-2.822,0-4.438-1.632-4.438-4.232
			c0-2.107,1.309-4.437,4.199-4.437c2.686,0,3.705,2.091,3.705,4.147c0,0.442-0.051,0.833-0.084,1.02H216.998z M220.041,42.235
			c0-0.629-0.271-1.683-1.462-1.683c-1.088,0-1.53,0.985-1.599,1.683H220.041z"/>
		<path opacity="0.7" fill="#AA1111" enable-background="new    " d="M223.986,41.759c0-1.225-0.035-2.023-0.068-2.737h2.227
			l0.086,1.53h0.066c0.426-1.207,1.445-1.717,2.244-1.717c0.238,0,0.357,0,0.544,0.034V41.3c-0.187-0.034-0.407-0.068-0.696-0.068
			c-0.951,0-1.598,0.51-1.769,1.309c-0.034,0.17-0.052,0.374-0.052,0.578v4.216h-2.582V41.759L223.986,41.759z"/>
	</g>
</g>
</svg>
